<svg width="32" height="30" viewBox="0 0 32 30" fill="none" xmlns="http://www.w3.org/2000/svg">
<path d="M15.0948 6.22612C17.4821 6.22612 19.7316 7.28442 21.3801 8.93881V8.94369C21.3801 8.14924 21.9146 7.54826 22.6534 7.54826H22.841C24.0068 7.54826 24.2403 8.6476 24.2403 8.99451L24.2452 21.3413C24.1641 22.1505 25.0807 22.5687 25.5898 22.0488C27.5686 20.0133 29.9403 11.5743 24.3576 6.68833C19.1511 2.12777 12.1632 2.88119 8.44791 5.44143C4.49907 8.16976 1.97498 14.1961 4.42675 19.8599C7.10426 26.0348 14.7586 27.8768 19.3143 26.0397C21.6205 25.1084 22.6837 28.2218 20.2866 29.241C16.6739 30.782 6.6059 30.6247 1.90364 22.4817C-1.27321 16.9811 -1.10514 7.30494 7.32413 2.29194C13.7668 -1.5455 22.2674 -0.482313 27.3918 4.86782C32.7468 10.4662 32.437 20.9407 27.209 25.0127C24.8413 26.8644 21.3254 25.0635 21.3508 22.3654L21.3244 21.486C19.6759 23.1189 17.4821 24.0765 15.0948 24.0765C10.372 24.0765 6.21404 19.9176 6.21404 15.1997C6.21404 10.431 10.372 6.22807 15.0948 6.22807V6.22612ZM21.0351 14.8586C20.8563 11.4023 18.2912 9.32089 15.1915 9.32089H15.0743C11.5016 9.32089 9.51696 12.1352 9.51696 15.3257C9.51696 18.9033 11.914 21.1625 15.0596 21.1625C18.5707 21.1625 20.8758 18.5935 21.0439 15.5544L21.0351 14.8586Z" fill="white"/>
</svg>
