<svg width="28" height="28" viewBox="0 0 28 28" fill="none" xmlns="http://www.w3.org/2000/svg">
<path d="M8.39398 4.6656V6.53093H26.1146V10.2234L24.0453 16.7902H7.80711L5.47544 0H0V1.86533H3.85121L6.18287 18.6556H25.4133L27.9799 10.5103V4.6656H8.39398Z" fill="white"/>
<path d="M9.38398 20.5386C8.39489 20.5397 7.44664 20.9331 6.74725 21.6325C6.04786 22.3319 5.65445 23.2801 5.65332 24.2692C5.65332 25.2587 6.04637 26.2076 6.74601 26.9072C7.44564 27.6068 8.39455 27.9999 9.38398 27.9999C10.3734 27.9999 11.3223 27.6068 12.022 26.9072C12.7216 26.2076 13.1146 25.2587 13.1146 24.2692C13.1135 23.2801 12.7201 22.3319 12.0207 21.6325C11.3213 20.9331 10.3731 20.5397 9.38398 20.5386ZM9.38398 26.1346C9.01505 26.1346 8.65441 26.0252 8.34766 25.8202C8.04091 25.6152 7.80182 25.3239 7.66064 24.9831C7.51946 24.6422 7.48252 24.2672 7.55449 23.9053C7.62647 23.5435 7.80412 23.2111 8.06499 22.9502C8.32586 22.6894 8.65823 22.5117 9.02007 22.4397C9.38191 22.3678 9.75697 22.4047 10.0978 22.5459C10.4387 22.6871 10.73 22.9262 10.9349 23.2329C11.1399 23.5397 11.2493 23.9003 11.2493 24.2692C11.2487 24.7638 11.052 25.2379 10.7023 25.5876C10.3526 25.9373 9.87852 26.134 9.38398 26.1346Z" fill="white"/>
<path d="M22.4411 20.5386C21.452 20.5397 20.5038 20.9331 19.8044 21.6325C19.105 22.3319 18.7116 23.2801 18.7104 24.2692C18.7104 25.2587 19.1035 26.2076 19.8031 26.9072C20.5028 27.6068 21.4517 27.9999 22.4411 27.9999C23.4305 27.9999 24.3794 27.6068 25.0791 26.9072C25.7787 26.2076 26.1718 25.2587 26.1718 24.2692C26.1707 23.2801 25.7772 22.3319 25.0779 21.6325C24.3785 20.9331 23.4302 20.5397 22.4411 20.5386ZM22.4411 26.1346C22.0722 26.1346 21.7115 26.0252 21.4048 25.8202C21.098 25.6152 20.859 25.3239 20.7178 24.9831C20.5766 24.6422 20.5396 24.2672 20.6116 23.9053C20.6836 23.5435 20.8613 23.2111 21.1221 22.9502C21.383 22.6894 21.7154 22.5117 22.0772 22.4397C22.439 22.3678 22.8141 22.4047 23.1549 22.5459C23.4958 22.6871 23.7871 22.9262 23.9921 23.2329C24.197 23.5397 24.3064 23.9003 24.3064 24.2692C24.3059 24.7638 24.1091 25.2379 23.7594 25.5876C23.4098 25.9373 22.9356 26.134 22.4411 26.1346Z" fill="white"/>
</svg>
