<svg width="100" height="100" viewBox="0 0 100 100" fill="none" xmlns="http://www.w3.org/2000/svg">
<path d="M97.1408 10.3913L96.9756 10.2881L76.0929 0L53.5535 30.0525L63.9233 43.8799C63.613 49.0945 61.4016 54.0144 57.7078 57.7082C54.0139 61.402 49.094 63.6133 43.8794 63.9235L30.0523 53.5537L0 76.0927L10.2025 96.8008L10.2883 96.9756L10.3918 97.1405C10.9362 98.0178 11.6962 98.7411 12.5992 99.2417C13.5023 99.7422 14.5184 100.003 15.5509 100H20.9394C31.3218 100 41.6025 97.955 51.1946 93.9818C60.7867 90.0086 69.5023 84.185 76.8437 76.8436C84.1852 69.5021 90.0087 60.7865 93.9819 51.1944C97.9551 41.6023 100 31.3215 100 20.9391V15.5504C100.003 14.518 99.7423 13.5018 99.2418 12.5988C98.7413 11.6957 98.018 10.9358 97.1408 10.3913ZM92.2829 20.9391C92.2829 60.2782 60.2782 92.2829 20.9394 92.2829H16.5792L9.75295 78.4252L30.0537 63.1996L41.3561 71.6761H42.6422C50.3403 71.6675 57.7206 68.6056 63.1639 63.1623C68.6073 57.7189 71.6692 50.3386 71.6778 42.6405V41.3544L63.2013 30.0523L78.4252 9.75271L92.2829 16.5802V20.9391Z" fill="black"/>
</svg>
