<svg width="28" height="28" viewBox="0 0 28 28" fill="none" xmlns="http://www.w3.org/2000/svg">
<path d="M8.39398 4.6656V6.53093H26.1146V10.2234L24.0453 16.7902H7.80711L5.47544 0H0V1.86533H3.85121L6.18287 18.6556H25.4133L27.9799 10.5103V4.6656H8.39398Z" fill="white"/>
<path d="M9.38398 20.5387C8.39489 20.5398 7.44664 20.9332 6.74725 21.6326C6.04786 22.332 5.65445 23.2802 5.65332 24.2693C5.65332 25.2588 6.04637 26.2077 6.74601 26.9073C7.44564 27.6069 8.39455 28 9.38398 28C10.3734 28 11.3223 27.6069 12.022 26.9073C12.7216 26.2077 13.1146 25.2588 13.1146 24.2693C13.1135 23.2802 12.7201 22.332 12.0207 21.6326C11.3213 20.9332 10.3731 20.5398 9.38398 20.5387ZM9.38398 26.1347C9.01505 26.1347 8.65441 26.0253 8.34766 25.8203C8.04091 25.6153 7.80182 25.324 7.66064 24.9832C7.51946 24.6423 7.48252 24.2673 7.55449 23.9054C7.62647 23.5436 7.80412 23.2112 8.06499 22.9503C8.32586 22.6895 8.65823 22.5118 9.02007 22.4398C9.38191 22.3679 9.75697 22.4048 10.0978 22.546C10.4387 22.6872 10.73 22.9263 10.9349 23.233C11.1399 23.5398 11.2493 23.9004 11.2493 24.2693C11.2487 24.7639 11.052 25.238 10.7023 25.5877C10.3526 25.9374 9.87852 26.1341 9.38398 26.1347Z" fill="white"/>
<path d="M22.4416 20.5387C21.4525 20.5398 20.5043 20.9332 19.8049 21.6326C19.1055 22.332 18.7121 23.2802 18.7109 24.2693C18.7109 25.2588 19.104 26.2077 19.8036 26.9073C20.5033 27.6069 21.4522 28 22.4416 28C23.431 28 24.3799 27.6069 25.0796 26.9073C25.7792 26.2077 26.1723 25.2588 26.1723 24.2693C26.1711 23.2802 25.7777 22.332 25.0783 21.6326C24.3789 20.9332 23.4307 20.5398 22.4416 20.5387ZM22.4416 26.1347C22.0727 26.1347 21.712 26.0253 21.4053 25.8203C21.0985 25.6153 20.8594 25.324 20.7183 24.9832C20.5771 24.6423 20.5401 24.2673 20.6121 23.9054C20.6841 23.5436 20.8617 23.2112 21.1226 22.9503C21.3835 22.6895 21.7159 22.5118 22.0777 22.4398C22.4395 22.3679 22.8146 22.4048 23.1554 22.546C23.4963 22.6872 23.7876 22.9263 23.9926 23.233C24.1975 23.5398 24.3069 23.9004 24.3069 24.2693C24.3063 24.7639 24.1096 25.238 23.7599 25.5877C23.4102 25.9374 22.9361 26.1341 22.4416 26.1347Z" fill="white"/>
</svg>
