<svg width="30" height="30" viewBox="0 0 30 30" fill="none" xmlns="http://www.w3.org/2000/svg">
<path d="M29.1422 3.11739L29.0927 3.08643L22.8279 0L16.066 9.01575L19.177 13.164C19.0839 14.7283 18.4205 16.2043 17.3123 17.3125C16.2042 18.4206 14.7282 19.084 13.1638 19.1771L9.01568 16.0661L0 22.8278L3.06074 29.0402L3.0865 29.0927L3.11754 29.1422C3.28087 29.4053 3.50885 29.6223 3.77977 29.7725C4.05068 29.9227 4.35552 30.001 4.66527 30H6.28181C9.39653 30 12.4808 29.3865 15.3584 28.1945C18.236 27.0026 20.8507 25.2555 23.0531 23.0531C25.2556 20.8506 27.0026 18.2359 28.1946 15.3583C29.3865 12.4807 30 9.39646 30 6.28173V4.66513C30.001 4.35539 29.9227 4.05055 29.7725 3.77963C29.6224 3.50871 29.4054 3.28073 29.1422 3.11739ZM27.6849 6.28173C27.6849 18.0835 18.0835 27.6849 6.28181 27.6849H4.97376L2.92589 23.5275L9.01612 18.9599L12.4068 21.5028H12.7927C15.1021 21.5002 17.3162 20.5817 18.9492 18.9487C20.5822 17.3157 21.5007 15.1016 21.5033 12.7922V12.4063L18.9604 9.01568L23.5275 2.92581L27.6849 4.97405V6.28173Z" fill="white"/>
</svg>
