<svg width="28" height="28" viewBox="0 0 28 28" fill="none" xmlns="http://www.w3.org/2000/svg">
<path d="M8.39398 4.6656V6.53093H26.1146V10.2234L24.0453 16.7902H7.80711L5.47544 0H0V1.86533H3.85121L6.18287 18.6556H25.4133L27.9799 10.5103V4.6656H8.39398Z" fill="white"/>
<path d="M9.38398 20.5387C8.39489 20.5398 7.44664 20.9332 6.74725 21.6326C6.04786 22.332 5.65445 23.2802 5.65332 24.2693C5.65332 25.2588 6.04637 26.2077 6.74601 26.9073C7.44564 27.6069 8.39455 28 9.38398 28C10.3734 28 11.3223 27.6069 12.022 26.9073C12.7216 26.2077 13.1146 25.2588 13.1146 24.2693C13.1135 23.2802 12.7201 22.332 12.0207 21.6326C11.3213 20.9332 10.3731 20.5398 9.38398 20.5387ZM9.38398 26.1347C9.01505 26.1347 8.65441 26.0253 8.34766 25.8203C8.04091 25.6153 7.80182 25.324 7.66064 24.9832C7.51946 24.6423 7.48252 24.2673 7.55449 23.9054C7.62647 23.5436 7.80412 23.2112 8.06499 22.9503C8.32586 22.6895 8.65823 22.5118 9.02007 22.4398C9.38191 22.3679 9.75697 22.4048 10.0978 22.546C10.4387 22.6872 10.73 22.9263 10.9349 23.233C11.1399 23.5398 11.2493 23.9004 11.2493 24.2693C11.2487 24.7639 11.052 25.238 10.7023 25.5877C10.3526 25.9374 9.87852 26.1341 9.38398 26.1347Z" fill="white"/>
<path d="M22.4414 20.5387C21.4523 20.5398 20.504 20.9332 19.8046 21.6326C19.1052 22.332 18.7118 23.2802 18.7107 24.2693C18.7107 25.2588 19.1037 26.2077 19.8034 26.9073C20.503 27.6069 21.4519 28 22.4414 28C23.4308 28 24.3797 27.6069 25.0793 26.9073C25.779 26.2077 26.172 25.2588 26.172 24.2693C26.1709 23.2802 25.7775 22.332 25.0781 21.6326C24.3787 20.9332 23.4304 20.5398 22.4414 20.5387ZM22.4414 26.1347C22.0724 26.1347 21.7118 26.0253 21.405 25.8203C21.0983 25.6153 20.8592 25.324 20.718 24.9832C20.5768 24.6423 20.5399 24.2673 20.6119 23.9054C20.6838 23.5436 20.8615 23.2112 21.1224 22.9503C21.3832 22.6895 21.7156 22.5118 22.0774 22.4398C22.4393 22.3679 22.8143 22.4048 23.1552 22.546C23.496 22.6872 23.7874 22.9263 23.9923 23.233C24.1973 23.5398 24.3067 23.9004 24.3067 24.2693C24.3061 24.7639 24.1094 25.238 23.7597 25.5877C23.41 25.9374 22.9359 26.1341 22.4414 26.1347Z" fill="white"/>
</svg>
