<svg width="43" height="30" viewBox="0 0 43 30" fill="none" xmlns="http://www.w3.org/2000/svg">
<path d="M41.7107 4.62719C41.2047 2.81686 39.8038 1.39704 37.9994 0.895143C34.6769 4.27937e-05 21.3203 4.30101e-05 21.3203 4.30101e-05C21.3203 4.30101e-05 7.98911 -0.0214289 4.632 0.895143C2.83692 1.39839 1.42936 2.81686 0.928657 4.62719C0.298783 8.05863 -0.0141569 11.5317 0.000491371 15.0208C-0.00616692 18.4872 0.305441 21.9548 0.928657 25.3648C1.42936 27.1751 2.83692 28.5949 4.632 29.1049C7.95449 30 21.3203 30 21.3203 30C21.3203 30 34.6436 30 37.9994 29.1049C39.8038 28.5949 41.2047 27.1765 41.7107 25.3648C42.3219 21.9548 42.6202 18.4872 42.5989 15.0208C42.6202 11.5317 42.3286 8.05863 41.7107 4.62719ZM17.0537 21.4449V8.56858L28.1717 15.0208L17.0537 21.4449Z" fill="white"/>
</svg>
