<svg width="28" height="28" viewBox="0 0 28 28" fill="none" xmlns="http://www.w3.org/2000/svg">
<path d="M8.39398 4.6656V6.53093H26.1146V10.2234L24.0453 16.7902H7.80711L5.47544 0H0V1.86533H3.85121L6.18287 18.6556H25.4133L27.9799 10.5103V4.6656H8.39398Z" fill="white"/>
<path d="M9.38398 20.5387C8.39489 20.5398 7.44664 20.9332 6.74725 21.6326C6.04786 22.332 5.65445 23.2802 5.65332 24.2693C5.65332 25.2588 6.04637 26.2077 6.74601 26.9073C7.44564 27.6069 8.39455 28 9.38398 28C10.3734 28 11.3223 27.6069 12.022 26.9073C12.7216 26.2077 13.1146 25.2588 13.1146 24.2693C13.1135 23.2802 12.7201 22.332 12.0207 21.6326C11.3213 20.9332 10.3731 20.5398 9.38398 20.5387ZM9.38398 26.1347C9.01505 26.1347 8.65441 26.0253 8.34766 25.8203C8.04091 25.6153 7.80182 25.324 7.66064 24.9832C7.51946 24.6423 7.48252 24.2673 7.55449 23.9054C7.62647 23.5436 7.80412 23.2112 8.06499 22.9503C8.32586 22.6895 8.65823 22.5118 9.02007 22.4398C9.38191 22.3679 9.75697 22.4048 10.0978 22.546C10.4387 22.6872 10.73 22.9263 10.9349 23.233C11.1399 23.5398 11.2493 23.9004 11.2493 24.2693C11.2487 24.7639 11.052 25.238 10.7023 25.5877C10.3526 25.9374 9.87852 26.1341 9.38398 26.1347Z" fill="white"/>
<path d="M22.4411 20.5387C21.452 20.5398 20.5038 20.9332 19.8044 21.6326C19.105 22.332 18.7116 23.2802 18.7104 24.2693C18.7104 25.2588 19.1035 26.2077 19.8031 26.9073C20.5028 27.6069 21.4517 28 22.4411 28C23.4305 28 24.3794 27.6069 25.0791 26.9073C25.7787 26.2077 26.1718 25.2588 26.1718 24.2693C26.1707 23.2802 25.7772 22.332 25.0779 21.6326C24.3785 20.9332 23.4302 20.5398 22.4411 20.5387ZM22.4411 26.1347C22.0722 26.1347 21.7115 26.0253 21.4048 25.8203C21.098 25.6153 20.859 25.324 20.7178 24.9832C20.5766 24.6423 20.5396 24.2673 20.6116 23.9054C20.6836 23.5436 20.8613 23.2112 21.1221 22.9503C21.383 22.6895 21.7154 22.5118 22.0772 22.4398C22.439 22.3679 22.8141 22.4048 23.1549 22.546C23.4958 22.6872 23.7871 22.9263 23.9921 23.233C24.197 23.5398 24.3064 23.9004 24.3064 24.2693C24.3059 24.7639 24.1091 25.238 23.7594 25.5877C23.4098 25.9374 22.9356 26.1341 22.4411 26.1347Z" fill="white"/>
</svg>
