<svg width="75" height="100" viewBox="0 0 75 100" fill="none" xmlns="http://www.w3.org/2000/svg">
<path d="M37.4984 23.5098C34.769 23.5098 32.101 24.312 29.8316 25.8149C27.5622 27.3179 25.7934 29.4541 24.7489 31.9535C23.7045 34.4528 23.4312 37.203 23.9637 39.8563C24.4961 42.5096 25.8104 44.9468 27.7404 46.8598C29.6703 48.7727 32.1292 50.0754 34.8062 50.6032C37.4831 51.1309 40.2578 50.8601 42.7794 49.8248C45.301 48.7895 47.4562 47.0364 48.9726 44.787C50.489 42.5377 51.2983 39.8931 51.2983 37.1879C51.2941 33.5615 49.8389 30.0848 47.2518 27.5206C44.6647 24.9563 41.1571 23.5139 37.4984 23.5098ZM37.4984 44.0269C36.1337 44.0269 34.7997 43.6258 33.665 42.8743C32.5303 42.1229 31.6459 41.0547 31.1237 39.8051C30.6014 38.5554 30.4648 37.1803 30.731 35.8536C30.9973 34.527 31.6544 33.3084 32.6194 32.3519C33.5844 31.3955 34.8138 30.7441 36.1523 30.4802C37.4907 30.2163 38.8781 30.3518 40.1389 30.8694C41.3997 31.387 42.4773 32.2636 43.2355 33.3883C43.9937 34.513 44.3984 35.8352 44.3984 37.1879C44.3962 39.0011 43.6686 40.7394 42.3751 42.0215C41.0815 43.3036 39.3277 44.0248 37.4984 44.0269Z" fill="black"/>
<path d="M64.0161 10.8837C57.4596 4.38673 48.7074 0.527244 39.4487 0.0501635C30.1901 -0.426917 21.0813 2.51223 13.8805 8.30035C6.67957 14.0885 1.89706 22.3152 0.455935 31.3929C-0.985187 40.4705 1.01725 49.7555 6.07677 57.4558L32.1472 97.1251C32.7273 98.0078 33.5206 98.733 34.455 99.235C35.3894 99.7371 36.4355 100 37.4984 100C38.5613 100 39.6073 99.7371 40.5418 99.235C41.4762 98.733 42.2695 98.0078 42.8496 97.1251L68.9209 57.4558C73.6155 50.3126 75.6903 41.787 74.7973 33.308C73.9043 24.829 70.0979 16.9119 64.0161 10.8837ZM63.1396 53.7227L37.4985 92.7374L11.8572 53.7227C4.00851 41.7802 5.69188 25.7982 15.8598 15.7196C18.7014 12.903 22.0749 10.6687 25.7877 9.1444C29.5005 7.62006 33.4798 6.83549 37.4985 6.83549C41.5172 6.83549 45.4965 7.62006 49.2093 9.1444C52.9221 10.6687 56.2956 12.903 59.1372 15.7196C69.3051 25.7982 70.9883 41.7802 63.1396 53.7227Z" fill="black"/>
</svg>
