<svg width="27" height="34" viewBox="0 0 27 34" fill="none" xmlns="http://www.w3.org/2000/svg">
<path d="M13.4995 7.99341C12.5169 7.99341 11.5564 8.26616 10.7394 8.77717C9.92243 9.28818 9.28567 10.0145 8.90966 10.8643C8.53365 11.7141 8.43526 12.6491 8.62695 13.5512C8.81864 14.4534 9.2918 15.282 9.98658 15.9324C10.6814 16.5828 11.5666 17.0257 12.5303 17.2052C13.494 17.3846 14.4928 17.2925 15.4006 16.9405C16.3084 16.5885 17.0843 15.9925 17.6302 15.2277C18.1761 14.4629 18.4674 13.5638 18.4674 12.644C18.4659 11.411 17.942 10.2289 17.0107 9.35708C16.0793 8.48523 14.8166 7.99481 13.4995 7.99341ZM13.4995 14.9692C13.0082 14.9692 12.5279 14.8329 12.1194 14.5774C11.7109 14.3219 11.3926 13.9587 11.2046 13.5338C11.0166 13.1089 10.9674 12.6414 11.0632 12.1903C11.1591 11.7393 11.3956 11.3249 11.743 10.9997C12.0904 10.6745 12.533 10.4531 13.0149 10.3634C13.4967 10.2736 13.9962 10.3197 14.45 10.4957C14.9039 10.6717 15.2919 10.9697 15.5648 11.3521C15.8378 11.7345 15.9834 12.1841 15.9834 12.644C15.9827 13.2604 15.7207 13.8515 15.2551 14.2874C14.7894 14.7233 14.158 14.9685 13.4995 14.9692Z" fill="white"/>
<path d="M23.0458 3.70047C20.6854 1.49149 17.5347 0.179263 14.2015 0.0170556C10.8684 -0.145152 7.58928 0.854159 4.99696 2.82212C2.40465 4.79008 0.68294 7.58718 0.164136 10.6736C-0.354667 13.76 0.366209 16.9169 2.18764 19.535L11.573 33.0225C11.7818 33.3226 12.0674 33.5692 12.4038 33.7399C12.7402 33.9106 13.1168 34 13.4994 34C13.8821 34 14.2586 33.9106 14.595 33.7399C14.9314 33.5692 15.217 33.3226 15.4259 33.0225L24.8115 19.535C26.5016 17.1063 27.2485 14.2076 26.927 11.3247C26.6055 8.44186 25.2352 5.75005 23.0458 3.70047ZM22.7303 18.2657L13.4995 31.5307L4.26859 18.2657C1.44306 14.2053 2.04908 8.7714 5.70954 5.34466C6.73251 4.38702 7.94697 3.62737 9.28357 3.1091C10.6202 2.59082 12.0527 2.32407 13.4995 2.32407C14.9462 2.32407 16.3788 2.59082 17.7154 3.1091C19.052 3.62737 20.2664 4.38702 21.2894 5.34466C24.9498 8.7714 25.5558 14.2053 22.7303 18.2657Z" fill="white"/>
</svg>
