<svg width="105" height="100" viewBox="0 0 105 100" fill="none" xmlns="http://www.w3.org/2000/svg">
<path d="M50.3159 20.7537C58.2735 20.7537 65.7719 24.2814 71.2669 29.796V29.8123C71.2669 27.1641 73.0487 25.1609 75.5112 25.1609H76.1366C80.0226 25.1609 80.8011 28.8253 80.8011 29.9817L80.8174 71.1378C80.547 73.8349 83.6024 75.229 85.2994 73.4961C91.8955 66.7111 99.801 38.581 81.192 22.2944C63.837 7.09257 40.544 9.60396 28.1597 18.1381C14.9969 27.2325 6.58326 47.3204 14.7558 66.1997C23.6809 86.7827 49.1954 92.9227 64.381 86.799C72.0682 83.6948 75.6122 94.0726 67.622 97.4699C55.5797 102.607 22.0197 102.082 6.34547 74.9391C-4.24405 56.6037 -3.68379 24.3498 24.4138 7.6398C45.8892 -5.15167 74.2246 -1.60771 91.3059 16.2261C109.156 34.8872 108.123 69.8023 90.6968 83.3755C82.8043 89.5482 71.0845 83.5449 71.1692 74.5515L71.0813 71.6199C65.5862 77.0629 58.2735 80.255 50.3159 80.255C34.5733 80.255 20.7135 66.3919 20.7135 50.6656C20.7135 34.7699 34.5733 20.7602 50.3159 20.7602V20.7537ZM70.1171 49.5288C69.521 38.0077 60.9706 31.0696 50.6384 31.0696H50.2475C38.3388 31.0696 31.7232 40.4507 31.7232 51.0858C31.7232 63.0108 39.7134 70.5417 50.1987 70.5417C61.9022 70.5417 69.5862 61.9783 70.1464 51.848L70.1171 49.5288Z" fill="black"/>
</svg>
