<svg width="348" height="340" viewBox="0 0 348 340" fill="none" xmlns="http://www.w3.org/2000/svg">
<g opacity="0.6">
<path d="M281.841 107.181C296.535 132.616 301.328 162.556 295.287 191.167C289.246 219.777 272.803 245.009 249.163 261.946C225.522 278.883 196.377 286.312 167.406 282.785C138.436 279.258 111.714 265.029 92.4492 242.868C73.184 220.708 62.7548 192.204 63.1937 162.912C63.6325 133.619 74.908 105.635 94.8232 84.4132C114.738 63.191 141.867 50.2504 170.922 48.1128C199.978 45.9753 228.88 54.7939 251.996 72.8504C257.293 76.9571 262.229 81.5166 266.747 86.4774C270.131 90.1791 273.263 94.1055 276.122 98.2295C278.156 101.117 280.063 104.1 281.841 107.181Z" fill="white"/>
<path d="M240.22 269.726C221.392 280.624 199.897 286.074 178.09 285.479C160.347 284.954 142.905 280.495 127.011 272.421C112.174 264.82 99.0541 254.201 88.4935 241.243C77.9329 228.285 70.1646 213.275 65.6868 197.177C61.2091 181.078 60.1208 164.246 62.4919 147.76C64.8629 131.274 70.6409 115.498 79.4552 101.445C88.2695 87.3922 99.9254 75.3719 113.675 66.1555C127.425 56.9392 142.965 50.7303 159.298 47.9272C175.631 45.1241 192.397 45.7886 208.52 49.8782C224.643 53.9678 239.767 61.3922 252.921 71.675C258.281 75.8639 263.272 80.51 267.838 85.5606C271.265 89.3106 274.437 93.2871 277.333 97.4628C279.356 100.329 281.304 103.356 283.094 106.457C298.964 134.021 303.362 166.69 295.325 197.298C287.287 227.906 267.47 253.953 240.22 269.726ZM121.717 64.4718C101.87 75.9303 85.9016 93.0766 75.8304 113.742C65.7593 134.408 62.0379 157.665 65.1369 180.573C68.2358 203.48 78.016 225.009 93.2405 242.437C108.465 259.865 128.45 272.409 150.669 278.484C172.887 284.558 196.341 283.889 218.065 276.562C239.788 269.235 258.806 255.579 272.712 237.32C286.619 219.062 294.789 197.021 296.191 173.985C297.593 150.949 292.163 127.953 280.588 107.904C278.841 104.879 276.95 101.921 274.964 99.1177C272.15 95.0647 269.067 91.2055 265.738 87.5663C261.297 82.6348 256.441 78.0971 251.225 74.0043C232.916 59.6858 210.826 51.1351 187.772 49.4425C164.719 47.7499 141.746 52.9922 121.784 64.5008L121.717 64.4718Z" fill="#032A47"/>
<path d="M244.23 241.251C243.52 243.956 244.565 246.779 245.093 249.546C245.621 252.313 245.306 255.702 242.934 257.121C240.729 258.395 237.825 257.388 235.951 255.617C234.251 253.691 232.675 251.658 231.234 249.531C229.515 247.451 227.274 245.741 226.175 243.287C223.457 237.278 228.056 228.429 222.739 224.545C221.001 223.27 218.457 222.916 217.451 220.999C217.11 220.044 216.856 219.061 216.691 218.062C215.134 213.138 208.215 213.655 203.326 212.276C196.071 210.186 192.054 202.564 188.972 195.634C185.658 188.215 182.422 179.687 185.591 172.27C188.921 164.407 197.993 160.992 206.265 158.882C207.139 158.547 208.107 158.539 208.992 158.861C210.959 159.835 210.374 163.278 212.283 164.387C214.764 165.79 216.64 162.007 218.885 160.339C223.988 156.532 231.97 164.599 237.232 161.037C238.49 160.176 239.461 158.704 240.976 158.522C242.491 158.339 243.812 159.585 245.319 159.879C249.841 160.796 253.647 153.383 257.704 155.547C258.273 155.894 258.788 156.326 259.228 156.827C262.829 160.605 266.591 166.079 263.993 170.549C263.016 172.244 261.204 173.561 261.03 175.517C260.743 178.637 264.703 180.519 265.554 183.555C265.832 185.003 265.697 186.496 265.167 187.863C264.138 191.131 262.591 194.206 260.586 196.972C259.774 197.921 259.127 199.002 258.672 200.17C258 202.246 258.891 204.6 258.776 206.861C258.6 208.374 258.188 209.848 257.555 211.228C255.194 216.497 253.177 221.917 251.52 227.456C250.007 232.852 245.637 236.135 244.23 241.251Z" fill="#1A340C"/>
<path d="M243.644 258.467C240.749 260.138 237.126 258.753 234.982 256.717C233.802 255.533 232.752 254.228 231.847 252.822C231.343 251.948 230.738 251.218 230.123 250.442C229.508 249.666 229.011 249.211 228.433 248.616C226.988 247.266 225.783 245.678 224.871 243.921C223.568 241.028 223.777 237.802 223.916 234.599C224.14 230.79 224.32 227.514 221.92 225.76C221.338 225.37 220.721 225.037 220.076 224.765C218.869 224.464 217.782 223.793 216.965 222.846C216.149 221.899 215.644 220.722 215.521 219.479C215.463 219.138 215.385 218.799 215.287 218.467C214.486 215.892 211.585 215.237 207.237 214.507C205.774 214.302 204.324 214.012 202.893 213.639C195.326 211.443 191.072 203.958 187.597 196.175C184.123 188.392 180.807 179.639 184.198 171.622C187.861 162.976 197.676 159.487 205.835 157.443C206.477 157.15 207.181 157.019 207.888 157.062C208.594 157.104 209.281 157.32 209.889 157.688C210.497 158.057 211.007 158.569 211.376 159.178C211.745 159.788 211.962 160.478 212.007 161.187C212.263 162.036 212.504 162.858 212.949 163.108C213.393 163.357 214.276 162.831 215.801 161.191C216.453 160.438 217.174 159.75 217.957 159.136C221.131 156.763 225.022 158.061 228.461 159.215C231.475 160.209 234.317 161.168 236.318 159.742C236.678 159.479 237.02 159.192 237.341 158.881C238.216 157.896 239.384 157.222 240.674 156.957C241.857 156.894 243.034 157.183 244.061 157.787C244.508 158.023 244.98 158.21 245.467 158.342C246.994 158.642 248.638 157.439 250.388 156.159C252.741 154.446 255.31 152.558 258.264 154.144C258.968 154.564 259.604 155.09 260.151 155.704C265.82 161.646 267.533 166.986 265.137 171.171C264.737 171.825 264.286 172.447 263.788 173.03C263.084 173.716 262.586 174.588 262.351 175.548C262.255 176.683 263.167 177.743 264.247 178.976C265.402 180.125 266.283 181.521 266.822 183.059C267.194 184.775 267.062 186.557 266.442 188.19C265.378 191.607 263.762 194.82 261.659 197.702L261.366 198.091C260.77 198.807 260.295 199.617 259.96 200.489C259.723 201.601 259.721 202.752 259.956 203.867C260.102 204.849 260.154 205.842 260.113 206.831C259.926 208.5 259.478 210.126 258.784 211.649L257.278 215.32C255.476 219.344 253.964 223.494 252.753 227.739C251.914 230.523 250.593 233.131 248.848 235.445C247.42 237.336 246.317 239.456 245.586 241.717C245.279 243.621 245.433 245.575 246.035 247.415C246.181 248.073 246.34 248.724 246.459 249.365C247.201 253.544 246.189 256.913 243.637 258.454L243.644 258.467ZM194.528 164.713C191.163 166.475 188.476 169.301 186.877 172.76C183.937 179.706 187.063 187.842 190.25 194.981C193.436 202.121 197.253 208.963 203.689 210.851C204.919 211.187 206.272 211.418 207.717 211.664C211.927 212.356 216.682 213.155 218.087 217.644C218.22 218.088 218.325 218.541 218.401 218.998C218.472 219.497 218.613 219.984 218.819 220.445C219.456 221.279 220.336 221.893 221.335 222.199C222.171 222.535 222.973 222.954 223.728 223.45C227.429 226.157 227.173 230.575 226.959 234.834C226.807 237.639 226.642 240.536 227.649 242.773C228.435 244.24 229.46 245.565 230.681 246.693C231.293 247.319 231.927 247.982 232.511 248.675C233.094 249.368 233.796 250.38 234.383 251.223C235.168 252.479 236.088 253.646 237.127 254.702C238.571 256.046 240.831 256.951 242.388 256.002C243.945 255.052 244.282 252.191 243.889 249.92C243.772 249.312 243.635 248.699 243.499 248.086C242.765 245.784 242.618 243.339 243.069 240.976C243.869 238.396 245.098 235.975 246.703 233.814C248.242 231.759 249.419 229.453 250.184 226.994C251.403 222.627 252.936 218.358 254.771 214.219L256.26 210.575C256.819 209.339 257.186 208.023 257.348 206.673C257.374 205.859 257.329 205.044 257.211 204.237C256.933 202.733 256.976 201.189 257.337 199.708C257.761 198.517 258.389 197.412 259.194 196.442L259.462 196.068C261.374 193.434 262.847 190.503 263.825 187.389C264.268 186.29 264.4 185.087 264.206 183.911C263.76 182.804 263.089 181.8 262.237 180.964C260.912 179.45 259.418 177.731 259.629 175.347C259.885 173.802 260.608 172.377 261.7 171.265C262.104 170.805 262.466 170.308 262.781 169.781C264.927 166.06 261.498 161.221 258.226 157.811C257.895 157.413 257.505 157.069 257.069 156.791C255.804 156.104 254.414 157.025 252.267 158.602C250.12 160.179 247.855 161.841 245.09 161.277C244.356 161.11 243.645 160.851 242.974 160.507C242.432 160.167 241.813 159.972 241.177 159.941C240.5 160.155 239.898 160.555 239.439 161.097C238.99 161.484 238.511 161.834 238.005 162.144C234.786 164.323 230.974 163.047 227.582 161.917C224.541 160.904 221.674 159.961 219.7 161.404C219.068 161.928 218.477 162.5 217.932 163.117C216.359 164.818 214.208 167.141 211.5 165.548C210.305 164.689 209.491 163.394 209.236 161.944C208.973 161.083 208.739 160.273 208.296 160.056C207.717 159.949 207.122 159.995 206.57 160.191C202.366 161.158 198.312 162.681 194.515 164.721L194.528 164.713Z" fill="#032A47"/>
<path d="M172.287 176.457C166.335 174.83 159.985 175.407 153.792 175.995C152.607 176.029 151.443 176.31 150.375 176.82C149.354 177.57 148.437 178.451 147.646 179.443C142.148 184.997 132.414 182.346 126.36 177.301C120.306 172.256 115.672 165.329 108.713 161.667C103.071 158.697 96.0086 155.145 97.633 147.338C98.1752 145.665 98.6192 143.96 98.9626 142.233C99.6294 134.996 89.6067 129.964 90.4447 122.763C90.7039 120.318 92.3225 117.999 91.9249 115.545C91.5273 113.091 89.0913 111.274 87.3665 109.299C80.5079 101.529 94.9564 99.5839 99.9016 100.104C104.025 100.475 108.045 102.373 112.154 101.908C116.701 101.392 120.448 98.0139 122.801 94.0732C123.175 93.2292 123.802 92.5253 124.595 92.0585C126.416 91.2771 128.2 93.353 128.771 95.2681C129.342 97.1831 129.605 99.4617 131.318 100.548C133.246 101.747 135.78 100.521 137.993 100.998C140.661 101.568 142.15 104.32 143.785 106.515C145.42 108.71 148.446 110.71 150.68 109.168C152.143 108.171 152.429 106.149 153.257 104.574C154.085 102.999 156.479 101.82 157.521 103.277C157.752 103.65 157.907 104.066 157.976 104.499L163.246 127.837C163.969 129.49 164.061 131.348 163.503 133.053C162.946 134.759 161.778 136.191 160.225 137.074C154.733 141.877 149.467 146.925 144.427 152.221C142.59 153.873 141.202 155.969 140.392 158.314C139.793 160.719 140.712 163.699 143.03 164.589C144.724 162.952 147.645 164.422 149.062 166.355C151.173 169.288 151.78 171.064 155.483 172.066C158.577 172.725 161.741 172.959 164.89 172.761C168.812 172.572 172.738 173.175 176.439 174.532C179.572 175.879 183.426 178.937 183.676 182.641C181.911 182.478 180.517 180.583 179.088 179.585C177.016 178.153 174.714 177.095 172.287 176.457Z" fill="#1A340C"/>
<path d="M184.413 183.887C184.158 184.032 183.867 184.1 183.574 184.084C181.993 183.778 180.55 182.965 179.462 181.766C179.088 181.406 178.689 181.072 178.268 180.768C176.332 179.429 174.182 178.437 171.914 177.837C166.021 176.311 159.91 176.868 153.917 177.426C152.941 177.444 151.98 177.66 151.092 178.061C150.48 178.462 149.929 178.951 149.457 179.511C149.189 179.801 148.929 180.103 148.642 180.387C142.59 186.514 132.139 183.924 125.377 178.376C123.065 176.396 120.868 174.282 118.799 172.047C115.367 168.476 112.117 165.103 107.996 162.942L107.726 162.794C102.072 159.831 94.3467 155.768 96.1695 147.002C96.3385 146.242 96.553 145.492 96.8118 144.758C97.1237 143.885 97.3466 142.981 97.4772 142.062C97.751 139.034 95.7067 136.333 93.4787 133.4C91.0157 130.146 88.4671 126.774 88.8851 122.55C89.0413 121.456 89.3192 120.384 89.7134 119.354C90.2229 118.211 90.4631 116.964 90.4154 115.708C89.9158 114.141 88.9548 112.759 87.6601 111.746C87.159 111.225 86.6161 110.661 86.1911 110.215C83.5611 107.193 83.7941 104.847 84.5147 103.52C86.7882 98.9499 96.7843 98.2926 100.023 98.5492C101.729 98.7389 103.419 99.0549 105.08 99.4946C107.32 100.179 109.658 100.468 111.99 100.349C115.602 99.9512 119.093 97.345 121.578 93.2271C122.097 92.1164 122.962 91.2082 124.043 90.639C124.51 90.4362 125.017 90.3385 125.527 90.3528C126.037 90.3671 126.54 90.4931 126.998 90.722C127.769 91.1566 128.447 91.7401 128.994 92.4386C129.541 93.1371 129.945 93.9366 130.183 94.7907C130.29 95.1505 130.38 95.5375 130.475 95.9046C130.604 97.1506 131.169 98.3139 132.069 99.1868C132.994 99.5884 134.018 99.6932 134.999 99.4867C136.104 99.3077 137.231 99.3063 138.339 99.4828C141.125 100.085 142.783 102.436 144.236 104.517C144.465 104.914 144.722 105.272 145.006 105.591C146.13 107.103 148.441 108.907 149.88 107.84C150.565 107.196 151.048 106.366 151.273 105.45C151.478 104.879 151.714 104.321 151.978 103.777C152.37 103.032 152.936 102.395 153.629 101.922C154.322 101.448 155.121 101.152 155.956 101.058C156.481 101.011 157.011 101.103 157.492 101.326C157.973 101.549 158.388 101.895 158.695 102.329C159.043 102.863 159.281 103.461 159.392 104.087L164.675 127.417C165.291 129.39 165.347 131.491 164.836 133.484C164.053 135.314 162.801 136.899 161.206 138.078C155.797 142.889 150.477 147.884 145.498 153.122C143.844 154.618 142.586 156.503 141.835 158.612C141.626 159.342 141.62 160.117 141.816 160.854C142.012 161.591 142.403 162.263 142.948 162.797C143.665 162.423 144.478 162.271 145.285 162.359C146.272 162.506 147.22 162.853 148.073 163.379C148.925 163.906 149.664 164.6 150.243 165.42C150.557 165.964 150.93 166.408 151.231 166.842C152.614 168.861 153.303 169.881 155.87 170.594C158.446 171.149 161.081 171.364 163.707 171.233L164.897 171.238C169.02 171.03 173.149 171.68 177.026 173.147C180.887 174.8 184.909 178.351 185.156 182.512C185.17 182.719 185.139 182.926 185.066 183.12C184.993 183.313 184.88 183.488 184.734 183.634C184.639 183.732 184.531 183.817 184.413 183.887ZM172.618 175.034C174.961 175.657 177.195 176.645 179.238 177.963C178.213 177.115 177.077 176.413 175.862 175.878C173.787 175.035 171.594 174.53 169.367 174.379C170.464 174.54 171.552 174.763 172.626 175.046L172.618 175.034ZM149.543 175.58C150.785 174.958 152.148 174.615 153.539 174.572C155.27 174.417 157.052 174.232 158.897 174.129C157.586 174.039 156.287 173.823 155.016 173.484C153.683 173.156 152.433 172.547 151.349 171.697C150.265 170.848 149.371 169.777 148.729 168.556C148.473 168.113 148.127 167.688 147.785 167.211C147.103 166.245 146.078 165.579 144.924 165.352C144.751 165.319 144.572 165.327 144.404 165.378C144.235 165.428 144.081 165.518 143.955 165.641C143.758 165.826 143.513 165.952 143.248 166.004C142.982 166.056 142.707 166.032 142.454 165.934C139.283 164.727 138.169 160.915 138.896 157.862C139.75 155.27 141.26 152.95 143.279 151.129C148.326 145.835 153.669 140.708 159.175 135.892C160.378 135.045 161.346 133.905 161.991 132.578C162.306 131.094 162.216 129.549 161.73 128.104L156.447 104.775C156.408 104.537 156.337 104.306 156.234 104.087C156.234 104.087 156.191 104.011 156.049 104.026C155.71 104.092 155.391 104.232 155.113 104.436C154.836 104.64 154.606 104.903 154.442 105.207C154.219 105.664 154.021 106.133 153.849 106.612C153.437 108.085 152.579 109.389 151.392 110.343C148.479 112.329 144.713 110.351 142.514 107.351L141.67 106.15C140.418 104.358 139.232 102.68 137.552 102.317C136.755 102.209 135.949 102.215 135.156 102.333C133.556 102.66 131.888 102.434 130.423 101.69C128.529 100.522 127.981 98.357 127.5 96.6264C127.407 96.2919 127.32 95.9374 127.214 95.6101C126.973 94.6872 126.392 93.888 125.59 93.3751C125.502 93.3268 125.405 93.2982 125.306 93.2913C125.207 93.2845 125.108 93.2995 125.015 93.3353C124.558 93.6796 124.194 94.1332 123.956 94.6555C120.943 99.6524 116.672 102.76 112.208 103.245C109.541 103.41 106.861 103.1 104.294 102.328C102.77 101.922 101.22 101.627 99.6566 101.444C96.1126 101.094 88.371 102.154 87.0269 104.804C86.6008 105.657 87.0194 106.816 88.2807 108.249C88.6952 108.735 89.1525 109.18 89.6046 109.645C91.3622 111.072 92.6199 113.027 93.1909 115.22C93.3476 116.943 93.0791 118.675 92.4095 120.262C92.0857 121.097 91.8538 121.967 91.718 122.855C91.3669 125.893 93.3882 128.642 95.6685 131.578C98.097 134.801 100.624 138.135 100.196 142.315C100.049 143.452 99.7809 144.568 99.3961 145.646C99.1816 146.297 99.0071 146.961 98.8739 147.635C97.5964 153.757 102.23 156.718 108.913 160.219L109.182 160.367C113.755 162.79 117.278 166.461 120.73 170.038C122.728 172.204 124.849 174.254 127.081 176.177C132.924 180.972 141.773 183.104 146.46 178.372L147.171 177.607C147.862 176.781 148.69 176.081 149.618 175.536L149.543 175.58Z" fill="#032A47"/>
<path d="M154.457 68.8596L148.166 71.3612C147.46 71.5664 146.831 71.9765 146.357 72.5404C145.729 73.4772 146.056 74.7394 145.821 75.8372C145.354 77.1176 144.618 78.2796 143.662 79.2444C142.855 80.3349 142.285 81.8956 143.056 82.9698C144.2 84.6045 146.668 83.6693 148.535 82.9964C151.176 82.0347 154.064 81.9602 156.766 82.7842C159.252 83.5598 162.095 85.0407 164.209 83.5504C165.116 82.5954 165.969 81.5902 166.764 80.5391C168.553 78.9494 171.275 79.3525 173.655 79.0756C175.521 78.8291 177.29 78.1117 178.799 76.99C180.307 75.8684 181.505 74.379 182.281 72.6604C185.024 66.385 174.084 65.6969 170.153 66.7009C167.769 67.3178 165.692 69.2764 163.161 69.3201C159.637 69.38 158.213 67.3493 154.457 68.8596Z" fill="#1A340C"/>
<path d="M178.401 79.0194C176.99 79.8422 175.426 80.3717 173.803 80.5768C173.145 80.6528 172.478 80.6836 171.811 80.7144C170.366 80.5816 168.922 80.9238 167.696 81.6894C167.349 82.035 167.045 82.4205 166.788 82.8379C166.317 83.5874 165.723 84.2502 165.03 84.7983C162.662 86.4858 159.863 85.4859 157.596 84.685L156.328 84.2529C153.946 83.5232 151.401 83.5785 149.067 84.4108C146.985 85.1741 143.676 86.3589 141.898 83.858C141.427 82.9935 141.236 82.0051 141.35 81.0311C141.465 80.057 141.88 79.146 142.537 78.4255L143.192 77.5917C143.758 77.0311 144.185 76.3452 144.441 75.5879C144.497 75.2608 144.523 74.9292 144.521 74.5969C144.459 73.611 144.69 72.6314 145.185 71.783C145.818 70.9759 146.678 70.3794 147.655 70.0702L153.946 67.5687C155.934 66.7594 158.155 66.7212 160.183 67.4615C161.146 67.7821 162.149 67.9594 163.16 67.9875C164.407 67.8547 165.604 67.4298 166.654 66.7466C167.642 66.1762 168.695 65.7268 169.791 65.4081C172.981 64.5959 180.371 64.7508 183.079 67.9642C183.702 68.7109 184.086 69.6279 184.182 70.5942C184.277 71.5606 184.079 72.5308 183.614 73.3767C182.511 75.7645 180.688 77.738 178.401 79.0194ZM166.618 78.8684C168.168 78.1241 169.877 77.7685 171.6 77.8318C172.19 77.8118 172.793 77.7847 173.366 77.7069C174.988 77.4998 176.528 76.8806 177.84 75.9076C179.152 74.9347 180.193 73.64 180.865 72.1454C181.431 70.8397 181.118 70.2104 180.774 69.818C179.143 67.8903 173.346 67.4568 170.425 68.2147C169.554 68.4795 168.716 68.8442 167.929 69.3018C166.467 70.2212 164.798 70.7612 163.072 70.8737C161.809 70.8373 160.556 70.6169 159.353 70.2194C157.94 69.6483 156.366 69.6542 154.968 70.236L148.677 72.7375C148.452 72.7436 148.233 72.8021 148.035 72.9082C147.838 73.0144 147.668 73.1654 147.54 73.3494C147.411 73.5333 147.327 73.7451 147.294 73.9682C147.261 74.1912 147.28 74.4194 147.349 74.6347C147.363 75.1487 147.318 75.6621 147.213 76.1646C146.879 77.3856 146.25 78.5024 145.382 79.4163L144.798 80.1415C144.206 80.939 143.964 81.8216 144.276 82.1308C144.7 82.865 146.774 82.089 147.989 81.6748C150.938 80.5911 154.166 80.5045 157.186 81.4281L158.581 81.9054C160.781 82.6774 162.311 83.1276 163.368 82.3824C163.78 82.0146 164.135 81.5874 164.423 81.1146C164.813 80.5169 165.268 79.9655 165.78 79.4707C166.061 79.2314 166.362 79.0177 166.681 78.8322L166.618 78.8684Z" fill="#032A47"/>
<path d="M266.747 86.4775C261.958 81.7996 257.086 77.1524 252.017 72.771C239.027 62.607 224.089 55.2663 208.164 51.2201C207.209 51.9399 207.005 53.2058 208.136 55.2528C209.635 57.8478 213.665 58.8963 215.967 60.4532C220.096 63.2342 218.525 64.2759 219.287 68.6631C219.774 71.5891 223.045 73.059 225.9 73.8075C228.754 74.5559 232.039 75.3261 233.313 77.9662C235.385 82.0187 231.607 88.1496 235.185 90.9613C236.758 92.1801 239.102 91.9575 240.667 93.1636C242.815 94.7421 242.787 97.9647 244.15 100.267C245.699 102.95 248.97 104.015 251.695 105.463C254.419 106.912 257.176 109.691 256.4 112.688C256.146 113.695 255.503 114.606 255.478 115.634C255.415 117.695 257.636 118.995 259.545 119.784L266.032 122.57C266.787 122.956 267.614 123.175 268.458 123.212C270.397 123.155 271.753 121.309 272.581 119.531C275.15 114.338 276.497 108.613 276.518 102.794C276.566 101.265 276.417 99.7336 276.077 98.2387L266.747 86.4775Z" fill="#1A340C"/>
<path d="M270.756 124.095C270.097 124.48 269.351 124.69 268.586 124.707C267.534 124.682 266.498 124.428 265.55 123.962L259.055 121.163C255.689 119.731 254.044 117.896 254.148 115.557C254.203 114.752 254.413 113.966 254.766 113.243C254.899 112.937 255.014 112.623 255.109 112.302C255.662 110.194 253.507 107.995 251.147 106.742C250.608 106.445 250.031 106.17 249.475 105.901C247.147 104.764 244.506 103.487 243.026 100.983C242.464 99.9662 242.031 98.8842 241.735 97.7619C241.707 96.6805 241.282 95.6442 240.542 94.853C239.801 94.0619 238.797 93.5721 237.725 93.4781C236.54 93.2564 235.414 92.785 234.42 92.0949C231.786 90.0209 232.131 86.8001 232.443 83.9536C232.832 82.1816 232.729 80.3321 232.146 78.6062C231.135 76.6242 228.432 75.9065 225.822 75.2358L225.577 75.1581C219.835 73.663 218.251 70.9486 217.889 68.8455C217.711 67.781 217.62 66.7044 217.618 65.6266C217.562 63.735 217.548 63.2196 215.219 61.6446C214.433 61.1468 213.616 60.6993 212.774 60.3048C210.61 59.276 208.156 58.0935 206.914 55.9416C205.018 52.513 206.356 50.7786 207.322 50.0515C207.494 49.9202 207.693 49.8294 207.905 49.7859C208.117 49.7423 208.337 49.7472 208.547 49.8001C224.666 53.8812 239.778 61.3215 252.899 71.6367C258.333 76.3309 263.463 81.2512 267.76 85.4536C267.795 85.5005 267.825 85.5515 267.848 85.6055L277.223 97.3576C277.369 97.5112 277.477 97.698 277.537 97.9019C277.912 99.5173 278.071 101.174 278.008 102.828C277.991 108.863 276.595 114.802 273.93 120.187C273.281 121.779 272.177 123.139 270.756 124.095ZM208.847 52.9521C208.906 53.5417 209.107 54.1092 209.433 54.605C210.208 55.9467 212.08 56.8743 213.931 57.7639C214.922 58.201 215.878 58.7155 216.79 59.3026C220.206 61.6008 220.42 63.2157 220.445 65.6318C220.45 66.5656 220.525 67.4983 220.669 68.4221C221.035 70.5904 223.879 71.7837 226.281 72.355L226.519 72.42C229.446 73.1775 233.107 74.1357 234.7 77.3003C235.586 79.5285 235.801 81.9642 235.317 84.3024C235.02 87.0566 234.904 88.7945 236.177 89.8144C236.847 90.2383 237.586 90.5378 238.359 90.6985C239.498 90.9271 240.587 91.3694 241.567 92.0021C243.032 93.2962 244.037 95.0356 244.425 96.9515C244.657 97.8565 244.999 98.7305 245.443 99.5538C246.451 101.301 248.502 102.277 250.634 103.308C251.238 103.6 251.821 103.888 252.4 104.195C255.547 105.855 258.852 109.179 257.841 113.071C257.712 113.535 257.55 113.99 257.357 114.431C257.153 114.826 257.022 115.256 256.97 115.7C256.928 116.872 258.661 117.847 260.116 118.458L266.623 121.249C267.182 121.543 267.792 121.724 268.418 121.783C269.663 121.739 270.675 120.193 271.3 118.903C273.773 113.907 275.067 108.396 275.083 102.796C275.13 101.495 275.023 100.191 274.762 98.913L265.655 87.4791C261.399 83.3201 256.338 78.4614 251.079 73.9534C238.561 64.1237 224.185 56.9745 208.847 52.9521Z" fill="#032A47"/>
<path d="M178.071 284.055C160.539 283.556 143.304 279.147 127.611 271.145C127.765 270.557 127.949 269.978 128.163 269.409C129.299 266.24 131.238 263.43 133.791 261.255C136.343 259.08 139.421 257.615 142.721 257.004C149.826 255.94 156.769 259.459 163.134 262.873C165.752 264.281 168.615 265.97 169.448 268.831C170.125 271.191 169.215 273.809 169.989 276.164C170.809 278.021 172.164 279.591 173.877 280.67C175.305 281.753 176.777 282.827 178.071 284.055Z" fill="#1A340C"/>
<path d="M178.801 285.321C178.57 285.452 178.306 285.517 178.04 285.507C160.297 284.983 142.854 280.524 126.96 272.449C126.66 272.297 126.421 272.046 126.283 271.738C126.144 271.43 126.116 271.085 126.202 270.76C126.369 270.124 126.576 269.498 126.79 268.885C128.012 265.471 130.104 262.445 132.858 260.109C135.613 257.772 138.934 256.206 142.492 255.566C150.369 254.394 158.133 258.553 163.799 261.594C166.827 263.221 169.857 265.084 170.838 268.433C171.152 269.751 171.248 271.109 171.122 272.455C171.014 273.542 171.084 274.642 171.331 275.71C172.078 277.257 173.248 278.56 174.703 279.467L175.578 280.144C176.739 281.026 177.935 281.939 179.037 282.923C179.261 283.121 179.42 283.383 179.492 283.673C179.564 283.964 179.546 284.269 179.44 284.547C179.326 284.874 179.1 285.149 178.801 285.321ZM129.422 270.404C143.295 277.264 158.354 281.319 173.737 282.338L173.007 281.797C171.339 280.895 169.986 279.497 169.136 277.796C168.285 276.095 167.979 274.175 168.26 272.301C168.376 271.264 168.333 270.213 168.132 269.185C167.468 266.936 165.001 265.44 162.531 264.115C155.642 260.43 149.428 257.452 143.012 258.406C139.962 258.967 137.119 260.322 134.765 262.336C132.41 264.35 130.626 266.952 129.59 269.885L129.422 270.404Z" fill="#032A47"/>
<path d="M149.132 260.932C148.837 261.099 148.492 261.155 148.157 261.091C147.823 261.028 147.52 260.848 147.302 260.584C147.084 260.32 146.965 259.989 146.964 259.647C146.964 259.306 147.083 258.976 147.301 258.716L233.216 158.479C233.471 158.205 233.824 158.042 234.199 158.024C234.573 158.006 234.942 158.136 235.226 158.385C235.511 158.634 235.689 158.983 235.723 159.359C235.758 159.735 235.646 160.109 235.412 160.401L149.496 260.638C149.394 260.758 149.271 260.858 149.132 260.932Z" fill="#A6A6A6"/>
<path d="M149.131 260.932C149.026 261.009 148.913 261.075 148.793 261.127C148.608 261.176 148.414 261.187 148.223 261.16C148.033 261.133 147.849 261.068 147.683 260.969C147.518 260.87 147.373 260.739 147.257 260.584C147.141 260.428 147.057 260.252 147.01 260.064L114.949 136.295C114.88 136.104 114.851 135.901 114.864 135.699C114.878 135.497 114.933 135.301 115.026 135.122C115.119 134.943 115.249 134.786 115.406 134.661C115.564 134.536 115.746 134.446 115.941 134.396C116.136 134.346 116.339 134.337 116.538 134.371C116.737 134.404 116.928 134.478 117.097 134.59C117.266 134.701 117.411 134.846 117.522 135.016C117.633 135.186 117.708 135.377 117.742 135.577L149.801 259.313C149.88 259.621 149.858 259.946 149.737 260.238C149.616 260.53 149.404 260.774 149.131 260.932Z" fill="#A6A6A6"/>
<path d="M235.056 160.741C234.733 160.926 234.35 160.978 233.987 160.886C233.802 160.836 233.628 160.75 233.475 160.632C233.322 160.515 233.194 160.368 233.098 160.201C233.001 160.034 232.938 159.85 232.913 159.659C232.887 159.468 232.9 159.274 232.949 159.089L251.174 83.3508C251.273 82.9795 251.514 82.6638 251.845 82.4726C252.176 82.2815 252.57 82.2305 252.941 82.3307C253.127 82.3806 253.301 82.4667 253.453 82.5843C253.606 82.7018 253.734 82.8483 253.831 83.0154C253.927 83.1825 253.99 83.3669 254.015 83.5579C254.041 83.7489 254.028 83.9427 253.979 84.1282L235.766 159.859C235.714 160.047 235.623 160.222 235.501 160.373C235.379 160.525 235.228 160.65 235.056 160.741Z" fill="#A6A6A6"/>
<path d="M227.236 215.838C226.954 215.998 226.628 216.062 226.306 216.021C226.116 215.992 225.934 215.926 225.77 215.827C225.605 215.727 225.461 215.596 225.347 215.441C225.233 215.286 225.15 215.11 225.103 214.923C225.056 214.736 225.047 214.542 225.075 214.352L232.898 159.202C232.925 159.013 232.988 158.831 233.085 158.667C233.182 158.503 233.31 158.36 233.463 158.246C233.615 158.132 233.788 158.05 233.973 158.004C234.157 157.957 234.35 157.948 234.538 157.977C234.727 158.005 234.908 158.071 235.073 158.17C235.237 158.268 235.38 158.399 235.495 158.553C235.609 158.707 235.693 158.882 235.74 159.068C235.788 159.253 235.798 159.447 235.772 159.636L227.948 214.786C227.918 215.005 227.837 215.213 227.714 215.396C227.591 215.578 227.427 215.73 227.236 215.838Z" fill="#A6A6A6"/>
<path d="M234.063 159.019C233.773 159.184 233.435 159.242 233.105 159.184L122.346 139.789C121.986 139.703 121.671 139.483 121.465 139.174C121.258 138.864 121.177 138.488 121.236 138.123C121.296 137.757 121.492 137.429 121.784 137.206C122.077 136.983 122.444 136.881 122.812 136.921L229.576 155.618L189.185 108.811L115.628 137.963C115.322 138.087 114.983 138.101 114.666 138.005C114.349 137.909 114.074 137.707 113.885 137.433C113.711 137.159 113.632 136.835 113.661 136.513C113.69 136.191 113.824 135.889 114.044 135.654L165.694 79.6393C165.83 79.4884 165.997 79.3684 166.183 79.2871C166.369 79.2058 166.571 79.1649 166.774 79.1672C166.979 79.1709 167.181 79.2181 167.367 79.3057C167.553 79.3933 167.718 79.5192 167.853 79.6753L190.037 105.366L248.989 81.9961C249.345 81.8576 249.742 81.8663 250.093 82.0203C250.445 82.1744 250.723 82.4614 250.868 82.8188C251.013 83.178 251.011 83.5793 250.862 83.9344C250.713 84.2895 250.429 84.5693 250.073 84.7123L192.024 107.678L234.433 156.797C234.611 157.024 234.718 157.299 234.741 157.586C234.764 157.873 234.702 158.16 234.563 158.41C234.456 158.656 234.283 158.867 234.063 159.019ZM120.488 132.895L187.114 106.496L166.692 82.8437L120.488 132.895Z" fill="#A6A6A6"/>
<path d="M238.206 166.196C241.881 164.074 243.122 159.345 240.979 155.633C238.836 151.921 234.119 150.631 230.444 152.753C226.77 154.875 225.528 159.604 227.671 163.316C229.814 167.028 234.531 168.318 238.206 166.196Z" fill="white"/>
<path d="M238.93 167.45C237.365 168.353 235.566 168.767 233.758 168.64C231.95 168.512 230.216 167.849 228.775 166.734C227.334 165.619 226.25 164.103 225.662 162.376C225.073 160.65 225.006 158.791 225.468 157.035C225.931 155.279 226.902 153.706 228.26 152.513C229.617 151.32 231.3 150.562 233.094 150.334C234.889 150.107 236.715 150.42 238.342 151.235C239.969 152.049 241.323 153.328 242.233 154.91C243.451 157.028 243.788 159.538 243.168 161.889C242.549 164.24 241.025 166.24 238.93 167.45ZM231.176 154.019C230.108 154.636 229.248 155.559 228.706 156.671C228.164 157.783 227.964 159.035 228.131 160.268C228.297 161.501 228.824 162.659 229.643 163.597C230.462 164.535 231.538 165.211 232.734 165.537C233.93 165.864 235.192 165.828 236.361 165.434C237.53 165.04 238.554 164.305 239.302 163.322C240.051 162.339 240.491 161.153 240.566 159.913C240.642 158.673 240.349 157.436 239.726 156.357C238.891 154.91 237.521 153.851 235.917 153.412C234.314 152.974 232.608 153.192 231.176 154.019Z" fill="#032A47"/>
<path d="M152.281 266.388C155.956 264.266 157.198 259.537 155.055 255.824C152.911 252.112 148.195 250.823 144.52 252.945C140.845 255.066 139.604 259.795 141.747 263.508C143.89 267.22 148.607 268.509 152.281 266.388Z" fill="white"/>
<path d="M153.013 267.653C151.45 268.559 149.651 268.976 147.843 268.851C146.035 268.727 144.3 268.067 142.857 266.954C141.414 265.841 140.328 264.326 139.737 262.601C139.146 260.875 139.075 259.017 139.535 257.26C139.994 255.504 140.963 253.928 142.319 252.733C143.675 251.538 145.356 250.778 147.15 250.547C148.945 250.317 150.771 250.627 152.399 251.439C154.027 252.251 155.383 253.528 156.296 255.108C157.513 257.225 157.852 259.733 157.237 262.084C156.621 264.435 155.103 266.438 153.013 267.653ZM145.259 254.223C144.188 254.838 143.326 255.76 142.781 256.872C142.237 257.984 142.034 259.237 142.2 260.471C142.365 261.706 142.891 262.866 143.711 263.806C144.531 264.745 145.607 265.421 146.804 265.748C148.001 266.076 149.265 266.039 150.435 265.644C151.605 265.248 152.629 264.512 153.377 263.527C154.125 262.543 154.564 261.354 154.637 260.113C154.71 258.872 154.415 257.634 153.789 256.555C152.953 255.114 151.586 254.06 149.988 253.623C148.389 253.186 146.689 253.402 145.259 254.223Z" fill="#032A47"/>
<path d="M232.04 220.339C235.715 218.217 236.957 213.488 234.813 209.776C232.67 206.064 227.954 204.774 224.279 206.896C220.604 209.017 219.362 213.747 221.506 217.459C223.649 221.171 228.365 222.461 232.04 220.339Z" fill="#DFDFDF"/>
<path d="M232.771 221.605C231.208 222.51 229.409 222.927 227.601 222.803C225.793 222.678 224.058 222.018 222.615 220.905C221.172 219.793 220.087 218.278 219.495 216.552C218.904 214.827 218.834 212.968 219.293 211.211C219.753 209.455 220.722 207.88 222.077 206.685C223.433 205.49 225.114 204.729 226.909 204.498C228.703 204.268 230.53 204.578 232.158 205.39C233.786 206.202 235.141 207.479 236.054 209.059C237.272 211.176 237.61 213.685 236.995 216.036C236.38 218.387 234.861 220.389 232.771 221.605ZM225.017 208.174C223.946 208.789 223.084 209.711 222.539 210.823C221.995 211.936 221.793 213.188 221.958 214.423C222.124 215.657 222.65 216.817 223.469 217.757C224.289 218.696 225.366 219.372 226.563 219.7C227.76 220.027 229.023 219.99 230.193 219.595C231.363 219.2 232.387 218.463 233.135 217.478C233.884 216.494 234.322 215.306 234.395 214.065C234.469 212.823 234.174 211.585 233.548 210.506C232.711 209.066 231.345 208.011 229.746 207.574C228.147 207.137 226.447 207.353 225.017 208.174Z" fill="#032A47"/>
<path d="M120.201 142.614C123.876 140.492 125.117 135.763 122.974 132.05C120.831 128.338 116.114 127.049 112.44 129.17C108.765 131.292 107.523 136.021 109.666 139.734C111.81 143.446 116.526 144.735 120.201 142.614Z" fill="#DFDFDF"/>
<path d="M120.931 143.879C119.367 144.782 117.568 145.196 115.761 145.069C113.954 144.942 112.221 144.28 110.779 143.166C109.338 142.052 108.255 140.536 107.665 138.811C107.076 137.085 107.007 135.227 107.468 133.472C107.929 131.716 108.898 130.142 110.254 128.949C111.61 127.755 113.291 126.995 115.085 126.765C116.879 126.536 118.705 126.847 120.332 127.659C121.959 128.47 123.315 129.747 124.227 131.327C125.446 133.446 125.784 135.957 125.166 138.31C124.548 140.663 123.025 142.666 120.931 143.879ZM113.177 130.449C112.108 131.066 111.249 131.989 110.707 133.102C110.165 134.215 109.965 135.468 110.132 136.701C110.3 137.935 110.828 139.093 111.648 140.031C112.469 140.969 113.546 141.643 114.742 141.969C115.939 142.295 117.202 142.257 118.371 141.861C119.541 141.465 120.563 140.728 121.311 139.743C122.058 138.758 122.495 137.571 122.568 136.33C122.641 135.09 122.346 133.852 121.721 132.774C120.883 131.331 119.513 130.276 117.912 129.84C116.31 129.404 114.607 129.623 113.177 130.449Z" fill="#032A47"/>
<path d="M171.573 84.9027C175.248 82.7811 176.489 78.0518 174.346 74.3395C172.203 70.6273 167.486 69.3379 163.812 71.4596C160.137 73.5813 158.895 78.3105 161.038 82.0228C163.182 85.735 167.898 87.0244 171.573 84.9027Z" fill="white"/>
<path d="M172.304 86.1684C170.74 87.0713 168.941 87.4854 167.134 87.3585C165.327 87.2315 163.593 86.5692 162.152 85.4552C160.711 84.3412 159.627 82.8256 159.038 81.1001C158.448 79.3745 158.38 77.5165 158.84 75.761C159.301 74.0056 160.271 72.4314 161.627 71.2377C162.983 70.0439 164.664 69.2842 166.458 69.0546C168.251 68.825 170.077 69.1358 171.705 69.9477C173.332 70.7596 174.687 72.0361 175.599 73.6159C176.818 75.7352 177.156 78.2464 176.538 80.5993C175.921 82.9522 174.398 84.9549 172.304 86.1684ZM164.55 72.7379C163.481 73.3549 162.621 74.2784 162.079 75.3914C161.537 76.5043 161.337 77.7568 161.505 78.9902C161.673 80.2237 162.2 81.3826 163.021 82.3203C163.841 83.2581 164.918 83.9325 166.115 84.2582C167.312 84.5839 168.575 84.5462 169.744 84.1499C170.913 83.7537 171.936 83.0167 172.683 82.0321C173.43 81.0476 173.868 79.8599 173.941 78.6193C174.014 77.3787 173.719 76.141 173.093 75.0628C172.256 73.62 170.886 72.5649 169.284 72.1291C167.683 71.6932 165.98 71.9122 164.55 72.7379Z" fill="#032A47"/>
<path d="M256.424 90.4457C260.099 88.3241 261.34 83.5948 259.197 79.8826C257.054 76.1704 252.337 74.8809 248.663 77.0026C244.988 79.1243 243.746 83.8536 245.889 87.5658C248.033 91.278 252.749 92.5674 256.424 90.4457Z" fill="#DFDFDF"/>
<path d="M257.155 91.7114C255.591 92.6143 253.792 93.0284 251.985 92.9015C250.178 92.7745 248.444 92.1122 247.003 90.9982C245.562 89.8842 244.478 88.3686 243.889 86.6431C243.299 84.9175 243.231 83.0595 243.692 81.304C244.152 79.5485 245.122 77.9744 246.478 76.7807C247.834 75.5869 249.515 74.8272 251.309 74.5976C253.103 74.368 254.929 74.6788 256.556 75.4907C258.183 76.3026 259.538 77.5792 260.45 79.1589C261.669 81.2782 262.007 83.7894 261.389 86.1423C260.772 88.4952 259.249 90.4979 257.155 91.7114ZM249.401 78.2809C248.332 78.8979 247.472 79.8214 246.93 80.9343C246.388 82.0473 246.189 83.2998 246.356 84.5332C246.524 85.7667 247.051 86.9256 247.872 87.8634C248.692 88.8011 249.769 89.4755 250.966 89.8012C252.163 90.1269 253.426 90.0892 254.595 89.6929C255.764 89.2967 256.787 88.5597 257.534 87.5752C258.281 86.5906 258.719 85.4029 258.792 84.1623C258.865 82.9217 258.57 81.684 257.944 80.6058C257.107 79.163 255.737 78.1079 254.135 77.6721C252.534 77.2362 250.831 77.4552 249.401 78.2809Z" fill="#032A47"/>
<path d="M320.493 187.38C316.618 189.412 312.509 190.962 308.255 191.998C287.979 197.595 222.9 199.675 160.112 196.752C124.394 195.078 40.178 189.304 29.7512 171.678C28.9166 170.474 28.4168 169.07 28.304 167.612C28.1911 166.154 28.4694 164.696 29.1097 163.39C34.157 153.438 62.0119 150.926 63.15 150.842C63.3401 150.826 63.5319 150.847 63.7144 150.905C63.897 150.962 64.0668 151.056 64.214 151.179C64.3613 151.303 64.4832 151.454 64.5728 151.624C64.6623 151.794 64.7178 151.98 64.7361 152.171C64.7543 152.363 64.7349 152.555 64.679 152.738C64.6231 152.921 64.5318 153.091 64.4103 153.238C64.2888 153.385 64.1395 153.506 63.9708 153.595C63.8022 153.683 63.6176 153.737 63.4276 153.754C55.8154 154.402 35.2917 157.661 31.72 164.786C31.3164 165.66 31.1548 166.628 31.2519 167.591C31.3489 168.553 31.7012 169.474 32.2719 170.256C38.9747 181.576 86.8436 190.463 160.247 193.889C222.794 196.799 287.437 194.718 307.501 189.244C321.425 185.407 322.416 182.32 322.351 181.396C322.176 177.447 307.476 172.735 297.599 170.792C297.412 170.754 297.233 170.679 297.074 170.572C296.914 170.465 296.777 170.328 296.67 170.168C296.563 170.008 296.488 169.828 296.449 169.64C296.411 169.452 296.41 169.258 296.446 169.07C296.482 168.881 296.555 168.702 296.66 168.543C296.765 168.384 296.901 168.247 297.059 168.141C297.217 168.035 297.395 167.961 297.582 167.924C297.769 167.887 297.962 167.888 298.15 167.926C302.581 168.743 324.916 173.569 325.261 181.286C325.316 183.465 323.788 185.478 320.493 187.38Z" fill="#032A47"/>
<path d="M93.5806 275.637C92.8392 276.135 91.9814 276.433 91.0892 276.501C86.0071 276.381 82.5019 274.708 80.8179 271.444C75.8901 261.867 89.3116 242.169 89.8818 241.333C89.9894 241.174 90.1276 241.039 90.2883 240.934C90.449 240.83 90.6289 240.759 90.8178 240.725C91.0066 240.692 91.2006 240.696 91.3884 240.738C91.5761 240.781 91.754 240.86 91.9117 240.971C92.2283 241.194 92.4452 241.533 92.5147 241.913C92.5842 242.294 92.5005 242.686 92.2822 243.002C88.6512 248.289 79.9686 263.462 83.3752 270.086C84.5393 272.333 87.0181 273.502 91.0884 273.548C92.2328 273.563 100.061 270.714 141.681 212.49C193.808 139.593 250.262 48.0282 247.649 40.6085C247.513 39.9405 247.187 39.3247 246.712 38.8354C246.237 38.3461 245.632 38.0042 244.971 37.8509C238.462 36.4445 224.241 49.9545 219.313 55.2806C219.05 55.5492 218.691 55.7033 218.315 55.7101C217.938 55.7169 217.572 55.576 217.294 55.3172C217.017 55.0584 216.849 54.702 216.828 54.3235C216.806 53.9451 216.931 53.5743 217.178 53.2897C219.097 51.2027 236.285 32.9924 245.549 35.0026C246.698 35.2664 247.756 35.8411 248.609 36.6642C249.461 37.4873 250.075 38.5274 250.383 39.6715C254.044 50.0641 188.803 151.614 143.966 214.192C117.987 250.744 101.036 271.332 93.5806 275.637Z" fill="#032A47"/>
</g>
</svg>
