<svg width="415" height="371" viewBox="0 0 415 371" fill="none" xmlns="http://www.w3.org/2000/svg">
<g opacity="0.5">
<path d="M47.8924 147.577L56.3631 142.686C77.9028 130.25 105.58 137.666 118.015 159.206L134.853 188.369L48.2101 238.392L31.3727 209.229C18.9368 187.69 26.3528 160.013 47.8924 147.577Z" fill="#7E7A7A"/>
<path d="M135.672 189.51L48.9086 239.603C48.1825 240.022 47.419 239.817 46.9999 239.091L30.1624 209.928C17.3073 187.662 24.9279 159.222 47.1936 146.367L55.6642 141.476C77.93 128.621 106.37 136.242 119.225 158.507L136.063 187.671C136.533 188.206 136.277 189.16 135.672 189.51ZM48.7214 236.484L133.065 187.788L116.926 159.835C104.84 138.9 78.1172 131.74 57.1826 143.827L48.7119 148.717C27.7773 160.804 20.617 187.526 32.7036 208.461L48.7214 236.484Z" fill="#474849"/>
<path d="M192.242 208.964C192.536 208.633 192.094 195.012 192.094 195.012C192.094 195.012 188.079 188.618 186.193 185.35C184.306 182.083 186.447 180.202 188.081 181.356C189.716 182.51 192.734 186.898 192.855 186.829C192.976 186.759 190.597 174.256 191.286 173.213C191.975 172.17 204.399 171.612 206.769 174.6C207.92 176.033 209.351 182.145 210.279 188.224C210.563 189.835 207.47 195.655 207.47 195.655C207.47 195.655 206.165 206.25 205.57 208.852L192.242 208.964Z" fill="#C9C5C3"/>
<path d="M206.46 210.114C206.218 210.253 206.097 210.323 205.785 210.342L192.197 210.281C191.382 210.267 190.842 209.611 190.734 208.866C190.786 208.676 190.716 208.555 190.837 208.485C190.902 207.479 190.839 201.223 190.674 195.348C189.906 194.017 186.59 188.832 184.983 186.049C183.376 183.266 184.199 181.339 185.27 180.398C186.34 179.457 187.899 179.364 189.082 180.294C189.743 180.881 190.404 181.467 190.945 182.123C189.732 174.433 189.848 173.237 190.364 172.455C190.588 172.003 191.174 171.342 195.54 171.08C197.291 171.037 205.66 170.723 208.101 173.832C209.721 175.8 211.195 183.662 211.96 188.061C212.263 189.983 210.202 194.239 209.067 196.185C208.918 197.884 207.762 206.78 207.288 209.313C206.995 209.643 206.823 209.904 206.46 210.114ZM193.657 207.502L204.611 207.47C205.271 203.862 206.273 195.539 206.204 195.418C206.255 195.227 206.306 195.036 206.427 194.966C207.683 192.95 208.488 190.711 209.101 188.42C207.889 180.73 206.43 176.248 205.82 175.471C205.28 174.815 203.231 174.061 199.088 173.872C196.956 173.812 194.894 173.873 192.66 174.195C192.651 176.136 193.612 181.713 193.934 183.947C194.521 187.48 194.591 187.601 193.623 188.16C192.655 188.719 192.115 188.063 190.965 186.629C189.935 185.126 188.734 183.883 187.342 182.59C187.272 182.469 187.151 182.539 187.151 182.539C186.909 182.678 186.774 183.563 187.473 184.773C189.289 187.919 193.304 194.314 193.304 194.314C193.444 194.556 193.514 194.677 193.532 194.989C193.702 201.99 193.736 205.681 193.657 207.502Z" fill="#474849"/>
<path d="M200.91 193.794C200.305 194.144 199.42 194.009 199.071 193.404C197.674 190.984 195.429 189.052 192.687 188.215C191.924 188.011 191.625 187.215 191.83 186.451C192.104 185.809 192.64 185.339 193.403 185.543C196.788 186.655 199.554 188.93 201.421 191.885C201.771 192.491 201.636 193.375 200.91 193.794C201.031 193.724 201.031 193.724 200.91 193.794Z" fill="#474849"/>
<path d="M189.35 205.631C189.35 205.631 192.926 222.444 182.233 234.104C177.128 239.794 161.156 237.56 152.464 235.64C142.506 233.484 132.149 235.107 123.506 240.258C118.857 243.104 112.648 246.043 105.922 249.765C94.0448 256.3 89.9345 271.258 96.3995 283.014L96.6091 283.377L124.695 332.023L179.391 300.444L161.068 268.428L156.247 260.078C156.247 260.078 183.949 273.127 199.624 247.458C212.167 226.986 207.836 208.027 208.203 204.75L189.35 205.631Z" fill="#AEB1B1"/>
<path d="M180.09 301.655L125.394 333.233C124.667 333.653 123.904 333.448 123.485 332.722L95.3991 284.076C88.2729 271.733 92.5179 255.891 104.861 248.764L105.224 248.555C108.128 246.878 110.981 245.392 113.592 244.046C116.929 242.281 120.145 240.585 122.808 239.048C131.814 233.687 142.603 231.976 152.822 234.304C167.221 237.447 177.895 236.931 181.362 233.155C191.469 222.156 188.122 206.018 188.052 205.897C187.963 205.464 188.066 205.083 188.359 204.752C188.652 204.421 189.015 204.212 189.327 204.193L208.128 203.503C208.943 203.516 209.604 204.103 209.521 204.796C209.521 204.796 209.591 204.917 209.47 204.987C209.456 205.802 209.512 206.738 209.619 207.482C211.225 221.722 208.204 236.051 200.736 248.268C188.142 268.931 167.71 265.4 159.413 262.768L180.601 299.746C181.02 300.472 180.816 301.235 180.09 301.655ZM125.206 330.115L177.482 299.933L155.037 260.777C154.618 260.051 154.943 259.218 155.548 258.868C155.912 258.659 156.414 258.691 156.796 258.793C157.89 259.291 183.506 270.963 198.39 246.719C208.593 230.018 207.396 214.252 206.812 207.651C206.845 207.148 206.756 206.715 206.668 206.282L191.055 206.906C191.647 211.566 192.452 224.977 183.415 235.035C177.724 241.386 161.491 238.98 152.297 237.028C142.721 234.973 132.676 236.578 124.205 241.468C121.543 243.005 118.327 244.701 114.869 246.536C112.136 247.952 109.404 249.368 106.5 251.045C101.106 253.998 97.0902 259.059 95.5047 264.976C93.7982 270.963 94.6242 277.424 97.6983 282.749L125.206 330.115Z" fill="#474849"/>
<path d="M101.313 245.973L113.656 238.846L117.778 245.986C119.454 248.89 118.483 252.517 115.579 254.194L113.763 255.242C110.859 256.918 107.233 255.947 105.556 253.042L101.313 245.973Z" fill="#C9C5C3"/>
<path d="M116.277 255.403L114.462 256.451C110.832 258.547 106.372 257.25 104.276 253.62L100.154 246.48C99.7348 245.754 99.9394 244.991 100.665 244.571L113.008 237.445C113.734 237.026 114.498 237.231 114.917 237.957L119.039 245.096C121.135 248.727 119.908 253.308 116.277 255.403ZM103.222 246.484L106.645 252.413C107.903 254.592 110.766 255.359 113.014 254.222L114.829 253.174C117.128 251.847 117.774 249.053 116.447 246.754L113.023 240.825L103.222 246.484Z" fill="#474849"/>
<path d="M59.5738 241.028C66.1902 237.208 68.8637 229.452 65.5454 223.705C62.2271 217.957 54.1734 216.395 47.5571 220.215C40.9407 224.035 38.2672 231.791 41.5855 237.538C44.9039 243.286 52.9575 244.848 59.5738 241.028Z" fill="#C9C5C3"/>
<path d="M60.2723 242.238C53.0117 246.43 44.0781 244.65 40.3752 238.237C36.6724 231.823 39.5977 223.196 46.8582 219.004C54.1188 214.813 63.0525 216.593 66.7553 223.006C70.4581 229.42 67.5328 238.046 60.2723 242.238ZM48.2555 221.425C42.3261 224.848 39.8611 231.757 42.7954 236.839C45.7297 241.922 52.9455 243.241 58.875 239.818C64.8044 236.395 67.2694 229.486 64.3351 224.403C61.4008 219.321 54.185 218.001 48.2555 221.425Z" fill="#474849"/>
<path d="M129.639 200.576C136.255 196.757 138.928 189.001 135.61 183.253C132.292 177.506 124.238 175.943 117.622 179.763C111.005 183.583 108.332 191.339 111.65 197.086C114.969 202.834 123.022 204.396 129.639 200.576Z" fill="#C9C5C3"/>
<path d="M130.337 201.787C123.076 205.978 114.143 204.198 110.44 197.785C106.737 191.371 109.662 182.745 116.923 178.553C124.183 174.361 133.117 176.141 136.82 182.554C140.523 188.968 137.719 197.525 130.337 201.787ZM118.32 180.973C112.391 184.396 109.926 191.305 112.86 196.388C115.794 201.47 123.01 202.79 128.94 199.366C134.869 195.943 137.334 189.034 134.4 183.952C131.465 178.869 124.371 177.48 118.32 180.973Z" fill="#474849"/>
<path d="M108.392 243.982C88.3049 255.58 62.7277 248.726 51.1302 228.639L31.7776 195.119C31.7776 195.119 46.16 175.037 65.8845 163.649C77.5526 156.751 90.865 153.261 104.262 153.27L123.685 186.911C135.212 206.877 128.48 232.385 108.392 243.982Z" fill="#C9C5C3"/>
<path d="M108.393 243.983C87.7001 255.93 61.8672 250.031 49.9204 229.338L30.5678 195.819C30.2884 195.334 30.3208 194.832 30.6651 194.31C31.3026 193.458 45.4616 173.828 65.1862 162.44L65.3072 162.37C77.0962 155.402 90.6506 151.772 104.43 151.884C104.932 151.916 105.263 152.209 105.473 152.572L124.895 186.213C136.893 206.715 129.085 232.036 108.393 243.983ZM33.4072 195.147L52.3406 227.941C64.366 246.813 89.4865 252.317 108.359 240.291C126.021 228.965 132.159 206.06 122.526 187.419L103.523 154.505C90.5072 154.597 77.8885 158.172 66.6346 164.669C49.5211 174.711 36.2502 191.408 33.4072 195.147Z" fill="#474849"/>
<path d="M69.5653 215.576C71.4366 214.496 72.0778 212.103 70.9974 210.232C69.917 208.36 67.5242 207.719 65.6529 208.8C63.7816 209.88 63.1405 212.273 64.2209 214.144C65.3013 216.015 67.6941 216.657 69.5653 215.576Z" fill="#474849"/>
<path d="M104.295 195.525C106.166 194.445 106.807 192.052 105.727 190.18C104.647 188.309 102.254 187.668 100.382 188.748C98.5111 189.829 97.87 192.222 98.9504 194.093C100.031 195.964 102.424 196.605 104.295 195.525Z" fill="#474849"/>
<path d="M91.5043 215.011C90.4152 215.639 89.2563 216.147 88.0973 216.655C87.3014 216.953 86.5891 216.558 86.2909 215.762C85.9927 214.966 86.3882 214.254 87.1841 213.955C88.8969 213.289 90.5911 212.311 92.0943 211.282C91.5865 210.123 88.2992 207.503 84.8397 205.144C84.1274 204.749 83.9502 203.883 84.3457 203.17C84.7411 202.458 85.6069 202.281 86.3193 202.676C88.8568 204.277 94.6629 208.185 94.9013 211.113C95.0086 211.858 94.7341 212.501 94.1989 212.971C93.2496 213.842 92.4724 214.452 91.5043 215.011Z" fill="#474849"/>
<path d="M69.2666 199.13L53.2934 208.352C51.9623 209.12 50.2444 208.66 49.4759 207.329C48.7074 205.998 49.1677 204.28 50.4988 203.511L66.472 194.289C67.8031 193.521 69.521 193.981 70.2895 195.312C71.058 196.643 70.5977 198.361 69.2666 199.13Z" fill="#474849"/>
<path d="M92.3469 186.289C91.0158 187.057 89.3678 186.718 88.4783 185.457C87.5888 184.196 88.0491 182.478 89.3103 181.588L104.794 171.519C106.056 170.63 107.774 171.09 108.663 172.351C109.553 173.612 109.092 175.33 107.831 176.22L92.3469 186.289Z" fill="#474849"/>
<path d="M100.8 216.58L87.1301 221.407C87.1301 221.407 93.0512 235.576 99.6757 236.43C106.3 237.284 106.964 230.609 100.8 216.58Z" fill="white"/>
<path d="M103.786 237.122C102.455 237.891 100.966 238.105 99.5086 237.817C92.2604 237 86.4465 223.577 85.8502 221.985C85.6406 221.622 85.7429 221.24 85.8452 220.859C85.9475 220.477 86.3105 220.267 86.6735 220.058L100.344 215.231C101.019 215.002 101.852 215.328 102.081 216.003C106.511 226.191 107.458 232.582 105.271 235.781C104.806 236.372 104.391 236.773 103.786 237.122ZM89.0576 222.231C91.07 226.555 95.6112 234.42 99.8429 235.043C102.115 235.345 102.752 234.492 103.045 234.162C103.734 233.119 104.966 229.664 100.098 218.438L89.0576 222.231Z" fill="#474849"/>
<path d="M193.431 156.808C196.016 161.285 201.688 166.078 209.386 162.924C212.57 161.731 215.195 159.571 217.088 156.702L229.422 178.624L206.291 191.656C206.276 188.277 205.013 184.972 202.852 182.347C197.883 175.697 190.626 176.821 186.079 179.285C180.997 182.219 179.103 185.087 178.504 190.757C177.79 197.624 184.732 203.78 184.732 203.78L162.397 216.514L124.627 149.419L191.723 111.65L205.034 135.265C205.034 135.265 195.995 136.935 192.99 143.187C190.412 148.225 190.548 151.535 193.431 156.808Z" fill="#92908D"/>
<path d="M230.121 179.834L206.989 192.866C206.263 193.286 205.43 192.96 205.08 192.355C204.941 192.113 204.922 191.801 204.973 191.61C204.856 188.612 203.733 185.55 201.903 183.218C196.324 175.79 188.421 179.708 186.968 180.546C182.179 183.15 180.579 185.687 180.203 190.906C179.693 197.009 185.854 202.649 185.924 202.77C186.254 203.063 186.343 203.496 186.431 203.929C186.399 204.432 186.106 204.762 185.743 204.972L163.407 217.706C163.044 217.915 162.732 217.934 162.35 217.832C161.969 217.73 161.708 217.557 161.498 217.194L123.729 150.099C123.519 149.736 123.501 149.424 123.603 149.042C123.705 148.661 123.877 148.4 124.24 148.19L191.336 110.421C192.062 110.002 192.825 110.206 193.244 110.932L206.556 134.548C206.766 134.911 206.733 135.414 206.631 135.795C206.408 136.247 206.045 136.457 205.612 136.545C205.491 136.615 197.266 138.298 194.586 143.718C192.302 148.425 192.42 151.422 195.144 156.142C195.983 157.594 200.817 165.129 209.311 161.677C212.253 160.624 214.706 158.724 216.306 156.186C216.702 155.474 217.498 155.176 218.21 155.571C218.471 155.743 218.731 155.915 218.801 156.036L231.135 177.958C231.345 178.321 231.363 178.633 231.261 179.014C230.777 179.294 230.484 179.625 230.121 179.834ZM207.528 189.328L227.513 178.113L216.805 159.286C214.874 161.531 212.403 163.119 209.773 164.153C201.4 167.535 195.035 162.659 192.151 157.386C189.008 151.94 188.955 147.937 191.565 142.396C194.021 137.429 199.765 135.081 202.776 134.149L191.071 113.316L126.466 149.81L162.959 214.415L182.581 203.409C180.439 201.096 176.76 196.121 177.308 190.642C177.939 184.469 179.935 181.219 185.571 178.126C190.775 175.122 198.865 174.323 204.183 181.579C205.823 183.859 207.048 186.54 207.528 189.328Z" fill="#474849"/>
<path d="M154.489 234.955C156.439 233.023 153.755 225.86 154.038 223.276C154.726 218.039 158.29 212.754 162.017 209.15C162.655 208.298 163.693 207.86 164.628 207.804C164.964 209.223 164.485 210.629 163.675 211.742C162.489 213.879 161.182 216.086 159.735 218.051L169.107 209.413C170.229 208.281 171.611 207.322 173.133 206.605C173.566 206.516 173.999 206.428 174.571 206.581C174.832 206.753 175.093 206.925 175.233 207.167C176.504 208.531 177.119 210.435 176.728 212.273C176.37 213.61 175.701 214.964 174.961 216.198C173.36 218.736 170.722 221.711 170.094 224.816C169.569 227.54 170.431 230.43 169.785 233.223L154.489 234.955Z" fill="#C9C5C3"/>
<path d="M170.344 234.192C170.223 234.262 169.981 234.401 169.79 234.35L154.634 236.324C154.01 236.362 153.488 236.017 153.209 235.533C152.93 235.049 153.013 234.356 153.427 233.955C154.135 233.224 153.426 229.761 153.123 227.839C152.717 226.298 152.554 224.617 152.581 222.988C153.301 217.248 157.4 211.493 160.886 208.029C161.816 206.846 163.217 206.199 164.535 206.245C165.037 206.277 165.559 206.621 165.717 207.175C166.034 208.283 166.039 209.41 165.542 210.504L167.975 208.292C169.269 206.899 170.772 205.87 172.485 205.204C173.281 204.906 174.096 204.92 174.738 205.194C175.19 205.417 175.521 205.71 175.851 206.004C177.453 207.66 178.157 209.997 177.734 212.339C177.325 213.866 176.604 215.411 175.743 216.715C175.226 217.497 174.71 218.279 174.193 219.062C172.797 220.836 171.662 222.782 170.979 224.951C170.742 226.218 170.817 227.465 170.891 228.713C170.985 230.272 170.958 231.901 170.669 233.358C171 233.652 170.707 233.982 170.344 234.192ZM156.579 233.265L168.514 231.86C168.579 230.855 168.522 229.919 168.517 228.793C168.303 227.303 168.4 225.795 168.688 224.338C169.474 221.786 170.712 219.458 172.28 217.424C172.796 216.641 173.382 215.98 173.778 215.268C174.467 214.225 175.085 213.061 175.322 211.795C175.61 210.338 175.154 208.988 174.213 207.917C174.143 207.796 174.143 207.796 173.952 207.745C173.831 207.815 173.641 207.764 173.52 207.834C172.24 208.411 170.978 209.301 169.978 210.363L160.605 219.001C160.07 219.471 159.134 219.527 158.664 218.992C158.194 218.457 158.086 217.712 158.552 217.121C159.999 215.156 161.185 213.019 162.372 210.882C162.544 210.621 162.767 210.169 162.939 209.909L162.818 209.979C159.626 213.112 155.992 218.276 155.356 223.322C155.31 224.64 155.575 225.938 155.841 227.237C156.335 229.211 156.517 231.203 156.579 233.265Z" fill="#474849"/>
<path d="M101.001 288.748C101.001 288.748 125.352 320.027 150.325 300.123C175.298 280.219 169.296 232.377 169.296 232.377L152.09 229.403C152.09 229.403 149.531 277.509 137.577 278.602C125.623 279.695 111.735 258.994 103.036 263.21C94.3371 267.425 91.6689 279.292 101.001 288.748Z" fill="#AEB1B1"/>
<path d="M146.686 304.16C141.553 307.285 135.371 308.595 129.319 307.894C113.175 305.921 100.941 290.88 99.9306 289.688C95.1948 284.839 93.0888 278.956 93.9994 273.267C94.8963 268.393 97.9626 264.203 102.529 262.05C107.7 259.549 113.734 264.132 120.22 268.939C126.115 273.28 132.149 277.864 137.502 277.354C145.351 276.696 149.866 247.628 150.721 229.547C150.824 229.166 150.926 228.784 151.289 228.574C151.582 228.244 152.015 228.155 152.397 228.257L169.533 231.11C170.106 231.263 170.697 231.729 170.734 232.353C171.64 241.188 171.68 250.2 170.645 259.026C168.547 278.308 161.783 292.862 151.215 301.384C149.762 302.223 148.259 303.252 146.686 304.16ZM102.888 264.909C99.6207 266.795 97.4338 269.994 96.8438 273.723C96.0679 278.527 97.8059 283.493 102.001 287.686L102.071 287.807C102.141 287.928 114.394 303.281 129.653 305.12C136.59 305.955 143.288 303.863 149.436 298.862C171.541 281.258 168.656 240.49 168.105 233.387L153.552 230.817C153.071 239.485 150.275 273.207 140.352 278.936C139.626 279.355 138.709 279.723 137.773 279.78C131.363 280.415 124.877 275.608 118.582 270.853C112.878 266.563 107.435 262.445 103.786 264.229C103.493 264.559 103.13 264.769 102.888 264.909Z" fill="#474849"/>
<path d="M283.37 181.52L321.866 248.197L255.19 286.692L216.694 220.016L240.17 206.462C240.17 206.462 241.96 215.432 248.213 218.437C253.372 220.945 256.802 220.739 261.885 217.804C266.483 215.149 270.964 209.497 267.81 201.798C266.618 198.615 264.387 195.869 261.589 194.096L283.37 181.52Z" fill="#999493"/>
<path d="M322.565 249.407L255.889 287.903C255.163 288.322 254.399 288.117 253.98 287.391L215.484 220.715C215.065 219.989 215.27 219.225 215.996 218.806L239.472 205.253C239.835 205.043 240.337 205.075 240.719 205.178C241.171 205.401 241.38 205.764 241.469 206.197C241.539 206.318 243.222 214.543 248.762 217.153C253.469 219.437 256.397 219.198 261.117 216.474C262.69 215.565 270.104 210.801 266.461 202.255C265.287 199.383 263.387 196.931 260.849 195.33C260.137 194.935 259.839 194.139 260.234 193.427C260.406 193.166 260.457 192.975 260.699 192.835L282.602 180.19C283.328 179.771 284.092 179.975 284.511 180.701L323.006 247.377C323.426 248.103 323.291 248.988 322.565 249.407ZM255.701 284.784L319.957 247.686L282.859 183.43L264.103 194.259C266.347 196.19 268.056 198.591 269.091 201.221C272.594 209.525 267.717 215.89 262.514 218.894C257.068 222.038 253.135 222.211 247.595 219.601C242.506 217.215 240.158 211.471 239.226 208.46L218.533 220.407L255.701 284.784Z" fill="#474849"/>
<path d="M311.551 76.3493L349.977 142.904L283.422 181.33L270.567 159.064C268.705 161.43 266.304 163.139 263.553 164.243C255.855 167.397 250.202 162.916 247.547 158.318C244.613 153.235 244.407 149.805 246.914 144.646C249.249 139.748 255.133 137.642 257.781 136.92L244.996 114.775L311.551 76.3493Z" fill="#838681"/>
<path d="M350.745 144.235L284.19 182.661C283.464 183.08 282.701 182.876 282.281 182.15L270.334 161.457C268.627 163.25 266.518 164.628 264.131 165.523C255.827 169.026 249.462 164.15 246.458 158.946C243.314 153.501 243.14 149.567 245.75 144.027C247.862 139.581 252.6 137.168 255.663 136.045L243.786 115.473C243.367 114.747 243.571 113.984 244.297 113.565L310.852 75.139C311.578 74.7199 312.342 74.9244 312.761 75.6505L351.187 142.206C351.606 142.932 351.401 143.695 350.745 144.235ZM284.003 179.542L348.138 142.514L311.04 78.2579L246.905 115.286L258.921 136.1C259.341 136.826 259.136 137.589 258.41 138.009C258.289 138.078 258.168 138.148 258.047 138.218C256.264 138.763 250.311 140.748 248.199 145.195C245.985 150.023 246.032 152.899 248.757 157.619C249.665 159.192 254.43 166.606 262.975 162.963C265.484 161.999 267.764 160.359 269.384 158.134C269.849 157.542 270.715 157.365 271.306 157.83C271.497 157.882 271.637 158.124 271.707 158.245L284.003 179.542Z" fill="#474849"/>
<path d="M350.047 143.025L388.542 209.701L321.866 248.197L308.592 225.205C306.819 228.003 304.073 230.234 300.89 231.427C293.191 234.581 287.468 229.979 284.883 225.501C281.949 220.419 281.743 216.988 284.251 211.829C287.256 205.577 296.226 203.786 296.226 203.786L283.37 181.521L305.757 168.596C305.757 168.596 298.884 162.56 299.408 155.643C299.816 149.921 301.71 147.053 306.792 144.119C311.39 141.464 318.526 140.41 323.616 146.99C325.777 149.615 327.04 152.92 327.176 156.23L350.047 143.025Z" fill="#AEB1B1"/>
<path d="M389.241 210.911L322.565 249.407C321.839 249.826 321.075 249.621 320.656 248.895L308.5 227.84C306.569 230.084 304.167 231.793 301.537 232.828C293.234 236.331 286.748 231.524 283.744 226.321C280.6 220.875 280.426 216.942 283.036 211.402C285.422 206.313 291.166 203.965 294.177 203.033L282.161 182.219C281.741 181.493 281.946 180.73 282.672 180.311L303.486 168.294C301.344 165.981 297.544 161.076 298.021 155.475C298.531 149.372 300.648 146.053 306.094 142.909C311.297 139.905 319.318 138.985 324.687 146.05C326.517 148.381 327.742 151.062 328.223 153.85L349.278 141.694C350.005 141.275 350.768 141.479 351.187 142.205L389.683 208.882C390.172 209.729 389.846 210.562 389.241 210.911ZM322.378 246.288L386.634 209.19L349.536 144.934L327.875 157.44C327.391 157.719 326.888 157.687 326.436 157.463C325.985 157.24 325.705 156.756 325.738 156.253C325.62 153.255 324.498 150.193 322.546 147.931C316.967 140.503 309.134 144.542 307.561 145.45C302.842 148.175 301.292 150.521 300.866 155.931C300.356 162.034 306.637 167.604 306.707 167.725C307.037 168.018 307.247 168.381 307.215 168.884C307.182 169.387 306.889 169.717 306.526 169.927L285.349 182.153L297.576 203.33C297.785 203.693 297.753 204.195 297.651 204.577C297.427 205.029 297.064 205.238 296.631 205.327C296.51 205.397 288.285 207.08 285.676 212.62C283.392 217.327 283.509 220.325 286.234 225.045C287.072 226.497 291.906 234.032 300.452 230.389C303.324 229.215 305.776 227.315 307.377 224.777C307.772 224.065 308.568 223.767 309.281 224.162C309.541 224.334 309.732 224.385 309.872 224.627L322.378 246.288Z" fill="#474849"/>
<path d="M124.695 332.023L179.512 300.374L192.507 322.882L137.69 354.531L124.695 332.023Z" fill="#474849"/>
<path d="M193.205 324.092L138.388 355.741C137.662 356.16 136.899 355.955 136.479 355.229L123.485 332.722C123.065 331.996 123.27 331.232 123.996 330.813L178.813 299.164C179.539 298.745 180.303 298.95 180.722 299.676L193.717 322.183C194.136 322.909 193.931 323.673 193.205 324.092ZM138.201 352.622L190.598 322.371L179 302.283L126.603 332.534L138.201 352.622Z" fill="#474849"/>
<path d="M413.079 197.148L114.67 369.435C113.944 369.854 113.181 369.649 112.761 368.923C112.342 368.197 112.547 367.434 113.273 367.014L411.561 194.798C412.287 194.378 413.051 194.583 413.47 195.309C413.889 196.035 413.684 196.799 413.079 197.148Z" fill="#474849"/>
<path d="M198.479 87.5807C197.753 87.9998 196.989 87.7953 196.57 87.0692C196.36 86.7062 196.342 86.3943 196.444 86.0126L199.963 70.5892C200.167 69.8257 200.893 69.4065 201.587 69.4901C202.351 69.6946 202.77 70.4207 202.686 71.1143L199.167 86.5377C199.135 87.0405 198.842 87.3711 198.479 87.5807Z" fill="#DFEAEF"/>
<path d="M223.9 86.6184L209.137 95.142C208.411 95.5611 207.647 95.3566 207.228 94.6305C206.809 93.9044 207.013 93.141 207.739 92.7218L222.503 84.1982C223.229 83.7791 223.992 83.9836 224.411 84.7097C224.83 85.4357 224.505 86.2691 223.9 86.6184Z" fill="#DFEAEF"/>
<path d="M183.15 89.8153L182.908 89.955C182.233 90.1833 181.4 89.8578 181.05 89.2527L176.774 78.4916C176.475 77.6956 176.871 76.9833 177.476 76.634C178.081 76.2846 178.984 76.7312 179.333 77.3363L183.61 88.0974C183.96 88.7025 183.755 89.466 183.15 89.8153Z" fill="#DFEAEF"/>
</g>
</svg>
