<svg width="301" height="308" viewBox="0 0 301 308" fill="none" xmlns="http://www.w3.org/2000/svg">
<g opacity="0.5">
<path d="M257.708 114.168C263.166 129.119 265.776 144.944 265.387 160.738C264.998 176.531 261.618 191.983 255.441 206.209C249.264 220.435 240.41 233.155 229.388 243.641C218.365 254.128 205.389 262.175 191.203 267.322C188.822 268.189 186.41 268.971 184.001 269.655C162.466 275.846 139.446 275.277 117.774 268.019C96.1025 260.762 76.725 247.132 62.0263 228.806C47.3276 210.481 37.9489 188.26 35.0445 164.878C32.1401 141.496 35.8366 117.974 45.6792 97.2049C55.5218 76.4361 71.081 59.3276 90.4421 47.9846C109.803 36.6417 132.121 31.5592 154.65 33.3627C177.178 35.1662 198.935 43.777 217.241 58.1354C235.548 72.4938 249.605 91.9733 257.685 114.177L257.708 114.168Z" fill="black"/>
<path d="M191.645 268.536C189.241 269.411 186.778 270.197 184.358 270.886C155.205 279.174 123.698 275.079 96.6296 259.483C69.5615 243.887 49.1004 218.04 39.6578 187.513C30.2152 156.986 32.5473 124.225 46.1514 96.293C59.7555 68.3612 83.5419 47.4957 112.382 38.195C141.223 28.8943 172.807 31.9034 200.326 46.5736C227.845 61.2437 249.095 86.3999 259.493 116.618C269.892 146.837 268.607 179.698 255.915 208.116C243.223 236.534 220.141 258.233 191.645 268.536ZM108.759 40.8073C81.0789 50.9248 58.6241 71.9865 46.1311 99.5496C33.6381 127.113 32.0836 159.022 41.7956 188.547C51.5076 218.072 71.7267 242.904 98.188 257.805C124.649 272.706 155.284 276.511 183.629 268.417C185.992 267.749 188.415 266.963 190.762 266.109C219.089 255.799 241.937 234.042 254.278 205.625C266.619 177.209 267.444 144.46 256.569 114.583C245.695 84.7061 224.013 60.1487 196.293 46.313C168.573 32.4774 137.086 30.497 108.759 40.8073Z" fill="black"/>
<path d="M262.649 131.359C268.672 159.74 264.769 189.083 251.651 214.035C238.534 238.988 217.075 257.887 191.19 267.286C188.809 268.153 186.397 268.935 183.988 269.619C173.148 264.965 163.333 257.935 155.23 249.02C150.804 244.131 146.945 238.722 143.738 232.909C141.524 228.897 139.622 224.713 138.052 220.401C131.946 203.642 131.109 185.465 135.665 168.553C140.22 151.641 149.927 136.889 163.353 126.474C176.778 116.059 193.213 110.531 210.23 110.707C227.248 110.883 243.948 116.754 257.866 127.452C259.51 128.677 261.104 129.979 262.649 131.359Z" fill="#EFEFEF"/>
<path d="M191.645 268.535C189.241 269.41 186.778 270.196 184.358 270.885C184.096 270.961 183.814 270.942 183.558 270.833C172.547 266.08 162.578 258.926 154.34 249.865C149.842 244.902 145.922 239.408 142.666 233.505C134.751 219.228 130.906 203.007 131.595 186.807C132.285 170.607 137.479 155.125 146.55 142.235C155.621 129.346 168.178 119.604 182.7 114.188C197.222 108.773 213.085 107.917 228.367 111.725C239.217 114.418 249.489 119.41 258.533 126.384C260.224 127.665 261.863 129.02 263.41 130.407C263.623 130.597 263.771 130.852 263.831 131.134C269.924 159.816 265.986 189.473 252.735 214.696C239.484 239.918 217.803 259.026 191.645 268.535ZM184.04 268.294C186.279 267.644 188.542 266.916 190.762 266.108C216.297 256.812 237.476 238.175 250.458 213.574C263.441 188.974 267.37 160.039 261.532 132.012C260.131 130.776 258.662 129.566 257.136 128.418C243.434 117.885 226.994 112.106 210.241 111.932C193.487 111.758 177.308 117.199 164.091 127.453C150.873 137.706 141.317 152.229 136.831 168.878C132.346 185.527 133.17 203.421 139.181 219.92C140.722 224.165 142.591 228.282 144.769 232.231C147.929 237.952 151.73 243.277 156.09 248.088C163.978 256.782 173.51 263.672 184.04 268.294Z" fill="black"/>
<path d="M232.704 128.545C232.833 140.136 225.361 144.161 214.89 141.665C210.384 140.557 205.385 139.065 201.464 141.427C196.898 144.202 196.266 150.876 197.178 156.424C197.863 160.668 198.706 166.063 195.231 168.221C194.003 168.798 192.725 169.263 191.412 169.611C186.286 171.669 185.131 178.767 186.414 184.511C188.076 191.655 191.784 196.296 188.034 203.28C187.452 204.501 186.616 205.566 185.585 206.399C184.554 207.232 183.352 207.814 182.065 208.104C180.627 208.309 179.148 208.037 177.836 207.327C176.524 206.617 175.444 205.504 174.748 204.145C173.701 201.984 173.745 199.454 172.889 197.21C171.745 194.068 168.467 191.111 166.756 188.093C165.643 186.107 163.03 185.478 160.957 186.082C158.909 186.815 157.06 188.023 155.548 189.617L145.247 198.862C143.481 200.453 141.052 202.12 138.951 200.892C137.76 199.986 136.936 198.646 136.652 197.154C125.802 161.724 153.064 126.383 183.617 115.263C197.775 110.083 213.206 109.313 228.066 113.045C230.962 117.706 232.569 123.077 232.704 128.545Z" fill="#ABABAB"/>
<path d="M183.753 208.947C183.306 209.112 182.845 209.234 182.374 209.311C180.676 209.568 178.926 209.253 177.374 208.413C175.823 207.573 174.551 206.25 173.742 204.635C173.157 203.314 172.759 201.917 172.559 200.49C172.396 199.508 172.152 198.539 171.831 197.595C170.989 195.786 169.895 194.109 168.587 192.62C167.577 191.362 166.657 190.03 165.834 188.635C164.995 187.154 162.939 186.803 161.411 187.222C159.547 187.93 157.863 189.049 156.47 190.504L146.181 199.745C145.059 200.744 141.681 203.773 138.485 201.9C137.74 201.381 137.096 200.717 136.592 199.945C136.087 199.173 135.732 198.31 135.546 197.405C124.659 161.838 151.415 125.541 183.245 113.956C197.622 108.712 213.284 107.938 228.368 111.725C228.527 111.765 228.678 111.836 228.813 111.936C228.948 112.035 229.063 112.161 229.152 112.306C232.168 117.207 233.82 122.851 233.918 128.584C233.981 134.057 232.379 138.281 229.261 140.845C225.844 143.696 220.765 144.418 214.594 142.927L213.552 142.605C209.475 141.602 205.271 140.577 202.079 142.508C197.038 145.552 197.956 153.764 198.358 156.228C199.065 160.642 200.053 166.686 195.847 169.302C195.011 169.75 194.117 170.075 193.19 170.269C192.733 170.408 192.283 170.572 191.844 170.759C187.479 172.512 186.406 178.976 187.607 184.172C188.02 185.878 188.524 187.562 189.116 189.215C190.678 193.827 192.142 198.171 189.149 203.836C188.013 206.175 186.1 207.987 183.753 208.947ZM160.029 184.963C160.235 184.874 160.447 184.797 160.662 184.733C163.125 184.056 166.399 184.747 167.895 187.39C168.678 188.659 169.553 189.865 170.511 190.999C171.991 192.697 173.216 194.615 174.144 196.684C174.528 197.777 174.815 198.9 175.001 200.041C175.164 201.229 175.487 202.393 175.959 203.498C176.528 204.607 177.41 205.516 178.48 206.097C179.551 206.678 180.758 206.902 181.933 206.737C183.041 206.475 184.073 205.964 184.959 205.239C185.844 204.513 186.561 203.591 187.06 202.535C189.527 197.859 188.349 194.372 186.867 189.979C186.251 188.243 185.721 186.477 185.281 184.689C183.82 178.351 185.268 170.624 190.953 168.349C191.481 168.149 192.02 167.981 192.567 167.844C193.277 167.69 193.961 167.441 194.604 167.103C197.205 165.482 196.768 161.382 195.986 156.583C194.744 148.984 196.566 142.894 200.847 140.305C204.859 137.869 209.767 139.078 214.101 140.139L215.16 140.399C220.57 141.7 224.928 141.144 227.771 138.79C230.29 136.692 231.565 133.287 231.492 128.505C231.415 123.443 230.005 118.452 227.414 114.079C212.935 110.55 197.933 111.35 184.156 116.386C153.384 127.586 127.454 162.538 137.923 196.705C138.131 197.868 138.734 198.927 139.62 199.687C140.747 200.349 142.39 199.709 144.52 197.794L154.821 188.549C156.32 187.024 158.086 185.808 160.029 184.963Z" fill="black"/>
<path d="M233.24 239.862C221.466 252.227 207.118 261.626 191.226 267.383C188.845 268.249 186.433 269.031 184.024 269.716C173.163 265.037 163.335 257.974 155.231 249.02C156.961 245.826 159.544 243.242 162.68 241.568C175.142 234.504 178.833 247.079 189.38 249.712C193.569 250.77 197.316 247.428 200.705 244.821C206.959 239.818 214.698 237.17 222.716 237.29C226.325 237.456 229.896 238.329 233.24 239.862Z" fill="#ABABAB"/>
<path d="M191.645 268.535C189.241 269.411 186.778 270.197 184.358 270.885C184.096 270.961 183.814 270.943 183.558 270.833C172.547 266.08 162.578 258.926 154.34 249.866C154.157 249.665 154.039 249.411 154.001 249.141C153.964 248.871 154.009 248.598 154.131 248.362C155.977 244.966 158.723 242.214 162.054 240.422C170.696 235.532 175.659 239.468 180.503 243.256C183.215 245.374 185.99 247.593 189.65 248.487C192.906 249.308 196.041 246.862 199.063 244.498L199.967 243.797C206.425 238.638 214.414 235.909 222.689 236.036C226.456 236.193 230.186 237.081 233.686 238.656C233.874 238.74 234.041 238.87 234.171 239.035C234.302 239.2 234.393 239.394 234.436 239.601C234.479 239.808 234.473 240.021 234.419 240.221C234.364 240.421 234.263 240.603 234.123 240.75C222.229 253.254 207.718 262.746 191.645 268.535ZM184.04 268.294C186.279 267.644 188.542 266.917 190.762 266.109C205.894 260.643 219.618 251.825 231.009 240.248C228.315 239.251 225.503 238.685 222.673 238.57C214.943 238.462 207.484 241.018 201.453 245.84L200.572 246.532C197.252 249.114 193.464 252.059 189.148 250.937C185.029 249.894 181.862 247.419 179.077 245.245C174.286 241.493 170.518 238.551 163.29 242.638C160.636 244.074 158.393 246.194 156.767 248.804C164.522 257.161 173.811 263.799 184.04 268.294Z" fill="black"/>
<path d="M262.649 131.359C268.979 161.139 264.368 191.927 249.737 217.576C246.138 207.51 238.618 201.701 234.22 191.623C232.115 186.769 233.628 181.121 236.195 176.683C238.762 172.245 242.335 168.499 244.722 163.962C250.806 152.473 249.331 136.536 257.861 127.331C259.509 128.636 261.105 129.979 262.649 131.359Z" fill="#ABABAB"/>
<path d="M250.144 218.803C249.972 218.864 249.788 218.884 249.605 218.861C249.372 218.834 249.148 218.738 248.961 218.585C248.773 218.431 248.63 218.227 248.548 217.996C246.675 212.852 243.817 208.863 240.746 204.65C237.746 200.798 235.173 196.612 233.079 192.175C231.098 187.593 231.874 181.705 235.116 176.046C236.369 173.968 237.732 171.967 239.201 170.052C240.826 167.945 242.305 165.717 243.626 163.385C246.144 158.635 247.361 152.958 248.522 147.451C250.151 139.865 251.832 132.026 256.954 126.521C257.156 126.301 257.431 126.167 257.727 126.145C258.024 126.123 258.321 126.214 258.565 126.401C260.255 127.682 261.895 129.036 263.442 130.424C263.655 130.613 263.803 130.869 263.863 131.151C270.301 161.269 265.634 192.421 250.798 218.345C250.638 218.571 250.407 218.732 250.144 218.803ZM258.056 129.156C253.939 134.13 252.483 140.939 250.947 148.135C249.737 153.796 248.486 159.665 245.806 164.721C244.433 167.162 242.891 169.491 241.191 171.691C239.779 173.541 238.464 175.469 237.249 177.468C235.901 179.813 233.015 185.879 235.336 191.217C237.347 195.474 239.823 199.489 242.712 203.179C245.5 206.754 247.903 210.631 249.876 214.737C263.374 189.913 267.519 160.492 261.532 132.013C260.423 131.042 259.257 130.093 258.056 129.156Z" fill="black"/>
<path d="M126.83 165.802L89.4421 147.369L102.223 134.129L127.874 146.763L126.83 165.802Z" fill="#EFEFEF"/>
<path d="M127.33 166.994C127.027 167.103 126.692 167.082 126.396 166.935L88.9505 148.523C88.7693 148.434 88.6101 148.3 88.4864 148.135C88.3627 147.969 88.2781 147.777 88.2398 147.573C88.2 147.368 88.208 147.158 88.2633 146.961C88.3186 146.764 88.4194 146.585 88.5572 146.441L101.35 133.197C101.525 133.017 101.751 132.899 101.997 132.859C102.243 132.818 102.497 132.857 102.727 132.971L128.37 145.621C128.6 145.734 128.793 145.916 128.925 146.143C129.057 146.371 129.12 146.632 129.106 146.892L128.063 165.93C128.051 166.137 127.991 166.335 127.889 166.508C127.786 166.682 127.644 166.826 127.475 166.928L127.33 166.994ZM91.6311 147.012L125.765 163.84L126.657 147.536L102.594 135.685L91.6311 147.012Z" fill="black"/>
<path d="M170.566 70.3162L136.049 150.864L94.0575 130.163L128.574 49.6153C128.802 49.1174 129.063 48.6371 129.354 48.1775C134.39 39.6806 152.573 28.4323 161.521 23.2382C162.101 22.8942 162.756 22.703 163.433 22.6806C164.109 22.6582 164.786 22.8052 165.407 23.1094C166.028 23.4136 166.575 23.866 167.002 24.4287C167.429 24.9914 167.724 25.6481 167.862 26.3436C169.896 36.9798 173.807 59.1064 171.045 68.768C170.917 69.2953 170.757 69.8125 170.566 70.3162Z" fill="white"/>
<path d="M136.492 152.008C136.341 152.064 136.18 152.088 136.018 152.079C135.856 152.069 135.696 152.027 135.547 151.954L93.5778 131.313C93.283 131.165 93.0522 130.903 92.9351 130.585C92.8761 130.426 92.8475 130.257 92.8509 130.089C92.8544 129.92 92.8898 129.755 92.9551 129.603L127.472 49.0549C127.707 48.5145 127.979 47.9932 128.285 47.4949C133.357 38.9164 150.884 27.9068 160.877 22.1124C161.626 21.6763 162.47 21.4363 163.34 21.4126C164.209 21.3889 165.078 21.582 165.875 21.976C166.672 22.3699 167.374 22.9533 167.922 23.6775C168.47 24.4018 168.849 25.246 169.026 26.14C171.435 38.0551 175.055 59.4906 172.305 69.1886C172.144 69.7566 171.951 70.3132 171.727 70.8556L137.21 151.403C137.06 151.698 136.802 151.916 136.492 152.008ZM95.7225 129.475L135.424 149.072L169.43 69.6993C169.613 69.2529 169.773 68.7958 169.909 68.3298C172.6 58.8314 168.513 35.8621 166.585 26.5201C166.486 26.0283 166.276 25.5643 165.973 25.1664C165.671 24.7685 165.284 24.4482 164.845 24.232C164.406 24.0158 163.927 23.9099 163.449 23.9231C162.97 23.9363 162.506 24.0682 162.093 24.3079C154.209 28.8813 135.388 40.4167 130.36 48.8283C130.117 49.2374 129.897 49.6614 129.701 50.0983L95.7225 129.475Z" fill="black"/>
<path d="M74.1267 108.976L108.001 97.5671L94.0675 130.118L69.6712 118.031C69.3945 117.894 69.1447 117.702 68.9361 117.467C68.7276 117.231 68.5644 116.957 68.4561 116.659C68.3477 116.361 68.2963 116.046 68.3047 115.732C68.3132 115.418 68.3814 115.11 68.5054 114.828L68.9573 113.743C69.454 112.615 70.168 111.611 71.0563 110.792C71.9447 109.973 72.989 109.355 74.1267 108.976Z" fill="#EFEFEF"/>
<path d="M94.5 131.307C94.3489 131.364 94.1877 131.388 94.0256 131.378C93.8635 131.369 93.7036 131.326 93.5552 131.253L69.2013 119.246C68.7757 119.036 68.3915 118.741 68.0707 118.379C67.75 118.017 67.499 117.595 67.3324 117.137C67.1657 116.679 67.0866 116.195 67.0997 115.711C67.1127 115.228 67.2177 114.755 67.4084 114.32L67.8603 113.235C68.4246 111.956 69.2295 110.815 70.229 109.876C71.2284 108.937 72.4028 108.219 73.6848 107.763L107.559 96.3543C107.784 96.279 108.028 96.2743 108.261 96.341C108.493 96.4077 108.704 96.5427 108.868 96.7297C109.034 96.9179 109.144 97.1507 109.186 97.3992C109.228 97.6477 109.199 97.9011 109.103 98.1279L95.1701 130.679C95.1035 130.83 95.0084 130.966 94.8903 131.077C94.7721 131.189 94.6331 131.274 94.4814 131.328L94.5 131.307ZM74.3839 110.256C73.4352 110.604 72.5679 111.145 71.8317 111.849C71.0955 112.553 70.5048 113.406 70.0934 114.36L69.6371 115.433C69.5216 115.699 69.5139 116.006 69.6158 116.286C69.7176 116.565 69.9207 116.795 70.1803 116.925L93.4243 128.388L105.712 99.6919L74.545 110.198L74.3839 110.256Z" fill="black"/>
<path d="M164.013 153.244L149.977 118.26L136.043 150.811L160.409 162.814C160.968 163.091 161.603 163.129 162.174 162.922C162.745 162.714 163.206 162.276 163.457 161.704L163.925 160.627C164.423 159.485 164.687 158.241 164.702 156.971C164.717 155.702 164.483 154.433 164.013 153.244Z" fill="#EFEFEF"/>
<path d="M162.603 164.117C161.74 164.429 160.781 164.368 159.936 163.948L135.571 151.945C135.422 151.872 135.287 151.769 135.175 151.642C135.063 151.516 134.975 151.368 134.917 151.208C134.858 151.048 134.831 150.878 134.835 150.709C134.84 150.54 134.877 150.374 134.943 150.222L148.877 117.671C148.973 117.444 149.133 117.253 149.336 117.123C149.539 116.993 149.776 116.929 150.018 116.94C150.258 116.952 150.493 117.036 150.692 117.184C150.891 117.331 151.047 117.534 151.14 117.768L165.176 152.753C165.707 154.096 165.975 155.528 165.964 156.963C165.954 158.397 165.664 159.805 165.114 161.101L164.646 162.178C164.457 162.635 164.178 163.044 163.827 163.377C163.475 163.711 163.058 163.963 162.603 164.117ZM137.668 150.192L160.908 161.643C161.168 161.772 161.462 161.791 161.728 161.694C161.993 161.598 162.207 161.394 162.323 161.128L162.786 160.039C163.204 159.057 163.423 157.991 163.43 156.904C163.438 155.818 163.233 154.733 162.83 153.716L149.956 121.497L137.668 150.192Z" fill="black"/>
<path d="M117.239 147.433L108.653 143.207L127.434 109.62C127.511 109.437 127.655 109.296 127.835 109.228C128.016 109.16 128.217 109.17 128.396 109.256C128.574 109.343 128.714 109.498 128.786 109.688C128.858 109.879 128.855 110.088 128.778 110.271L117.239 147.433Z" fill="#EFEFEF"/>
<path d="M117.681 148.646C117.382 148.757 117.048 148.741 116.752 148.6L108.162 144.362C108.003 144.284 107.86 144.173 107.743 144.035C107.626 143.898 107.537 143.737 107.483 143.564C107.428 143.39 107.409 143.208 107.427 143.029C107.444 142.85 107.498 142.678 107.584 142.525L126.365 108.938C126.589 108.479 126.975 108.133 127.446 107.972C127.916 107.81 128.435 107.844 128.894 108.067C129.354 108.29 129.72 108.685 129.918 109.171C130.115 109.657 130.129 110.197 129.956 110.681L118.41 147.859C118.358 148.027 118.271 148.18 118.157 148.31C118.042 148.439 117.902 148.541 117.746 148.609L117.681 148.646ZM110.41 142.664L116.489 145.659L126.167 114.478L110.41 142.664Z" fill="black"/>
<path d="M142.951 98.7789C149.59 96.3625 152.906 88.7272 150.357 81.7251C147.809 74.7229 140.361 71.0054 133.722 73.4218C127.083 75.8382 123.767 83.4735 126.315 90.4756C128.864 97.4778 136.312 101.195 142.951 98.7789Z" fill="#8D8D8D"/>
<path d="M143.335 100.013C139.842 101.284 135.959 101.04 132.541 99.3341C129.122 97.6279 126.448 94.5996 125.107 90.9152C123.766 87.2309 123.868 83.1924 125.39 79.6881C126.912 76.1839 129.729 73.5009 133.223 72.2295L133.292 72.2043C136.785 70.9329 140.668 71.1771 144.086 72.8833C147.504 74.5895 150.178 77.6178 151.519 81.3021C152.86 84.9865 152.759 89.025 151.237 92.5292C149.715 96.0335 146.897 98.7165 143.404 99.9879L143.335 100.013ZM134.106 74.656C131.228 75.7218 128.912 77.9493 127.669 80.8493C126.426 83.7492 126.357 87.0843 127.476 90.1218C128.031 91.6252 128.861 93.0102 129.919 94.1975C130.977 95.3849 132.242 96.3514 133.643 97.0419C135.04 97.745 136.549 98.1523 138.08 98.2394C139.612 98.3265 141.134 98.0917 142.555 97.5488C145.438 96.4995 147.764 94.2851 149.02 91.393C150.276 88.5008 150.36 85.1677 149.253 82.1269C148.146 79.0862 145.94 76.5868 143.118 75.1786C140.297 73.7705 137.092 73.5689 134.209 74.6183L134.106 74.656Z" fill="black"/>
<path d="M170.566 70.3158L169.698 72.2256C158.06 60.8767 143.34 53.6267 127.731 51.5569L128.577 49.5864C128.805 49.0885 129.065 48.6082 129.356 48.1486C134.393 39.6517 152.575 28.4034 161.523 23.2093C162.103 22.8653 162.759 22.6741 163.435 22.6517C164.111 22.6293 164.788 22.7763 165.409 23.0805C166.03 23.3847 166.577 23.8371 167.005 24.3998C167.432 24.9625 167.727 25.6192 167.865 26.3147C169.896 36.9793 173.807 59.1059 171.045 68.7675C170.917 69.2949 170.757 69.812 170.566 70.3158Z" fill="#EFEFEF"/>
<path d="M170.139 73.4393L169.944 73.5105C169.749 73.545 169.547 73.5293 169.356 73.465C169.164 73.4006 168.989 73.2894 168.845 73.1409C157.406 61.9855 142.932 54.8657 127.588 52.8461C127.39 52.8251 127.199 52.755 127.031 52.642C126.862 52.5289 126.72 52.3761 126.618 52.1965C126.515 52.0169 126.455 51.8157 126.442 51.6099C126.429 51.4041 126.464 51.1998 126.543 51.0142L127.38 49.0194C127.615 48.479 127.887 47.9577 128.193 47.4594C133.265 38.8809 150.792 27.8713 160.786 22.0769C161.534 21.6408 162.379 21.4009 163.248 21.3771C164.117 21.3534 164.987 21.5465 165.784 21.9405C166.581 22.3344 167.283 22.9178 167.831 23.642C168.379 24.3663 168.757 25.2105 168.934 26.1045C171.343 38.0196 174.963 59.4551 172.214 69.1531C172.053 69.7211 171.859 70.2778 171.635 70.8201L170.789 72.7906C170.664 73.0887 170.431 73.321 170.139 73.4393ZM129.481 50.4946C144.159 52.8248 157.984 59.6491 169.182 70.0919L169.337 69.7329C169.521 69.2865 169.681 68.8293 169.816 68.3633C172.508 58.8649 168.421 35.8957 166.493 26.5536C166.393 26.0619 166.183 25.5978 165.881 25.2C165.578 24.8021 165.191 24.4818 164.752 24.2656C164.313 24.0494 163.835 23.9435 163.356 23.9567C162.878 23.9699 162.413 24.1017 162.001 24.3414C154.116 28.9148 135.296 40.4503 130.267 48.8618C130.024 49.2709 129.805 49.695 129.609 50.1318L129.481 50.4946Z" fill="black"/>
<path d="M202.515 223.881C204.391 224.133 206.015 222.759 207.865 222.401C210.631 221.876 213.358 223.713 216.169 224.064C217.555 224.196 218.942 224.003 220.226 223.5C221.511 222.997 222.661 222.196 223.592 221.156C230.509 213.569 224.197 201.343 214.676 206.54C210.905 208.599 205.756 211.023 202.48 213.727C200.011 215.821 196.651 223.089 202.515 223.881Z" fill="#ABABAB"/>
<path d="M220.403 224.818C219.026 225.325 217.546 225.502 216.072 225.336C214.878 225.151 213.701 224.843 212.558 224.417C211.149 223.802 209.63 223.545 208.129 223.666C207.489 223.822 206.868 224.048 206.277 224.34C205.097 224.979 203.764 225.269 202.415 225.182C201.497 225.162 200.599 224.839 199.849 224.26C199.1 223.681 198.539 222.875 198.246 221.959C197.324 218.819 199.642 214.485 201.71 212.757C204.765 210.454 208.032 208.465 211.467 206.815L214.086 205.422C219.375 202.521 223.564 204.583 225.703 207.487C228.394 211.123 228.856 217.331 224.499 222.077C223.367 223.315 221.965 224.253 220.403 224.818ZM206.396 221.48C206.78 221.339 207.175 221.227 207.577 221.146C209.478 220.924 211.419 221.215 213.214 221.994C214.205 222.354 215.223 222.623 216.255 222.797C217.451 222.901 218.646 222.728 219.753 222.289C220.859 221.851 221.85 221.158 222.653 220.262C226.071 216.517 225.785 211.757 223.757 208.978C221.73 206.198 218.63 205.843 215.281 207.666C214.448 208.134 213.549 208.599 212.62 209.088C209.338 210.669 206.212 212.565 203.283 214.753C201.824 215.971 200.027 219.373 200.575 221.235C200.685 221.539 200.903 222.352 202.631 222.589C203.555 222.592 204.459 222.362 205.266 221.919C205.634 221.785 206.016 221.618 206.396 221.48Z" fill="black"/>
<path d="M154.936 256.121L154.821 256.162C146.696 257.61 138.29 257.003 130.302 254.392C122.314 251.782 114.975 247.243 108.895 241.153C74.4841 207.457 102.965 163.799 103.25 163.365C103.337 163.219 103.452 163.095 103.588 162.998C103.724 162.902 103.878 162.836 104.041 162.805C104.205 162.774 104.374 162.778 104.538 162.817C104.702 162.856 104.858 162.929 104.996 163.031C105.135 163.134 105.252 163.264 105.342 163.414C105.432 163.564 105.493 163.731 105.52 163.903C105.547 164.076 105.54 164.251 105.5 164.419C105.46 164.587 105.387 164.743 105.286 164.878C105.008 165.295 77.778 207.164 110.557 239.311C116.328 245.1 123.292 249.42 130.874 251.917C138.456 254.413 146.438 255.014 154.161 253.668C154.471 253.572 154.81 253.609 155.102 253.772C155.395 253.935 155.617 254.21 155.721 254.536C155.824 254.863 155.8 255.215 155.653 255.514C155.507 255.814 155.251 256.036 154.94 256.133L154.936 256.121Z" fill="white"/>
<path d="M108.323 217.247C108.036 217.354 107.717 217.342 107.429 217.215C107.142 217.088 106.907 216.855 106.771 216.562C98.1858 198.129 111.434 170.21 112.007 169.027C112.14 168.722 112.385 168.489 112.689 168.379C112.993 168.268 113.331 168.289 113.629 168.436C113.775 168.515 113.906 168.623 114.014 168.753C114.123 168.884 114.205 169.035 114.258 169.197C114.311 169.359 114.333 169.529 114.323 169.698C114.313 169.867 114.27 170.031 114.198 170.18C114.062 170.449 100.937 198.172 108.958 215.45C109.031 215.604 109.073 215.771 109.084 215.94C109.095 216.109 109.073 216.278 109.021 216.436C108.968 216.595 108.885 216.74 108.778 216.863C108.67 216.986 108.539 217.085 108.393 217.153L108.323 217.247Z" fill="white"/>
<path d="M87.0552 179.895C86.8175 179.983 86.5565 179.992 86.3086 179.919C86.1507 179.872 86.0022 179.794 85.8716 179.688C85.7411 179.582 85.631 179.451 85.5479 179.303C85.4647 179.154 85.4101 178.991 85.3872 178.823C85.3642 178.654 85.3735 178.484 85.4143 178.321C87.5074 169.755 93.4572 159.222 93.7237 158.809C93.8899 158.524 94.1599 158.322 94.4748 158.249C94.7897 158.176 95.124 158.236 95.4048 158.417C95.6852 158.598 95.8893 158.884 95.9728 159.214C96.0562 159.544 96.0123 159.891 95.8505 160.178C95.785 160.284 89.798 170.859 87.8219 179.066C87.7685 179.26 87.6711 179.436 87.5378 179.58C87.4045 179.724 87.2391 179.832 87.0552 179.895Z" fill="white"/>
</g>
</svg>
