<svg width="291" height="303" viewBox="0 0 291 303" fill="none" xmlns="http://www.w3.org/2000/svg">
<g opacity="0.5">
<path d="M209.392 242.915L97.9767 49.9378C97.5346 49.1305 96.8022 48.5215 95.9278 48.234C95.0535 47.9466 94.1026 48.0022 93.2677 48.3897C92.8441 48.6046 92.4687 48.9037 92.1646 49.2686C91.8606 49.6336 91.6341 50.0567 91.4991 50.5122C91.3641 50.9676 91.3235 51.4458 91.3796 51.9175C91.4358 52.3892 91.5876 52.8445 91.8257 53.2555L203.342 246.408C203.806 247.21 204.569 247.796 205.463 248.036C206.358 248.275 207.312 248.15 208.114 247.687C208.916 247.223 209.502 246.461 209.741 245.566C209.981 244.671 209.856 243.718 209.392 242.915Z" fill="black"/>
<path d="M208.788 248.854C207.676 249.496 206.355 249.67 205.114 249.338C203.874 249.006 202.816 248.194 202.174 247.082L90.6577 53.9296C90.3259 53.3608 90.1141 52.7301 90.0351 52.0763C89.9561 51.4225 90.0118 50.7595 90.1985 50.128C90.3853 49.4966 90.6993 48.91 91.1212 48.4043C91.543 47.8987 92.0639 47.4847 92.6517 47.1879C93.7937 46.6359 95.1041 46.5435 96.3124 46.9297C97.5206 47.3159 98.5344 48.1512 99.1446 49.2633L210.56 242.241C211.202 243.353 211.376 244.674 211.044 245.915C210.712 247.155 209.9 248.212 208.788 248.854ZM93.7784 49.6518C93.5319 49.79 93.3155 49.9761 93.142 50.1992C92.9685 50.4223 92.8414 50.6779 92.7683 50.9509C92.6951 51.2239 92.6774 51.5088 92.7161 51.7887C92.7548 52.0687 92.8491 52.3381 92.9935 52.581L204.51 245.734C204.795 246.226 205.263 246.586 205.812 246.733C206.362 246.88 206.947 246.803 207.439 246.519C207.932 246.234 208.291 245.766 208.439 245.217C208.586 244.667 208.509 244.082 208.224 243.589L96.8087 50.6119C96.5395 50.1044 96.0886 49.7173 95.5462 49.5281C95.0038 49.3388 94.41 49.3613 93.8835 49.5911L93.7784 49.6518Z" fill="black"/>
<path d="M150.879 277.912C142.287 238.756 135.112 204.481 128.454 171.263C128.302 170.383 127.83 169.59 127.129 169.038C126.427 168.485 125.546 168.212 124.655 168.271C124.168 168.317 123.697 168.466 123.271 168.706C122.845 168.947 122.474 169.274 122.183 169.667C121.891 170.059 121.686 170.509 121.579 170.987C121.473 171.464 121.467 171.958 121.564 172.438C128.228 205.746 135.463 240.126 144.03 279.375C144.147 279.912 144.389 280.415 144.737 280.842C145.085 281.268 145.529 281.606 146.032 281.829C146.535 282.051 147.084 282.152 147.634 282.122C148.183 282.092 148.718 281.932 149.194 281.657C149.835 281.29 150.342 280.731 150.645 280.058C150.947 279.385 151.029 278.634 150.879 277.912Z" fill="black"/>
<path d="M149.889 282.86C149.229 283.242 148.487 283.462 147.725 283.503C146.963 283.544 146.202 283.404 145.504 283.095C144.806 282.786 144.191 282.316 143.71 281.724C143.228 281.132 142.893 280.434 142.732 279.688C134.093 240.233 126.966 206.257 120.266 172.751C120.136 172.086 120.146 171.401 120.296 170.74C120.445 170.079 120.731 169.457 121.136 168.913C121.54 168.368 122.053 167.915 122.643 167.58C123.232 167.246 123.885 167.039 124.559 166.971C125.781 166.891 126.989 167.261 127.956 168.011C128.923 168.761 129.581 169.84 129.807 171.043C136.53 204.535 143.624 238.374 152.218 277.669C152.434 278.669 152.324 279.712 151.905 280.646C151.486 281.58 150.78 282.356 149.889 282.86ZM123.913 169.898C123.526 170.122 123.218 170.461 123.035 170.869C122.851 171.277 122.8 171.733 122.89 172.171C129.59 205.677 136.741 239.669 145.356 279.108C145.429 279.44 145.58 279.75 145.796 280.012C146.013 280.274 146.288 280.481 146.601 280.616C146.907 280.756 147.243 280.819 147.58 280.801C147.917 280.783 148.244 280.684 148.534 280.512C148.926 280.28 149.235 279.932 149.419 279.516C149.603 279.1 149.653 278.636 149.561 278.191C140.895 238.906 133.778 205.002 127.134 171.511C127.097 171.153 126.971 170.81 126.767 170.514C126.562 170.217 126.287 169.977 125.965 169.815C125.644 169.653 125.287 169.575 124.927 169.588C124.567 169.6 124.216 169.703 123.907 169.886L123.913 169.898Z" fill="black"/>
<path d="M267.012 213.681C267.487 213.405 267.89 213.02 268.189 212.559C268.488 212.098 268.675 211.574 268.733 211.028C268.792 210.481 268.722 209.929 268.528 209.415C268.335 208.901 268.023 208.439 267.618 208.068C237.97 180.991 211.799 157.59 186.317 135.193C185.706 134.636 184.921 134.308 184.095 134.265C183.27 134.222 182.455 134.467 181.789 134.957C181.378 135.271 181.042 135.672 180.806 136.132C180.569 136.591 180.437 137.097 180.419 137.614C180.402 138.131 180.499 138.645 180.704 139.119C180.909 139.594 181.217 140.017 181.606 140.358C207.076 162.761 233.212 186.182 262.895 213.239C263.447 213.739 264.142 214.05 264.882 214.13C265.622 214.209 266.368 214.052 267.012 213.681Z" fill="black"/>
<path d="M267.687 214.849C266.795 215.368 265.761 215.588 264.736 215.477C263.71 215.366 262.747 214.929 261.988 214.23C232.184 187.072 206.361 163.922 180.712 141.372C180.184 140.906 179.765 140.33 179.486 139.683C179.207 139.036 179.075 138.336 179.098 137.632C179.119 136.914 179.301 136.209 179.629 135.569C179.958 134.929 180.425 134.371 180.997 133.935C181.909 133.252 183.031 132.907 184.169 132.96C185.308 133.012 186.393 133.46 187.237 134.225C212.881 156.794 238.716 179.937 268.579 207.17C269.142 207.683 269.577 208.322 269.847 209.034C270.117 209.746 270.215 210.512 270.133 211.269C270.051 212.027 269.792 212.754 269.376 213.392C268.961 214.03 268.4 214.562 267.741 214.943L267.687 214.849ZM182.835 135.879L182.614 136.007C182.359 136.2 182.151 136.446 182.004 136.729C181.856 137.011 181.773 137.323 181.76 137.642C181.748 137.96 181.806 138.278 181.93 138.571C182.055 138.864 182.243 139.126 182.481 139.339C208.148 161.894 233.978 185.055 263.835 212.277C264.174 212.581 264.6 212.771 265.053 212.82C265.506 212.868 265.962 212.773 266.358 212.548C266.651 212.379 266.899 212.143 267.083 211.859C267.266 211.575 267.381 211.252 267.416 210.916C267.451 210.58 267.406 210.241 267.285 209.925C267.164 209.61 266.97 209.327 266.719 209.101C236.909 181.931 211.078 158.769 185.443 136.242C185.101 135.918 184.665 135.708 184.197 135.643C183.73 135.578 183.254 135.661 182.835 135.879Z" fill="black"/>
<path d="M193.481 222.342C238.092 196.586 253.376 139.543 227.621 94.9328C201.865 50.3225 144.822 35.0378 100.211 60.7936C55.6009 86.5494 40.3163 143.592 66.0721 188.203C91.8279 232.813 148.871 248.098 193.481 222.342Z" fill="black"/>
<path d="M194.163 223.522C177.955 232.883 159.335 237.227 140.657 236.005C121.98 234.783 104.085 228.05 89.2345 216.658C74.384 205.265 63.2455 189.725 57.2275 172.001C51.2096 154.278 50.5824 135.168 55.4255 117.089C60.2685 99.0091 70.3642 82.7717 84.4357 70.43C98.5073 58.0882 115.923 50.1965 134.48 47.7527C153.036 45.309 171.901 48.4231 188.688 56.7011C205.475 64.9792 219.43 78.0493 228.789 94.2588C241.307 115.999 244.692 141.817 238.201 166.049C231.71 190.282 215.872 210.951 194.163 223.522ZM100.886 61.9618C85.1365 71.0516 72.4366 84.6077 64.3921 100.916C56.3477 117.224 53.3201 135.551 55.6923 153.58C58.0645 171.609 65.7299 188.529 77.719 202.201C89.7082 215.873 105.483 225.682 123.047 230.389C140.612 235.095 159.177 234.487 176.396 228.641C193.615 222.796 208.714 211.975 219.783 197.548C230.851 183.12 237.393 165.735 238.58 147.589C239.768 129.444 235.547 111.354 226.453 95.6074C214.243 74.5164 194.166 59.1294 170.626 52.8219C147.086 46.5144 122.005 49.8014 100.886 61.9618Z" fill="black"/>
<path d="M185.49 208.502C222.457 187.16 235.123 139.89 213.78 102.924C192.437 65.957 145.168 53.2912 108.201 74.634C71.2347 95.9768 58.5689 143.246 79.9117 180.213C101.254 217.179 148.524 229.845 185.49 208.502Z" fill="white"/>
<path d="M186.165 209.67C172.695 217.447 157.223 221.055 141.703 220.037C126.183 219.02 111.314 213.424 98.9745 203.956C86.6354 194.488 77.381 181.573 72.3817 166.845C67.3823 152.118 66.8625 136.238 70.8879 121.215C74.9133 106.192 83.3032 92.7002 94.9966 82.4453C106.69 72.1905 121.162 65.6335 136.582 63.6034C152.002 61.5733 167.677 64.1614 181.627 71.0403C195.576 77.9192 207.172 88.7801 214.948 102.249C225.354 120.316 228.168 141.773 222.772 161.912C217.376 182.051 204.21 199.227 186.165 209.67ZM108.883 75.8136C95.8747 83.3237 85.3861 94.5225 78.7431 107.994C72.1002 121.465 69.6013 136.604 71.5625 151.495C73.5237 166.387 79.8568 180.363 89.7611 191.655C99.6653 202.947 112.696 211.048 127.204 214.934C141.713 218.821 157.048 218.317 171.271 213.487C185.493 208.658 197.964 199.719 207.106 187.801C216.249 175.884 221.651 161.523 222.631 146.535C223.611 131.547 220.125 116.605 212.612 103.598C202.525 86.176 185.939 73.4664 166.492 68.2577C147.046 63.0489 126.328 65.7663 108.883 75.8136Z" fill="black"/>
<path d="M175.538 191.264C202.984 175.418 212.388 140.323 196.542 112.877C180.696 85.4306 145.601 76.0268 118.155 91.8728C90.7086 107.719 81.3049 142.814 97.1509 170.26C112.997 197.706 148.092 207.11 175.538 191.264Z" fill="black"/>
<path d="M176.232 192.467C166.175 198.288 154.618 200.997 143.021 200.249C131.425 199.501 120.311 195.331 111.085 188.266C101.859 181.201 94.9353 171.558 91.1902 160.558C87.4451 149.557 87.0467 137.693 90.0453 126.466C93.0438 115.239 99.3047 105.154 108.036 97.4857C116.767 89.8176 127.577 84.9111 139.097 83.3871C150.617 81.863 162.33 83.7898 172.755 88.9237C183.18 94.0576 191.848 102.168 197.663 112.229C205.438 125.716 207.548 141.736 203.53 156.777C199.513 171.817 189.697 184.652 176.232 192.467ZM118.842 93.0638C109.231 98.5972 101.478 106.857 96.5637 116.799C91.6492 126.74 89.7943 137.916 91.2339 148.912C92.6735 159.909 97.3428 170.23 104.651 178.572C111.959 186.913 121.577 192.899 132.289 195.772C143 198.645 154.323 198.275 164.824 194.711C175.326 191.146 184.533 184.546 191.282 175.746C198.031 166.946 202.018 156.342 202.738 145.276C203.458 134.209 200.879 123.178 195.327 113.578C187.888 100.729 175.66 91.3529 161.321 87.5034C146.982 83.6539 131.702 85.645 118.829 93.0405L118.842 93.0638Z" fill="black"/>
<path d="M166.468 175.555C185.239 164.718 191.67 140.716 180.833 121.946C169.996 103.176 145.994 96.7443 127.224 107.581C108.453 118.419 102.022 142.42 112.859 161.191C123.696 179.961 147.698 186.392 166.468 175.555Z" fill="white"/>
<path d="M167.143 176.723C160.191 180.74 152.203 182.605 144.191 182.082C136.179 181.559 128.502 178.672 122.131 173.786C115.76 168.9 110.981 162.234 108.398 154.631C105.816 147.029 105.546 138.831 107.623 131.075C109.699 123.319 114.03 116.353 120.066 111.059C126.102 105.764 133.572 102.378 141.533 101.329C149.493 100.281 157.586 101.616 164.787 105.167C171.988 108.718 177.975 114.325 181.989 121.278C187.36 130.602 188.813 141.676 186.03 152.07C183.247 162.464 176.454 171.33 167.143 176.723ZM127.905 108.761C121.412 112.507 116.175 118.094 112.858 124.816C109.54 131.539 108.291 139.094 109.269 146.526C110.246 153.959 113.405 160.934 118.347 166.571C123.289 172.207 129.792 176.251 137.033 178.191C144.274 180.131 151.927 179.881 159.026 177.47C166.124 175.06 172.348 170.599 176.91 164.651C181.473 158.703 184.168 151.535 184.657 144.055C185.145 136.575 183.404 129.117 179.653 122.627C174.62 113.937 166.346 107.597 156.645 104.998C146.945 102.399 136.609 103.752 127.905 108.761Z" fill="black"/>
<path d="M157.716 160.395C168.114 154.392 171.676 141.096 165.673 130.698C159.67 120.3 146.374 116.738 135.976 122.741C125.578 128.744 122.016 142.04 128.019 152.438C134.022 162.836 147.318 166.399 157.716 160.395Z" fill="black"/>
<path d="M158.39 161.563C154.435 163.846 149.892 164.906 145.336 164.607C140.779 164.308 136.413 162.665 132.791 159.885C129.168 157.105 126.451 153.314 124.983 148.99C123.515 144.666 123.362 140.003 124.544 135.593C125.726 131.182 128.189 127.22 131.623 124.21C135.056 121.199 139.305 119.274 143.832 118.677C148.36 118.081 152.962 118.841 157.058 120.861C161.153 122.881 164.558 126.069 166.841 130.024C169.895 135.329 170.721 141.628 169.137 147.541C167.552 153.454 163.688 158.496 158.39 161.563ZM136.65 123.909C133.158 125.926 130.341 128.932 128.558 132.549C126.774 136.167 126.103 140.231 126.629 144.23C127.156 148.228 128.856 151.981 131.515 155.013C134.174 158.045 137.673 160.221 141.568 161.264C145.464 162.308 149.581 162.173 153.4 160.877C157.219 159.581 160.568 157.181 163.023 153.981C165.478 150.782 166.929 146.926 167.193 142.902C167.457 138.878 166.521 134.865 164.505 131.373C161.796 126.695 157.342 123.282 152.121 121.883C146.899 120.484 141.336 121.212 136.65 123.909Z" fill="black"/>
<path d="M40.736 126.059L27.1151 144.948L65.7439 150.116L80.6489 131.482L40.736 126.059Z" fill="white"/>
<path d="M66.4178 151.284C66.1576 151.433 65.8573 151.498 65.5588 151.468L26.9417 146.294C26.7117 146.262 26.4938 146.172 26.3091 146.031C26.1244 145.89 25.9791 145.705 25.8873 145.491C25.7955 145.278 25.7603 145.045 25.7851 144.814C25.81 144.583 25.8939 144.363 26.029 144.174L39.6498 125.284C39.7921 125.093 39.9827 124.942 40.2021 124.849C40.4215 124.755 40.6619 124.721 40.8987 124.75L80.8116 130.173C81.05 130.204 81.276 130.297 81.4661 130.444C81.6562 130.592 81.8034 130.787 81.8926 131.01C81.9818 131.234 82.0097 131.477 81.9734 131.714C81.9371 131.952 81.8379 132.176 81.6861 132.362L66.7811 150.996C66.6754 151.11 66.5528 151.207 66.4178 151.284ZM29.4704 143.931L65.1216 148.715L78.0654 132.537L41.401 127.481L29.4704 143.931Z" fill="black"/>
<path d="M39.6707 125.132L36.3757 104.563L73.1663 113.533L80.6482 131.482L39.6707 125.132Z" fill="white"/>
<path d="M81.3225 132.65C81.0557 132.805 80.7436 132.864 80.4384 132.817L39.4141 126.495C39.1309 126.452 38.8686 126.32 38.6653 126.118C38.462 125.917 38.3282 125.655 38.2833 125.372L34.9952 104.815C34.9598 104.594 34.9799 104.368 35.0537 104.157C35.1276 103.946 35.2527 103.756 35.418 103.606C35.5884 103.432 35.8029 103.307 36.0385 103.245C36.2742 103.183 36.5222 103.186 36.7563 103.253L73.5586 112.216C73.7636 112.266 73.954 112.364 74.1145 112.501C74.2749 112.639 74.4008 112.812 74.4821 113.007L81.9523 130.962C82.0446 131.184 82.0762 131.426 82.0437 131.664C82.0113 131.901 81.916 132.126 81.7677 132.315C81.6442 132.456 81.4926 132.57 81.3225 132.65ZM40.8964 123.91L78.5329 129.76L72.2632 114.693L38.0984 106.387L40.8964 123.91Z" fill="black"/>
<path d="M148.89 144.406C148.276 144.755 147.562 144.888 146.864 144.781L25.5366 126.705C25.1125 126.664 24.7014 126.536 24.3283 126.33C23.9551 126.125 23.6277 125.845 23.3659 125.509C23.1041 125.173 22.9134 124.787 22.8054 124.375C22.6974 123.963 22.6743 123.533 22.7376 123.112C22.8009 122.69 22.9493 122.286 23.1736 121.924C23.398 121.562 23.6937 121.249 24.0427 121.004C24.3917 120.76 24.7868 120.589 25.2039 120.502C25.6211 120.415 26.0515 120.414 26.4691 120.499L147.798 138.605C148.442 138.702 149.039 138.997 149.507 139.449C149.976 139.901 150.292 140.487 150.414 141.126C150.535 141.765 150.455 142.426 150.184 143.018C149.914 143.61 149.466 144.103 148.903 144.429L148.89 144.406Z" fill="white"/>
<path d="M149.564 145.574C148.687 146.077 147.664 146.266 146.665 146.111L25.338 128.035C24.1638 127.844 23.113 127.196 22.4163 126.232C21.7196 125.268 21.4338 124.067 21.6216 122.892C21.8007 121.719 22.4359 120.663 23.3891 119.955C24.3423 119.248 25.5364 118.945 26.7117 119.113L148.059 137.224C148.979 137.364 149.833 137.786 150.502 138.433C151.171 139.079 151.624 139.917 151.796 140.832C151.968 141.746 151.852 142.691 151.464 143.537C151.076 144.383 150.434 145.087 149.629 145.552L149.564 145.574ZM25.0921 122.026C24.7721 122.213 24.5182 122.495 24.3653 122.833C24.2124 123.171 24.1679 123.548 24.2382 123.912C24.3084 124.277 24.4898 124.61 24.7574 124.867C25.025 125.124 25.3657 125.291 25.7325 125.346L147.062 143.453C147.528 143.51 147.998 143.387 148.376 143.108C148.754 142.829 149.01 142.415 149.092 141.953C149.128 141.72 149.117 141.482 149.06 141.254C149.004 141.025 148.903 140.809 148.763 140.62C148.623 140.43 148.447 140.27 148.245 140.148C148.043 140.026 147.819 139.946 147.586 139.911L26.2435 121.781C25.8452 121.745 25.4459 121.839 25.1056 122.049L25.0921 122.026Z" fill="black"/>
</g>
</svg>
