<svg width="332" height="288" viewBox="0 0 332 288" fill="none" xmlns="http://www.w3.org/2000/svg">
<g opacity="0.4">
<path d="M322.552 143.95C322.562 179.224 308.943 213.238 284.349 239.365C259.755 265.492 225.948 281.859 189.516 285.279C153.083 288.698 116.634 278.925 87.2704 257.862C57.907 236.8 37.7327 205.958 30.6782 171.345C23.6238 136.732 30.1945 100.828 49.1102 70.6282C68.0258 40.4287 97.9314 18.097 133 7.98427C168.069 -2.12845 205.788 0.702231 238.81 15.9248C271.831 31.1473 297.788 57.6713 311.624 90.3286C314.814 97.7802 317.325 105.485 319.128 113.357C320.488 119.239 321.431 125.202 321.951 131.207C322.352 135.432 322.552 139.679 322.552 143.95Z" fill="white"/>
<path d="M174.87 288C147.485 288.029 120.62 280.79 97.2219 267.078C78.209 255.88 62 240.769 49.7552 222.829C38.364 206.017 30.7455 187.096 27.3883 167.279C24.0312 147.463 25.0097 127.189 30.2609 107.759C35.5121 88.3284 44.9202 70.1702 57.8816 54.4492C70.8429 38.7283 87.0713 25.7917 105.526 16.4694C123.98 7.14706 144.253 1.64492 165.043 0.315938C185.834 -1.01305 206.683 1.86046 226.253 8.75213C245.824 15.6438 263.683 26.4014 278.686 40.3349C293.689 54.2683 305.503 71.0699 313.372 89.6617C316.578 97.2359 319.095 105.064 320.895 113.059C322.27 119.016 323.225 125.056 323.754 131.137C324.155 135.332 324.373 139.65 324.373 143.95C324.325 182.143 308.558 218.759 280.53 245.764C252.503 272.769 214.504 287.958 174.87 288ZM174.87 3.39333C146.021 3.39333 117.821 11.6369 93.8339 27.0814C69.8472 42.526 51.1519 64.478 40.112 90.1614C29.0722 115.845 26.1836 144.106 31.8117 171.371C37.4398 198.637 51.3317 223.682 71.7307 243.339C92.1297 262.996 118.12 276.383 146.414 281.806C174.708 287.23 204.036 284.446 230.688 273.808C257.341 263.169 280.121 245.154 296.149 222.039C312.176 198.925 320.731 171.75 320.731 143.95C320.731 139.755 320.53 135.543 320.129 131.436C319.612 125.531 318.681 119.667 317.343 113.884C315.605 106.089 313.167 98.4539 310.057 91.0659C299.109 65.1819 280.409 43.0264 256.342 27.4244C232.274 11.8224 203.931 3.48094 174.924 3.46354L174.87 3.39333Z" fill="#032A47"/>
<path d="M197.164 260.794C194.687 263.181 194.05 266.745 192.884 269.939C191.718 273.133 189.241 276.468 185.762 276.521C182.556 276.521 180.025 273.73 179.096 270.764C178.455 267.74 178.017 264.68 177.784 261.602C177.22 258.407 175.853 255.283 176.2 252.071C177.019 244.19 187.602 237.749 184.25 230.517C183.157 228.148 180.607 226.252 180.717 223.654C180.947 222.457 181.288 221.282 181.737 220.144C183.139 214.088 175.271 210.473 170.808 206.102C164.214 199.573 164.633 189.235 165.635 180.178C166.692 170.471 168.531 159.659 176.655 153.85C185.234 147.671 197.274 149.567 207.619 152.34C208.784 152.516 209.844 153.089 210.607 153.955C212.137 156.149 209.332 159.379 210.716 161.678C212.537 164.627 216.963 161.818 220.46 161.432C228.42 160.537 232.045 173.719 240.023 173.174C241.935 173.034 243.921 172.086 245.687 172.806C247.454 173.526 248.11 175.614 249.567 176.825C253.92 180.494 262.736 175.07 265.796 179.757C266.199 180.459 266.487 181.217 266.652 182.003C268.2 188.094 268.856 196.045 263.21 199.134C261.079 200.31 258.274 200.591 256.853 202.522C254.576 205.593 257.709 209.929 256.725 213.597C256.117 215.269 255.031 216.741 253.592 217.844C250.413 220.625 246.791 222.894 242.864 224.567C241.381 225.066 239.996 225.802 238.766 226.743C236.726 228.499 236.216 231.482 234.668 233.764C233.523 235.232 232.146 236.517 230.588 237.573C224.697 241.634 219.087 246.061 213.794 250.825C208.749 255.529 201.918 256.319 197.164 260.794Z" fill="#1A340C"/>
<path d="M185.69 278.346C181.482 278.346 178.404 274.731 177.348 271.326C176.807 269.387 176.483 267.398 176.382 265.393C176.382 264.182 176.182 263.058 176 261.883C175.818 260.707 175.563 259.934 175.308 258.969C174.582 256.697 174.267 254.322 174.379 251.948C174.779 248.157 177.038 244.927 179.206 241.68C181.847 237.854 184.105 234.554 182.593 231.289C182.204 230.535 181.74 229.818 181.209 229.148C180.082 228.11 179.319 226.759 179.025 225.284C178.732 223.809 178.922 222.282 179.57 220.916C179.722 220.526 179.85 220.127 179.952 219.722C180.699 216.563 177.949 214.141 173.668 210.771C172.203 209.68 170.804 208.508 169.479 207.261C162.612 200.433 162.685 190.095 163.796 179.914C164.907 169.734 166.802 158.641 175.544 152.34C184.979 145.547 197.875 147.812 208.057 150.585C208.941 150.665 209.792 150.953 210.535 151.421C211.278 151.89 211.891 152.526 212.322 153.274C212.752 154.023 212.987 154.861 213.006 155.717C213.024 156.573 212.826 157.42 212.429 158.185C212.174 159.221 211.919 160.221 212.246 160.748C212.574 161.274 213.867 161.257 216.563 160.467C217.747 160.075 218.967 159.793 220.206 159.624C225.16 159.063 228.585 162.748 231.608 166.013C234.268 168.857 236.763 171.56 239.841 171.279C240.4 171.222 240.954 171.128 241.499 170.998C243.072 170.498 244.77 170.498 246.344 170.998C247.672 171.643 248.774 172.65 249.513 173.894C249.852 174.409 250.249 174.886 250.697 175.316C252.172 176.544 254.722 176.281 257.436 176C261.079 175.632 265.068 175.21 267.29 178.633C267.794 179.493 268.156 180.422 268.365 181.389C270.806 190.972 269.312 197.554 264.066 200.468C263.218 200.908 262.335 201.283 261.425 201.591C260.226 201.882 259.134 202.49 258.274 203.346C257.454 204.47 257.782 206.12 258.183 208.05C258.719 209.938 258.8 211.92 258.42 213.843C257.746 215.85 256.48 217.625 254.777 218.95C251.466 221.865 247.682 224.236 243.575 225.971L243.01 226.199C241.91 226.586 240.883 227.144 239.969 227.849C239.011 228.862 238.285 230.058 237.838 231.359C237.379 232.468 236.812 233.532 236.144 234.536C234.89 236.159 233.378 237.581 231.663 238.749L227.71 241.663C223.213 244.764 218.953 248.172 214.96 251.86C212.294 254.251 209.211 256.171 205.853 257.53C203.106 258.639 200.57 260.181 198.349 262.093C196.816 263.889 195.754 266.014 195.252 268.289C194.997 269.061 194.761 269.834 194.487 270.571C192.666 275.363 189.442 278.259 185.69 278.329V278.346ZM191.154 151.357C186.378 151.168 181.668 152.494 177.748 155.131C170.171 160.59 168.459 170.928 167.439 180.265C166.419 189.603 166.273 199.011 172.102 204.838C173.231 205.927 174.561 206.98 175.982 208.103C180.134 211.35 184.816 215.036 183.522 220.547C183.388 221.09 183.218 221.623 183.012 222.145C182.776 222.706 182.623 223.297 182.557 223.9C182.726 225.15 183.3 226.317 184.196 227.235C184.896 228.087 185.507 229.004 186.018 229.973C188.349 235.01 185.289 239.451 182.375 243.751C180.444 246.577 178.441 249.491 178.131 252.422C178.064 254.419 178.347 256.413 178.969 258.319C179.242 259.337 179.515 260.408 179.716 261.479C179.916 262.549 180.043 264.024 180.153 265.252C180.218 267.031 180.487 268.797 180.954 270.518C181.683 272.782 183.577 275.082 185.872 275.029C188.167 274.976 190.335 272.203 191.336 269.605C191.591 268.903 191.828 268.184 192.065 267.464C192.714 264.63 194.092 261.999 196.072 259.811C198.568 257.609 201.431 255.829 204.542 254.546C207.513 253.333 210.247 251.641 212.629 249.543C216.706 245.734 221.065 242.214 225.67 239.012L229.586 236.116C230.974 235.167 232.202 234.018 233.229 232.711C233.77 231.881 234.234 231.005 234.614 230.096C235.257 228.364 236.275 226.785 237.601 225.462C238.812 224.478 240.193 223.706 241.681 223.18L242.209 222.952C245.951 221.361 249.402 219.198 252.427 216.546C253.603 215.669 254.504 214.497 255.032 213.158C255.243 211.738 255.143 210.291 254.741 208.91C254.249 206.541 253.702 203.855 255.433 201.503C256.684 200.05 258.369 199.002 260.259 198.502C260.99 198.266 261.698 197.966 262.372 197.607C267.053 195.027 266.361 187.936 264.941 182.424C264.831 181.812 264.622 181.219 264.321 180.669C263.374 179.195 261.279 179.318 257.946 179.669C254.613 180.02 251.098 180.388 248.438 178.142C247.744 177.527 247.132 176.831 246.617 176.07C246.24 175.391 245.688 174.817 245.014 174.403C244.142 174.219 243.233 174.274 242.391 174.561C241.658 174.695 240.915 174.771 240.169 174.789C235.288 175.123 231.936 171.507 228.949 168.295C226.271 165.416 223.74 162.713 220.68 163.029C219.66 163.194 218.655 163.435 217.674 163.749C214.887 164.574 211.081 165.697 209.132 162.415C208.37 160.804 208.298 158.969 208.931 157.307C209.186 156.254 209.441 155.271 209.095 154.78C208.532 154.321 207.854 154.013 207.128 153.885C201.937 152.365 196.559 151.516 191.136 151.357H191.154Z" fill="#032A47"/>
<path d="M159.515 150.216C154.051 144.95 146.765 141.738 139.643 138.631C138.33 137.954 136.885 137.548 135.399 137.438C133.815 137.604 132.259 137.97 130.773 138.526C121.283 141.001 112.34 132.4 108.916 123.519C105.491 114.638 104.799 104.651 99.5171 96.6644C95.2368 90.1877 89.7725 82.2542 96.4571 75.1105C98.1015 73.6959 99.6584 72.1897 101.12 70.5996C106.402 63.4735 98.6428 52.2226 104.089 45.2369C105.91 42.8498 109.134 41.4105 110.245 38.6198C111.356 35.829 109.845 32.4766 109.207 29.3874C106.621 17.1887 123.597 23.8409 128.66 27.3513C132.922 30.2123 136.11 34.6003 140.882 36.5837C146.164 38.7777 152.375 37.514 157.421 34.8285C158.36 34.1756 159.486 33.8199 160.645 33.8105C163.122 34.0913 163.759 37.3209 163.176 39.6553C162.594 41.9898 161.446 44.5173 162.63 46.6762C163.978 49.0808 167.511 49.3265 169.624 51.1519C172.174 53.3459 172.065 57.1021 172.466 60.3668C172.866 63.6314 174.906 67.528 178.313 67.2647C180.535 67.1067 182.119 65.176 184.014 64.0351C185.908 62.8943 189.259 63.1049 189.478 65.2462C189.495 65.7735 189.402 66.2988 189.205 66.7908L180.261 94.2247C180.01 96.3779 178.94 98.3653 177.259 99.8041C175.577 101.243 173.403 102.031 171.154 102.018C162.144 103.714 153.225 105.803 144.397 108.284C141.355 108.899 138.523 110.246 136.164 112.198C133.997 114.339 133.123 117.99 135.09 120.307C137.968 119.623 140.226 122.905 140.554 125.766C141.01 130.084 140.554 132.295 143.96 135.56C146.918 138.103 150.221 140.246 153.778 141.931C158.172 144.09 162.074 147.074 165.253 150.707C167.821 153.989 170.098 159.483 168.04 163.485C166.218 162.256 165.89 159.448 164.961 157.552C163.604 154.82 161.761 152.337 159.515 150.216Z" fill="#1A340C"/>
<path d="M168.058 165.223C167.69 165.221 167.329 165.118 167.02 164.925C165.489 163.658 164.427 161.945 163.996 160.045C163.815 159.446 163.589 158.859 163.322 158.29C162.055 155.735 160.335 153.413 158.241 151.427C152.776 146.302 145.764 143.213 138.879 140.194C137.803 139.626 136.62 139.274 135.4 139.158C134.48 139.208 133.572 139.385 132.704 139.685C132.23 139.825 131.757 139.983 131.265 140.106C120.81 142.844 111.047 133.875 107.167 124.046C105.893 120.598 104.829 117.082 103.98 113.515C102.486 107.74 101.066 102.281 97.9327 97.5598L97.7323 97.2439C93.4338 90.7671 87.5687 81.9034 95.073 73.8821C95.7361 73.1924 96.4417 72.5418 97.1859 71.9338C98.0754 71.2129 98.8871 70.4073 99.6084 69.5292C101.812 66.5453 101.284 62.5083 100.701 58.1203C100.064 53.2584 99.4081 48.221 102.523 44.0787C103.382 43.0348 104.359 42.0869 105.437 41.2528C106.712 40.3704 107.759 39.2173 108.497 37.8828C108.939 35.9526 108.761 33.9386 107.987 32.1082C107.768 31.2657 107.532 30.353 107.35 29.6333C106.384 24.9118 108.115 22.6125 109.736 21.6647C115.091 18.2772 126.402 23.5954 129.771 25.807C131.511 27.0283 133.155 28.3718 134.689 29.8264C136.701 31.883 139.067 33.5874 141.684 34.8639C145.873 36.6191 151.319 36.0047 156.619 33.214C157.884 32.3705 159.399 31.9455 160.936 32.0029C161.573 32.0723 162.187 32.2747 162.734 32.5961C163.281 32.9174 163.749 33.3499 164.106 33.8634C164.672 34.7781 165.044 35.7923 165.201 36.8469C165.357 37.9015 165.294 38.9756 165.016 40.0066C164.907 40.4454 164.761 40.9018 164.634 41.3406C163.99 42.7138 163.874 44.2628 164.306 45.711C165.062 46.6841 166.111 47.4077 167.311 47.7822C168.628 48.259 169.857 48.9344 170.954 49.7831C173.613 52.0824 173.941 55.5226 174.215 58.5591C174.215 59.1091 174.269 59.6357 174.378 60.1388C174.652 62.3855 176.036 65.6502 178.276 65.4044C179.428 65.1456 180.477 64.5729 181.3 63.7545C181.882 63.2847 182.49 62.8453 183.121 62.4381C184.017 61.8984 185.035 61.5765 186.089 61.5001C187.142 61.4237 188.199 61.595 189.169 61.9993C189.771 62.265 190.291 62.6791 190.674 63.1999C191.058 63.7206 191.293 64.3297 191.354 64.9656C191.399 65.7294 191.281 66.4939 191.008 67.2123L182.083 94.6461C181.514 97.0677 180.252 99.2871 178.44 101.053C176.435 102.485 174.072 103.382 171.592 103.65C162.667 105.406 153.723 107.407 144.999 109.864C142.254 110.427 139.695 111.632 137.549 113.374C136.862 114.008 136.367 114.81 136.117 115.694C135.867 116.579 135.871 117.512 136.128 118.394C137.145 118.436 138.127 118.766 138.951 119.342C139.935 120.087 140.751 121.018 141.349 122.077C141.947 123.136 142.315 124.302 142.43 125.503C142.43 126.257 142.558 126.942 142.613 127.574C142.849 130.505 142.959 131.979 145.308 134.261C147.767 136.386 150.505 138.192 153.45 139.632L154.743 140.352C159.37 142.61 163.462 145.765 166.765 149.619C169.934 153.656 172.083 159.764 169.734 164.24C169.618 164.463 169.454 164.66 169.253 164.818C169.052 164.975 168.819 165.089 168.568 165.153C168.402 165.198 168.231 165.221 168.058 165.223ZM160.772 148.935C162.934 150.989 164.747 153.359 166.146 155.955C165.562 154.458 164.765 153.046 163.778 151.761C162.045 149.638 159.973 147.796 157.639 146.302C158.734 147.128 159.78 148.013 160.772 148.952V148.935ZM135.272 135.648C137.017 135.747 138.72 136.208 140.263 136.999C142.248 137.877 144.307 138.754 146.383 139.755C145.011 138.875 143.73 137.87 142.558 136.754C141.311 135.613 140.332 134.229 139.685 132.695C139.038 131.16 138.738 129.51 138.806 127.855C138.806 127.24 138.696 126.591 138.624 125.889C138.488 124.475 137.79 123.166 136.675 122.238C136.507 122.099 136.306 122.001 136.091 121.952C135.875 121.903 135.651 121.905 135.436 121.957C135.105 122.031 134.759 122.015 134.437 121.909C134.115 121.804 133.83 121.614 133.615 121.36C130.919 118.201 132.103 113.567 134.817 110.829C137.38 108.646 140.486 107.141 143.833 106.459C152.667 103.984 161.719 101.86 170.754 100.158C172.598 99.9982 174.37 99.3946 175.908 98.4023C177.186 97.0482 178.061 95.3866 178.44 93.593L187.365 66.1592C187.472 65.8886 187.54 65.6051 187.566 65.3167C187.566 65.3167 187.566 65.2114 187.402 65.1411C186.991 65.0067 186.555 64.9607 186.124 65.0062C185.693 65.0516 185.277 65.1876 184.906 65.4044C184.376 65.7461 183.865 66.1152 183.376 66.5102C182 67.7949 180.243 68.6353 178.349 68.9148C173.923 69.2308 171.063 64.913 170.553 60.4723L170.39 58.7171C170.153 56.1018 169.916 53.6446 168.313 52.2579C167.512 51.668 166.629 51.1894 165.69 50.8362C163.74 50.216 162.065 48.979 160.936 47.3258C159.607 44.9738 160.372 42.3937 160.936 40.305C161.046 39.9013 161.173 39.48 161.264 39.0763C161.582 37.9718 161.452 36.7919 160.9 35.7766C160.835 35.6739 160.747 35.5861 160.644 35.5194C160.54 35.4527 160.422 35.4087 160.299 35.3904C159.584 35.4741 158.902 35.7274 158.313 36.1276C151.884 39.5151 145.272 40.1821 140.099 38.0057C137.087 36.5768 134.362 34.6455 132.048 32.3013C130.643 30.964 129.139 29.7263 127.549 28.5978C123.906 26.1054 114.799 22.5599 111.666 24.5081C110.665 25.14 110.391 26.5968 110.865 28.8435C111.011 29.5982 111.229 30.3354 111.43 31.0902C112.447 33.63 112.588 36.4184 111.83 39.0412C110.916 40.9274 109.534 42.5673 107.805 43.8154C106.926 44.4902 106.126 45.2553 105.419 46.0972C103.124 49.0459 103.597 53.118 104.235 57.5411C104.854 62.3504 105.51 67.3352 102.413 71.4248C101.537 72.5189 100.542 73.5193 99.4445 74.4086C98.8006 74.9572 98.1923 75.5433 97.6231 76.1638C92.3773 81.7629 95.5648 87.6253 100.647 95.278L100.847 95.594C104.308 100.86 105.838 106.792 107.35 112.584C108.164 116.038 109.186 119.443 110.41 122.782C113.761 131.277 122.067 138.807 130.154 136.701L131.411 136.332C132.684 135.888 134.027 135.656 135.381 135.648H135.272Z" fill="#032A47"/>
<path d="M207.802 27.6145L199.369 26.4386C198.469 26.2278 197.525 26.2766 196.655 26.579C195.38 27.1757 194.943 28.6852 193.995 29.6857C192.68 30.7368 191.146 31.503 189.496 31.9324C187.93 32.5818 186.327 33.8631 186.491 35.4428C186.71 37.8298 189.988 38.3389 192.447 38.7601C195.932 39.3458 199.127 41.0021 201.554 43.4816C203.777 45.7809 205.944 49.0281 209.186 48.7472C210.776 48.2987 212.339 47.7655 213.867 47.15C216.818 46.5708 219.532 48.6243 222.301 49.7652C224.49 50.6293 226.87 50.9456 229.221 50.6847C231.571 50.4239 233.815 49.5943 235.743 48.2733C242.682 43.3938 231.189 36.1097 226.271 34.7933C223.284 34.0035 219.787 34.7933 217 33.319C213.121 31.2654 212.847 28.2991 207.802 27.6145Z" fill="#1A340C"/>
<path d="M227.509 52.5565C225.453 52.5649 223.415 52.177 221.517 51.4156C220.752 51.0997 220.005 50.7311 219.258 50.3625C217.767 49.3571 215.977 48.8458 214.158 48.9056C213.563 49.0572 212.988 49.2751 212.446 49.5551C211.461 50.0517 210.395 50.384 209.295 50.538C205.652 50.8715 203.229 48.1509 201.262 45.9569L200.151 44.7458C198.014 42.5571 195.205 41.0868 192.137 40.5509C189.386 40.0945 185.033 39.3398 184.669 35.6714C184.7 34.4897 185.113 33.3469 185.851 32.4027C186.589 31.4586 187.615 30.7604 188.785 30.4058L190.024 29.9319C190.993 29.6884 191.891 29.2319 192.647 28.5979C192.913 28.2911 193.151 27.9622 193.357 27.615C193.91 26.5524 194.779 25.6725 195.853 25.0875C197.05 24.6281 198.363 24.5242 199.623 24.7891L208.056 25.9651C210.732 26.3169 213.179 27.6112 214.923 29.5984C215.771 30.5098 216.753 31.2964 217.837 31.9328C219.281 32.5438 220.853 32.8203 222.427 32.7402C223.863 32.7401 225.294 32.9051 226.69 33.2317C230.678 34.3023 238.638 38.901 239.567 43.8682C239.776 45.0188 239.618 46.2034 239.114 47.2657C238.61 48.3281 237.784 49.2181 236.744 49.8184C234.039 51.6394 230.809 52.5971 227.509 52.5565ZM214.759 45.325C216.917 45.4815 219.004 46.1378 220.843 47.2382C221.498 47.5717 222.172 47.9052 222.846 48.1685C224.745 48.9272 226.813 49.2077 228.856 48.9835C230.899 48.7594 232.848 48.0379 234.522 46.8872C235.961 45.8691 236.015 45.0266 235.888 44.4123C235.323 41.4285 229.276 37.4968 225.615 36.5315C224.498 36.2833 223.355 36.1597 222.209 36.1628C220.037 36.2414 217.878 35.8012 215.925 34.8816C214.571 34.0853 213.344 33.1039 212.282 31.9679C211.102 30.5259 209.382 29.5871 207.492 29.3527L199.058 28.1767C198.81 28.0482 198.534 27.9771 198.252 27.9691C197.97 27.961 197.69 28.0162 197.434 28.1302C197.177 28.2442 196.952 28.414 196.776 28.6261C196.6 28.8382 196.477 29.087 196.417 29.3527C196.109 29.8956 195.736 30.4022 195.306 30.8621C194.173 31.9312 192.784 32.7149 191.263 33.1439L190.17 33.5476C189.022 34.0215 188.203 34.7938 188.348 35.3028C188.348 36.3208 191.099 36.7596 192.683 37.058C196.58 37.7018 200.154 39.55 202.865 42.3236L204.085 43.6576C205.998 45.7814 207.382 47.168 209.003 47.0276C209.684 46.8925 210.341 46.6619 210.952 46.343C211.753 45.9552 212.596 45.6549 213.466 45.4479C213.923 45.3677 214.386 45.3265 214.85 45.325H214.759Z" fill="#032A47"/>
<path d="M319.128 113.357C316.851 105.617 314.465 97.8587 311.696 90.2587C303.932 71.889 292.268 55.2865 277.453 41.5166C275.96 41.6921 274.94 42.8857 274.885 45.694C274.885 49.2922 278.619 52.8026 280.149 55.804C282.9 61.1749 280.532 61.3153 278.601 66.3352C277.29 69.6701 279.931 73.163 282.572 75.6553C285.213 78.1477 288.309 80.921 288.036 84.4314C287.745 89.8901 279.767 93.9973 281.898 99.0698C282.845 101.281 285.541 102.457 286.488 104.651C287.836 107.583 285.777 110.917 285.814 114.129C285.814 117.851 288.71 120.922 290.768 124.064C292.826 127.206 294.083 131.752 291.351 134.402C290.44 135.297 289.165 135.859 288.491 136.912C287.125 139.018 288.728 141.704 290.313 143.67L295.631 150.462C296.211 151.317 296.975 152.041 297.872 152.586C300.021 153.692 302.662 152.586 304.684 151.235C310.753 147.377 315.824 142.231 319.51 136.192C320.525 134.63 321.327 132.949 321.897 131.19L319.128 113.357Z" fill="#1A340C"/>
<path d="M299.821 154.885C298.86 154.889 297.914 154.66 297.071 154.218C295.939 153.561 294.97 152.674 294.229 151.62L288.911 144.81C286.142 141.299 285.504 138.403 287.089 136.034C287.656 135.229 288.38 134.537 289.22 133.998C289.558 133.76 289.88 133.502 290.186 133.226C292.116 131.365 291.151 127.784 289.366 125.064C288.965 124.432 288.51 123.8 288.073 123.186C286.251 120.606 284.175 117.692 284.138 114.199C284.165 112.805 284.373 111.419 284.758 110.074C285.408 108.933 285.597 107.6 285.288 106.333C284.978 105.065 284.192 103.953 283.082 103.211C281.93 102.27 280.999 101.103 280.35 99.7888C278.783 96.0502 281.188 92.9084 283.319 90.1352C284.858 88.526 285.91 86.5408 286.36 84.3957C286.506 81.7278 284.011 79.3582 281.588 77.094L281.37 76.8659C276.051 71.8635 276.033 68.0898 276.962 65.6852C277.438 64.4712 278.016 63.2971 278.692 62.1748C279.822 60.1738 280.131 59.6297 278.583 56.5932C278.039 55.6034 277.431 54.6478 276.762 53.7322C275.049 51.3627 273.119 48.6597 273.119 45.6759C273.21 40.9719 275.76 39.9714 277.272 39.7959C277.541 39.7624 277.816 39.7875 278.074 39.8695C278.333 39.9516 278.569 40.0883 278.765 40.2698C293.768 54.1918 305.56 71.003 313.372 89.6086C316.341 97.7528 318.837 105.95 320.877 112.9C320.886 112.97 320.886 113.041 320.877 113.111L323.7 130.961C323.763 131.209 323.763 131.468 323.7 131.716C323.092 133.621 322.222 135.439 321.114 137.122C317.295 143.388 312.036 148.726 305.741 152.726C304.032 153.992 301.972 154.744 299.821 154.885ZM277.108 43.7276C276.801 44.3761 276.663 45.0872 276.707 45.7987C276.707 47.6592 278.164 49.7479 279.621 51.784C280.427 52.8337 281.145 53.9429 281.77 55.1013C284.047 59.542 283.264 61.3498 281.77 63.8773C281.189 64.8519 280.684 65.8669 280.259 66.9138C279.293 69.3887 281.643 72.3374 283.902 74.3735L284.12 74.5841C286.834 77.1291 290.222 80.3236 289.967 84.5712C289.531 87.4205 288.232 90.0825 286.233 92.2239C284.175 94.9094 282.954 96.647 283.701 98.4724C284.164 99.3151 284.781 100.07 285.523 100.702C286.621 101.624 287.53 102.737 288.2 103.984C288.983 106.209 288.983 108.621 288.2 110.847C287.884 111.927 287.707 113.042 287.672 114.164C287.672 116.586 289.293 118.833 290.969 121.185C291.442 121.852 291.898 122.501 292.335 123.168C294.721 126.784 296.233 132.225 292.681 135.665C292.248 136.071 291.785 136.446 291.297 136.789C290.825 137.078 290.412 137.446 290.076 137.877C289.293 139.07 290.568 141.124 291.77 142.633L297.107 149.444C297.532 150.084 298.082 150.639 298.728 151.076C300.112 151.778 302.189 150.778 303.682 149.812C309.524 146.101 314.403 141.147 317.944 135.332C318.815 134.007 319.518 132.587 320.039 131.102L317.307 113.743C315.285 106.862 312.826 98.7708 309.93 90.9251C302.47 73.1867 291.297 57.12 277.108 43.7276Z" fill="#032A47"/>
<path d="M98.0967 265.586C79.2986 254.541 63.2842 239.606 51.2129 221.863C51.7509 221.344 52.3163 220.852 52.9068 220.389C56.1398 217.775 60.023 216.017 64.1746 215.288C68.3263 214.559 72.6034 214.883 76.5855 216.229C85.0006 219.389 90.3556 227.217 95.146 234.589C97.1131 237.625 99.1714 241.1 98.2789 244.576C97.5321 247.437 94.891 249.613 94.2535 252.527C93.9783 254.95 94.467 257.396 95.656 259.548C96.5303 261.531 97.4592 263.532 98.0967 265.586Z" fill="#1A340C"/>
<path d="M98.0961 267.341C97.7613 267.339 97.4335 267.247 97.1489 267.077C78.136 255.879 61.9271 240.769 49.6823 222.829C49.4507 222.49 49.3478 222.085 49.391 221.682C49.4341 221.279 49.6207 220.903 49.9191 220.617C50.5019 220.056 51.1212 219.529 51.7405 219.02C55.2209 216.203 59.4058 214.312 63.8793 213.536C68.3529 212.76 72.9592 213.126 77.2406 214.597C86.5664 218.107 92.4132 227.094 96.6754 233.658C98.9522 237.169 101.083 240.925 100.045 244.997C99.5576 246.556 98.8068 248.026 97.8229 249.35C97.0206 250.416 96.4053 251.602 96.0015 252.86C95.8432 254.918 96.2982 256.976 97.3129 258.793L97.8411 260.022C98.5515 261.636 99.28 263.304 99.8629 264.989C99.9827 265.329 99.991 265.697 99.8868 266.043C99.7825 266.388 99.5707 266.694 99.28 266.92C98.9501 267.191 98.5302 267.341 98.0961 267.341ZM53.653 222.179C64.4591 237.643 78.3237 250.902 94.4532 261.198L93.9979 260.197C92.747 258.257 92.1522 255.991 92.2958 253.711C92.4394 251.432 93.3142 249.252 94.7993 247.472C95.5792 246.462 96.1935 245.344 96.6207 244.155C97.3129 241.416 95.5643 238.38 93.7064 235.519C88.5153 227.55 83.6157 220.722 76.0203 217.862C72.3424 216.615 68.3901 216.317 64.5558 216.997C60.7215 217.678 57.1386 219.313 54.163 221.741L53.653 222.179Z" fill="#032A47"/>
<path d="M81.1017 224.164C80.675 224.159 80.2636 224.011 79.9391 223.744C79.6146 223.477 79.3976 223.109 79.3261 222.703C79.2545 222.298 79.3329 221.881 79.5476 221.526C79.7622 221.17 80.0995 220.899 80.5006 220.759L237.254 168.103C237.705 167.971 238.191 168.013 238.611 168.219C239.031 168.426 239.351 168.782 239.505 169.211C239.658 169.641 239.632 170.111 239.433 170.523C239.234 170.935 238.877 171.257 238.437 171.42L81.6845 224.076C81.4975 224.14 81.2999 224.169 81.1017 224.164Z" fill="#A6A6A6"/>
<path d="M81.1021 224.163C80.9386 224.18 80.7737 224.18 80.6103 224.163C80.3773 224.102 80.1593 223.998 79.9688 223.855C79.7782 223.712 79.6191 223.534 79.5004 223.332C79.3818 223.129 79.3061 222.906 79.2778 222.675C79.2494 222.444 79.2689 222.21 79.3353 221.987L122.285 74.0229C122.33 73.7829 122.426 73.5546 122.568 73.3525C122.71 73.1504 122.893 72.979 123.108 72.8492C123.322 72.7194 123.562 72.634 123.812 72.5985C124.063 72.563 124.318 72.5782 124.562 72.6431C124.806 72.708 125.033 72.8212 125.229 72.9754C125.425 73.1296 125.586 73.3215 125.7 73.5389C125.815 73.7562 125.882 73.9942 125.896 74.2377C125.91 74.4812 125.871 74.7249 125.782 74.9532L82.8506 222.882C82.7436 223.25 82.5149 223.574 82.1993 223.805C81.8838 224.036 81.4985 224.162 81.1021 224.163Z" fill="#A6A6A6"/>
<path d="M237.837 171.56C237.368 171.558 236.918 171.382 236.58 171.069C236.41 170.906 236.274 170.712 236.182 170.498C236.089 170.284 236.042 170.054 236.042 169.823C236.042 169.591 236.089 169.362 236.182 169.148C236.274 168.934 236.41 168.74 236.58 168.576L304.119 100.755C304.46 100.428 304.922 100.245 305.403 100.245C305.885 100.245 306.346 100.428 306.687 100.755C306.858 100.918 306.994 101.113 307.086 101.326C307.179 101.54 307.226 101.77 307.226 102.001C307.226 102.233 307.179 102.463 307.086 102.676C306.994 102.89 306.858 103.084 306.687 103.248L239.167 171.069C238.991 171.233 238.782 171.361 238.554 171.445C238.325 171.529 238.082 171.569 237.837 171.56Z" fill="#A6A6A6"/>
<path d="M194.632 224.163C194.225 224.16 193.829 224.031 193.503 223.795C193.314 223.651 193.157 223.473 193.041 223.271C192.924 223.069 192.85 222.846 192.823 222.616C192.796 222.386 192.816 222.153 192.883 221.931C192.949 221.708 193.061 221.501 193.211 221.32L236.452 168.664C236.601 168.483 236.784 168.332 236.993 168.219C237.202 168.107 237.432 168.035 237.67 168.008C237.907 167.981 238.148 168 238.378 168.063C238.609 168.125 238.824 168.231 239.011 168.374C239.199 168.517 239.356 168.694 239.473 168.896C239.589 169.097 239.664 169.318 239.692 169.547C239.72 169.776 239.7 170.008 239.635 170.23C239.57 170.452 239.46 170.659 239.312 170.84L196.071 223.496C195.9 223.706 195.681 223.874 195.431 223.99C195.182 224.106 194.909 224.165 194.632 224.163Z" fill="#A6A6A6"/>
<path d="M237.837 169.173C237.418 169.17 237.012 169.027 236.689 168.769L128.15 82.0973C127.812 81.7922 127.606 81.3743 127.576 80.9287C127.547 80.483 127.694 80.0431 127.989 79.6986C128.284 79.354 128.704 79.1307 129.163 79.0742C129.623 79.0177 130.088 79.1321 130.463 79.3943L235.087 162.942L220.515 90.0132L121.975 76.1647C121.565 76.11 121.185 75.922 120.901 75.6315C120.616 75.3411 120.442 74.9657 120.409 74.5674C120.392 74.178 120.509 73.7942 120.743 73.4764C120.978 73.1586 121.315 72.9249 121.702 72.8122L213.266 45.5714C213.509 45.4965 213.767 45.4718 214.021 45.499C214.275 45.5262 214.521 45.6047 214.741 45.7294C214.962 45.8562 215.152 46.0265 215.3 46.2291C215.447 46.4318 215.549 46.6623 215.597 46.9054L223.612 86.9416L302.589 98.0345C303.064 98.1039 303.491 98.3513 303.778 98.7228C304.064 99.0942 304.187 99.5597 304.119 100.018C304.051 100.479 303.797 100.895 303.411 101.175C303.025 101.454 302.539 101.575 302.061 101.51L224.322 90.5398L239.64 167.084C239.691 167.427 239.634 167.777 239.479 168.089C239.323 168.402 239.075 168.663 238.766 168.84C238.494 169.031 238.173 169.147 237.837 169.173ZM130.463 73.8127L219.714 86.3624L212.337 49.5031L130.463 73.8127Z" fill="#A6A6A6"/>
<path d="M237.837 179.124C243.178 179.124 247.509 174.951 247.509 169.804C247.509 164.657 243.178 160.484 237.837 160.484C232.495 160.484 228.165 164.657 228.165 169.804C228.165 174.951 232.495 179.124 237.837 179.124Z" fill="white"/>
<path d="M237.838 180.862C235.564 180.862 233.341 180.212 231.45 178.995C229.56 177.777 228.087 176.046 227.217 174.021C226.348 171.997 226.121 169.769 226.566 167.62C227.011 165.471 228.108 163.498 229.717 161.949C231.326 160.401 233.376 159.348 235.606 158.922C237.837 158.497 240.149 158.719 242.248 159.56C244.348 160.401 246.142 161.823 247.403 163.647C248.663 165.47 249.334 167.613 249.331 169.805C249.326 172.739 248.113 175.551 245.958 177.625C243.803 179.698 240.883 180.862 237.838 180.862ZM237.838 162.24C236.285 162.24 234.767 162.683 233.476 163.515C232.185 164.346 231.179 165.527 230.585 166.91C229.991 168.292 229.835 169.813 230.138 171.28C230.441 172.748 231.189 174.096 232.286 175.154C233.384 176.212 234.783 176.932 236.306 177.224C237.829 177.516 239.407 177.366 240.842 176.794C242.276 176.221 243.502 175.251 244.365 174.007C245.227 172.763 245.688 171.301 245.688 169.805C245.688 167.798 244.861 165.874 243.389 164.455C241.916 163.037 239.92 162.24 237.838 162.24Z" fill="#032A47"/>
<path d="M81.1025 231.728C86.4441 231.728 90.7743 227.555 90.7743 222.408C90.7743 217.261 86.4441 213.088 81.1025 213.088C75.7609 213.088 71.4307 217.261 71.4307 222.408C71.4307 227.555 75.7609 231.728 81.1025 231.728Z" fill="white"/>
<path d="M81.1026 233.483C78.8286 233.487 76.6047 232.84 74.7123 231.625C72.8198 230.41 71.3439 228.682 70.4712 226.658C69.5985 224.635 69.3683 222.408 69.8097 220.258C70.2511 218.108 71.3443 216.133 72.9509 214.583C74.5576 213.032 76.6054 211.975 78.8354 211.547C81.0654 211.118 83.3772 211.336 85.4784 212.174C87.5796 213.012 89.3757 214.431 90.6394 216.253C91.9031 218.075 92.5776 220.217 92.5776 222.408C92.5728 225.341 91.3629 228.152 89.2124 230.228C87.062 232.304 84.1461 233.474 81.1026 233.483ZM81.1026 214.86C79.5483 214.857 78.0281 215.298 76.7343 216.128C75.4405 216.958 74.4315 218.139 73.835 219.522C73.2386 220.905 73.0816 222.428 73.3839 223.897C73.6863 225.366 74.4343 226.716 75.5333 227.775C76.6323 228.834 78.0328 229.554 79.5573 229.846C81.0818 230.137 82.6618 229.986 84.097 229.411C85.5322 228.836 86.7581 227.864 87.6193 226.617C88.4805 225.371 88.9383 223.906 88.9347 222.408C88.9299 220.408 88.1032 218.491 86.6354 217.076C85.1677 215.662 83.1783 214.865 81.1026 214.86Z" fill="#032A47"/>
<path d="M197.037 231.728C202.379 231.728 206.709 227.555 206.709 222.408C206.709 217.261 202.379 213.088 197.037 213.088C191.695 213.088 187.365 217.261 187.365 222.408C187.365 227.555 191.695 231.728 197.037 231.728Z" fill="#DFDFDF"/>
<path d="M197.037 233.483C194.763 233.487 192.54 232.84 190.647 231.625C188.755 230.41 187.279 228.682 186.406 226.658C185.533 224.635 185.303 222.408 185.745 220.258C186.186 218.108 187.279 216.133 188.886 214.583C190.492 213.032 192.54 211.975 194.77 211.547C197 211.118 199.312 211.336 201.413 212.174C203.514 213.012 205.31 214.431 206.574 216.253C207.838 218.075 208.512 220.217 208.512 222.408C208.508 225.341 207.298 228.152 205.147 230.228C202.997 232.304 200.081 233.474 197.037 233.483ZM197.037 214.86C195.483 214.857 193.963 215.298 192.669 216.128C191.375 216.958 190.366 218.139 189.77 219.522C189.173 220.905 189.016 222.428 189.319 223.897C189.621 225.366 190.369 226.716 191.468 227.775C192.567 228.834 193.968 229.554 195.492 229.846C197.017 230.137 198.597 229.986 200.032 229.411C201.467 228.836 202.693 227.864 203.554 226.617C204.415 225.371 204.873 223.906 204.87 222.408C204.865 220.408 204.038 218.491 202.57 217.076C201.102 215.662 199.113 214.865 197.037 214.86Z" fill="#032A47"/>
<path d="M124.034 83.7467C129.376 83.7467 133.706 79.574 133.706 74.4266C133.706 69.2792 129.376 65.1064 124.034 65.1064C118.692 65.1064 114.362 69.2792 114.362 74.4266C114.362 79.574 118.692 83.7467 124.034 83.7467Z" fill="#DFDFDF"/>
<path d="M124.034 85.5018C121.76 85.5018 119.538 84.8522 117.648 83.6352C115.758 82.4183 114.285 80.6885 113.415 78.6648C112.545 76.641 112.318 74.4141 112.761 72.2657C113.205 70.1173 114.299 68.1439 115.907 66.595C117.514 65.0461 119.562 63.9912 121.791 63.5639C124.021 63.1365 126.332 63.3559 128.432 64.1941C130.532 65.0324 132.327 66.452 133.59 68.2733C134.853 70.0946 135.527 72.2359 135.527 74.4264C135.522 77.3624 134.31 80.1767 132.155 82.2527C130.001 84.3288 127.08 85.4971 124.034 85.5018ZM124.034 66.879C122.48 66.879 120.962 67.3232 119.67 68.1552C118.379 68.9872 117.373 70.1697 116.779 71.5531C116.185 72.9364 116.031 74.4584 116.335 75.9263C116.64 77.3942 117.389 78.7421 118.489 79.7994C119.589 80.8567 120.989 81.5758 122.513 81.8657C124.037 82.1556 125.616 82.0033 127.05 81.428C128.485 80.8527 129.709 79.8804 130.57 78.634C131.43 77.3877 131.888 75.9234 131.884 74.4264C131.879 72.4231 131.05 70.5035 129.578 69.0885C128.107 67.6736 126.112 66.879 124.034 66.879Z" fill="#032A47"/>
<path d="M216.362 54.5753C221.704 54.5753 226.034 50.4026 226.034 45.2552C226.034 40.1078 221.704 35.9351 216.362 35.9351C211.021 35.9351 206.69 40.1078 206.69 45.2552C206.69 50.4026 211.021 54.5753 216.362 54.5753Z" fill="white"/>
<path d="M216.362 56.3301C214.089 56.3301 211.867 55.6806 209.977 54.4636C208.087 53.2466 206.614 51.5169 205.744 49.4931C204.874 47.4694 204.647 45.2425 205.09 43.0941C205.533 40.9457 206.628 38.9723 208.235 37.4233C209.843 35.8744 211.891 34.8196 214.12 34.3923C216.35 33.9649 218.661 34.1842 220.761 35.0225C222.861 35.8608 224.656 37.2803 225.919 39.1017C227.182 40.923 227.856 43.0643 227.856 45.2548C227.851 48.1907 226.638 51.0051 224.484 53.0811C222.33 55.1571 219.409 56.3255 216.362 56.3301ZM216.362 37.7074C214.809 37.7074 213.29 38.1515 211.999 38.9836C210.708 39.8156 209.702 40.9981 209.108 42.3814C208.514 43.7648 208.36 45.2867 208.664 46.7547C208.969 48.2226 209.718 49.5705 210.818 50.6278C211.918 51.685 213.318 52.4041 214.842 52.6941C216.366 52.984 217.945 52.8316 219.379 52.2564C220.813 51.6811 222.038 50.7088 222.899 49.4624C223.759 48.2161 224.216 46.7517 224.213 45.2548C224.208 43.2515 223.379 41.3318 221.907 39.9169C220.435 38.502 218.441 37.7074 216.362 37.7074Z" fill="#032A47"/>
<path d="M305.376 111.286C310.718 111.286 315.048 107.113 315.048 101.965C315.048 96.818 310.718 92.6453 305.376 92.6453C300.035 92.6453 295.705 96.818 295.705 101.965C295.705 107.113 300.035 111.286 305.376 111.286Z" fill="#DFDFDF"/>
<path d="M305.376 113.041C303.103 113.041 300.881 112.391 298.991 111.174C297.101 109.957 295.628 108.227 294.758 106.204C293.888 104.18 293.66 101.953 294.104 99.8045C294.547 97.6561 295.642 95.6827 297.249 94.1338C298.857 92.5849 300.904 91.5301 303.134 91.1027C305.363 90.6754 307.674 90.8947 309.774 91.733C311.874 92.5712 313.67 93.9908 314.932 95.8121C316.195 97.6334 316.869 99.7748 316.869 101.965C316.865 104.901 315.652 107.716 313.498 109.792C311.343 111.868 308.423 113.036 305.376 113.041ZM305.376 94.4179C303.823 94.4179 302.304 94.862 301.013 95.694C299.721 96.526 298.715 97.7086 298.122 99.0919C297.528 100.475 297.373 101.997 297.678 103.465C297.982 104.933 298.732 106.281 299.832 107.338C300.931 108.395 302.332 109.115 303.856 109.405C305.38 109.694 306.959 109.542 308.393 108.967C309.827 108.392 311.052 107.419 311.912 106.173C312.773 104.927 313.23 103.462 313.226 101.965C313.222 99.9619 312.392 98.0423 310.921 96.6274C309.449 95.2125 307.455 94.4179 305.376 94.4179Z" fill="#032A47"/>
<path d="M314.21 250.561C308.708 250.347 303.252 249.493 297.963 248.016C272.335 241.662 200.079 204.75 133.469 164.012C95.5829 140.826 7.40708 84.2554 7.13387 59.665C6.98174 57.9119 7.32064 56.1516 8.1152 54.5678C8.90975 52.984 10.1308 51.6347 11.651 50.6608C23.4175 43.3416 55.3656 57.4534 56.6588 58.0502C56.8764 58.147 57.0722 58.2842 57.2348 58.4539C57.3975 58.6236 57.5239 58.8225 57.6067 59.0393C57.6896 59.256 57.7274 59.4864 57.7178 59.7173C57.7083 59.9481 57.6517 60.1748 57.5513 60.3846C57.4508 60.5944 57.3085 60.783 57.1324 60.9397C56.9563 61.0965 56.7498 61.2182 56.5249 61.2981C56.2999 61.378 56.0608 61.4144 55.8213 61.4052C55.5817 61.396 55.3464 61.3415 55.1288 61.2446C46.4223 57.3481 21.9968 48.4141 13.6182 53.6797C12.6284 54.3459 11.8424 55.2562 11.3426 56.3152C10.8427 57.3743 10.6473 58.5433 10.7767 59.7001C10.9589 75.4969 57.5513 113.48 135.418 161.116C201.773 201.696 273.556 238.345 298.874 244.699C316.469 249.069 319.492 246.454 320.002 245.453C322.297 241.241 309.238 227.515 299.693 219.564C299.513 219.412 299.365 219.227 299.258 219.02C299.152 218.813 299.089 218.588 299.073 218.357C299.057 218.126 299.088 217.895 299.165 217.676C299.242 217.457 299.362 217.255 299.52 217.081C299.678 216.907 299.87 216.764 300.085 216.662C300.3 216.559 300.534 216.498 300.773 216.483C301.012 216.467 301.253 216.497 301.48 216.571C301.707 216.645 301.917 216.762 302.098 216.914C306.414 220.424 327.725 238.854 323.244 247.086C321.933 249.385 319 250.561 314.21 250.561Z" fill="#032A47"/>
<path d="M11.2867 206.102C10.1648 206.175 9.0423 205.97 8.02634 205.505C2.56203 202.328 -0.206563 198.484 0.0120091 194.079C0.667727 181.161 27.6979 168.734 28.8454 168.207C29.0628 168.106 29.2987 168.048 29.5396 168.036C29.7805 168.024 30.0214 168.058 30.2485 168.137C30.4755 168.215 30.6842 168.336 30.8623 168.493C31.0404 168.65 31.1845 168.839 31.2861 169.05C31.4913 169.471 31.5145 169.954 31.3506 170.391C31.1866 170.829 30.8489 171.186 30.4118 171.384C23.126 174.701 4.11024 185.268 3.65489 194.202C3.50917 197.238 5.47632 199.941 9.8842 202.434C11.1228 203.136 21.4503 204.873 103.47 169.313C206.181 124.801 325.357 63.474 327.179 54.189C327.45 53.4124 327.483 52.5766 327.273 51.7825C327.063 50.9883 326.619 50.2697 325.995 49.7132C319.784 44.3423 295.777 49.8536 287.052 52.4338C286.596 52.5549 286.109 52.5001 285.694 52.2809C285.278 52.0617 284.968 51.6954 284.828 51.2596C284.689 50.8238 284.731 50.3527 284.945 49.9461C285.16 49.5395 285.53 49.2293 285.978 49.0813C289.384 48.0633 319.583 39.4452 328.417 47.0979C329.504 48.0624 330.296 49.2955 330.707 50.6632C331.118 52.0309 331.133 53.481 330.749 54.8559C328.199 67.862 193.157 134.297 104.89 172.455C53.5623 194.869 22.1243 206.102 11.2867 206.102Z" fill="#032A47"/>
</g>
</svg>
