<svg width="356" height="381" viewBox="0 0 356 381" fill="none" xmlns="http://www.w3.org/2000/svg">
<path opacity="0.18" d="M173.764 96.2896C157.173 100.369 145.034 113.199 129.341 119.45C110.992 126.764 87.3402 125.404 74.1494 139.421C59.6444 154.869 65.8529 180.292 75.2633 200.482C79.7921 210.209 84.9943 220.071 85.5998 230.455C85.9768 236.953 84.521 243.278 84.1078 249.721C82.7422 270.258 93.0849 292.503 111.646 304.405C130.207 316.308 156.396 315.987 171.319 302.073C178.611 295.27 183.317 285.662 192.412 281.197C204.325 275.332 219.458 280.138 233.095 278.951C259.172 276.689 277.028 248.13 267.533 223.872C259.2 202.617 234.283 186.076 235.433 164.022C235.744 158.045 238.073 152.466 238.744 146.543C242.228 115.743 202.367 89.2526 173.764 96.2896Z" fill="#BBBBBB"/>
<path d="M171.043 178.605C176.764 181.908 183.863 180.322 186.899 175.063C189.935 169.804 187.759 162.864 182.038 159.561C176.318 156.258 169.219 157.844 166.182 163.103C163.146 168.361 165.322 175.302 171.043 178.605Z" fill="#4C4C4C"/>
<path d="M170.021 261.382C170.021 261.382 162.538 272.998 160.363 274.83C158.189 276.661 158.572 278.299 155.593 277.388C152.613 276.476 161.06 263.981 161.06 263.981L164.829 259.5L170.021 261.382Z" fill="url(#paint0_linear_150_582)"/>
<path d="M140.522 248.984L127.709 285.224L132.91 288.226L145.095 270.123L132.628 294.486L138.335 297.781C138.335 297.781 158.212 274.685 160.061 269.391C160.721 267.674 161.061 265.84 161.067 263.968L140.522 248.984Z" fill="#25233A"/>
<path d="M173.569 200.032C174.816 197.382 176.517 194.781 179.23 193.496C180.328 192.984 181.544 192.706 182.798 192.682C184.052 192.658 185.316 192.887 186.509 193.355C189.929 194.739 192.259 197.854 194.407 200.806C197.54 205.165 200.693 209.559 202.889 214.362C205.085 219.166 206.281 224.49 205.303 229.444C204.773 231.825 203.908 234.105 202.731 236.223C201.716 238.246 200.436 240.124 198.919 241.813C196.484 244.337 193.332 246.129 189.796 246.998C186.261 247.867 182.475 247.781 178.842 246.749C170.622 244.305 163.8 237.114 155.361 236.639C154.775 236.666 154.181 236.546 153.636 236.292C153.301 236.057 153.04 235.737 152.887 235.372C152.734 235.006 152.696 234.614 152.776 234.244C152.954 233.508 153.337 232.844 153.886 232.322C155.471 230.632 157.573 229.461 159.933 228.955C162.962 228.313 166.218 228.812 169.317 228.471C169.819 228.458 170.291 228.293 170.668 227.999C171.439 227.264 170.859 225.955 170.129 225.097C169.398 224.238 168.469 223.312 168.586 222.264C168.678 221.414 169.411 220.834 170.027 220.245C172.65 217.627 172.055 214.51 171.527 211.142C170.908 207.243 171.968 203.428 173.569 200.032Z" fill="#4C4C4C"/>
<path d="M189.076 210.206C189.076 210.206 189.441 217.069 191.267 222.527C193.092 227.984 196.021 237.59 189.369 239.759C185.374 241.06 181.043 241.406 176.734 240.769L172.897 228.43L180.054 216.035L189.076 210.206Z" fill="#25233A"/>
<path d="M163.145 189.327L171.294 193.318C171.294 193.318 161.017 206.036 169.095 216.756C177.173 227.476 183.209 232.224 181.912 236.15C180.615 240.075 171.763 261.945 171.763 261.945L165.708 259.99L174.579 244.246L163.389 264.105C163.389 264.105 148.24 263.386 145.564 260.259C142.888 257.132 136.403 252.072 142.378 242.111C148.354 232.151 157.592 227.993 156.444 217.125C155.297 206.257 160.907 192.869 163.145 189.327Z" fill="#BBBBBB"/>
<path d="M163.145 189.327L171.294 193.318C171.294 193.318 161.017 206.036 169.095 216.756C177.173 227.476 183.209 232.224 181.912 236.15C180.615 240.075 171.763 261.945 171.763 261.945L165.708 259.99L174.579 244.246L163.389 264.105C163.389 264.105 148.24 263.386 145.564 260.259C142.888 257.132 136.403 252.072 142.378 242.111C148.354 232.151 157.592 227.993 156.444 217.125C155.297 206.257 160.907 192.869 163.145 189.327Z" fill="url(#paint1_linear_150_582)"/>
<path d="M170.856 219.077C170.856 219.077 168.752 223.411 171.719 224.988C174.687 226.566 175.463 225.231 175.463 225.231L181.499 219.048L173.274 214.889C173.274 214.889 172.405 218.484 170.856 219.077Z" fill="url(#paint2_linear_150_582)"/>
<path d="M172.536 217.001C172.536 217.001 170.933 218.932 172.08 220.404C173.228 221.875 176.08 222.506 177.015 222.232L175.474 225.214L179.876 220.702L172.536 217.001Z" fill="black"/>
<path d="M176.839 202.953C176.839 202.953 168.8 212.997 173.553 218.71C178.306 224.423 183.606 219.514 186.042 217.096C188.478 214.678 192.154 203.095 186.45 201.932C183.138 201.202 179.748 201.562 176.839 202.953Z" fill="#A39A9E"/>
<path d="M165.201 190.337C165.201 190.337 167.988 186.811 168.043 186.748C168.299 186.419 168.452 186.023 168.485 185.602C168.517 185.181 168.429 184.751 168.228 184.358C167.881 183.626 167.782 182.33 169.021 180.183C170.261 178.036 174.078 177.141 174.562 178.66C175.046 180.179 174.627 180.916 175.496 181.601C176.366 182.286 174.356 184.077 173.707 184.7C173.058 185.323 170.499 192.947 170.499 192.947L165.201 190.337Z" fill="#5E595B"/>
<path d="M174.569 244.263L169.042 261.064L165.708 259.989L174.569 244.263Z" fill="url(#paint3_linear_150_582)"/>
<path d="M132.628 294.486C132.628 294.486 124.195 305.967 120.662 317.214L122.208 318.106L138.335 297.781L132.628 294.486Z" fill="#25233A"/>
<path d="M127.709 285.224L116.372 312.022L117.764 312.235C117.764 312.235 130.116 295.757 130.929 293.948C131.743 292.139 132.915 288.218 132.915 288.218L127.709 285.224Z" fill="#25233A"/>
<path d="M117.759 312.244C117.759 312.244 117.83 313.713 117.313 314.43C116.954 314.919 110.437 317.13 106.234 317.926C101.693 318.786 99.3075 316.123 99.3075 316.123C98.2684 315.387 99.0394 312.739 100.268 312.546C102.925 312.162 105.656 312.17 108.369 312.572C114.531 313.52 116.397 312.012 116.397 312.012L117.759 312.244Z" fill="#25233A"/>
<path d="M120.663 317.214C119.858 317.909 119.219 318.762 118.783 319.723C118.227 321.132 120.63 330.983 120.63 330.983C120.63 330.983 123.887 336.818 127.102 335.275C130.318 333.731 125.384 326.373 124.426 324.876C123.467 323.378 122.206 318.111 122.206 318.111L120.663 317.214Z" fill="#25233A"/>
<path d="M172.509 147.129C172.047 149.453 172.371 151.91 173.435 154.155C174.499 156.399 176.249 158.317 178.438 159.636C181.207 161.235 184.882 162.065 189.625 160.523C202.267 156.419 196.788 133.157 226.414 125.961C256.04 118.765 276.682 87.6064 243.61 65.6498C218.349 48.8931 198.98 57.6847 190.552 65.3204L185.065 74.8249L199.636 92.0915C199.636 92.0915 218.015 76.5187 228.162 85.712C238.309 94.9054 217.225 106.213 206.045 108.683C181.409 114.132 174.426 136.992 172.509 147.129Z" fill="#4C4C4C"/>
<path d="M179.458 135.093C179.002 137.416 179.329 139.872 180.392 142.115C181.455 144.358 183.202 146.276 185.387 147.6C188.156 149.198 191.939 149.842 196.679 148.305C209.324 144.196 199.07 126.937 228.7 119.744C258.331 112.551 282.173 78.1278 249.094 56.1844C216.015 34.2411 190.559 65.3418 190.559 65.3418L205.131 82.6084C205.131 82.6084 223.482 67.0494 233.634 76.2339C243.786 85.4184 222.699 96.73 211.517 99.2046C186.888 104.64 181.375 124.955 179.458 135.093Z" fill="#BBBBBB"/>
<path d="M174.639 172.376C180.36 175.679 187.459 174.094 190.495 168.835C193.531 163.576 191.355 156.635 185.634 153.332C179.913 150.029 172.815 151.615 169.778 156.874C166.742 162.133 168.918 169.074 174.639 172.376Z" fill="#BBBBBB"/>
<path d="M136.264 143.457C138.462 142.027 138.902 139.07 137.246 136.852C135.59 134.635 132.466 133.996 130.268 135.426C128.069 136.857 127.63 139.814 129.286 142.031C130.942 144.249 134.066 144.887 136.264 143.457Z" fill="#4C4C4C"/>
<path d="M128.372 131.014C128.547 132.032 129.047 132.994 129.801 133.766C130.555 134.538 131.526 135.081 132.577 135.319C133.895 135.596 135.451 135.414 137.064 134.12C141.344 130.689 135.697 121.898 146.136 114.815C156.575 107.733 159.879 92.057 143.68 87.6859C131.31 84.3335 125.107 90.6392 122.984 94.95L122.294 99.6041L130.58 104.648C130.58 104.648 135.359 95.7024 140.704 98.0561C146.048 100.41 139.559 107.99 135.582 110.564C126.823 116.237 127.576 126.588 128.372 131.014Z" fill="#4C4C4C"/>
<path d="M129.253 125.107C129.425 126.124 129.923 127.087 130.677 127.859C131.431 128.631 132.402 129.173 133.454 129.409C134.776 129.688 136.344 129.419 137.952 128.122C142.237 124.694 135.645 119.029 146.08 111.944C156.514 104.858 160.567 87.4188 144.37 83.0317C128.173 78.6446 123.009 94.9638 123.009 94.9638L131.297 100.003C131.297 100.003 136.079 91.0649 141.418 93.4158C146.758 95.7667 140.274 103.35 136.299 105.919C127.535 111.59 128.452 120.678 129.253 125.107Z" fill="#BBBBBB"/>
<path d="M133.561 141.141C136.312 141.419 138.615 139.518 138.705 136.894C138.795 134.269 136.638 131.917 133.888 131.639C131.137 131.36 128.834 133.262 128.744 135.886C128.654 138.51 130.811 140.863 133.561 141.141Z" fill="#BBBBBB"/>
<path d="M91.4644 167.06C91.1966 167.948 90.654 168.72 89.905 169.279C89.156 169.839 88.2343 170.16 87.2563 170.203C86.2783 170.245 85.2878 170.008 84.4099 169.519C83.5321 169.031 82.8063 168.314 82.3241 167.459C81.842 166.604 81.6251 165.65 81.701 164.716C81.7769 163.782 82.142 162.911 82.7503 162.213C83.3587 161.514 84.1829 161.02 85.1189 160.793C86.0549 160.565 87.0607 160.614 88.0093 160.933C88.6412 161.145 89.2322 161.473 89.7482 161.896C90.2642 162.319 90.6951 162.83 91.0162 163.399C91.3373 163.968 91.5422 164.585 91.6191 165.213C91.696 165.841 91.6434 166.469 91.4644 167.06Z" fill="#4C4C4C"/>
<path d="M82.9242 156.54C82.9571 157.561 83.3241 158.569 83.9732 159.423C84.6223 160.276 85.5207 160.932 86.5413 161.296C87.8225 161.735 89.4024 161.767 91.1939 160.689C95.962 157.846 91.5062 148.515 102.923 142.876C114.339 137.237 119.794 122.284 104.185 115.934C92.2634 111.082 85.192 116.49 82.4794 120.455L81.1678 124.951L88.7503 130.946C88.7503 130.946 94.7561 122.768 99.7864 125.754C104.817 128.741 97.277 135.361 92.95 137.384C83.3986 141.839 82.7343 152.098 82.9242 156.54Z" fill="#4C4C4C"/>
<path d="M84.6159 150.852C84.6496 151.873 85.0168 152.881 85.6658 153.735C86.3148 154.588 87.2127 155.244 88.2329 155.609C89.5142 156.047 91.1211 155.978 92.9097 154.915C97.6778 152.072 91.8446 145.694 103.261 140.055C114.677 134.417 121.125 117.799 105.516 111.449C89.9069 105.1 82.4797 120.455 82.4797 120.455L90.0673 126.441C90.0673 126.441 96.0732 118.263 101.103 121.25C106.134 124.237 98.5941 130.856 94.267 132.88C84.7346 137.357 84.4211 146.408 84.6159 150.852Z" fill="#BBBBBB"/>
<path d="M85.5268 166.729C88.0469 167.962 90.9862 167.071 92.0918 164.738C93.1974 162.405 92.0506 159.514 89.5305 158.281C87.0103 157.048 84.071 157.939 82.9654 160.272C81.8598 162.605 83.0066 165.496 85.5268 166.729Z" fill="#BBBBBB"/>
<path d="M237.862 211.039C237.218 211.707 236.367 212.161 235.417 212.345C234.467 212.53 233.461 212.435 232.526 212.073C231.59 211.712 230.768 211.099 230.162 210.314C229.556 209.528 229.195 208.605 229.123 207.66C229.051 206.715 229.272 205.792 229.758 205.006C230.244 204.22 230.973 203.608 231.854 203.246C232.734 202.884 233.726 202.789 234.704 202.972C235.682 203.156 236.602 203.611 237.348 204.278C238.348 205.175 238.963 206.391 239.06 207.658C239.156 208.926 238.726 210.142 237.862 211.039Z" fill="#4C4C4C"/>
<path d="M234.574 198.35C234.149 199.253 234.04 200.282 234.264 201.292C234.487 202.301 235.031 203.242 235.819 203.98C236.817 204.887 238.292 205.556 240.44 205.361C246.168 204.838 246.173 194.865 259.367 194.632C272.561 194.4 284.361 183.593 272.588 171.632C263.608 162.498 254.573 164.312 250.265 166.658L247.032 170.033L251.466 178.39C251.466 178.39 260.747 173.714 264.107 178.393C267.467 183.071 257.468 185.745 252.511 185.734C241.59 185.709 236.395 194.396 234.574 198.35Z" fill="#4C4C4C"/>
<path d="M238.697 194.079C238.271 194.981 238.162 196.01 238.385 197.02C238.608 198.03 239.153 198.971 239.941 199.708C240.942 200.622 242.483 201.223 244.63 201.028C250.358 200.505 247.754 192.538 260.953 192.308C274.152 192.078 287.593 180.23 275.872 168.281C264.151 156.331 250.298 166.678 250.298 166.678L254.733 175.035C254.733 175.035 264.013 170.359 267.376 175.033C270.739 179.707 260.724 182.407 255.782 182.381C244.837 182.343 240.501 190.121 238.697 194.079Z" fill="#BBBBBB"/>
<path d="M239.442 209.297C241.54 207.739 241.796 204.75 240.014 202.62C238.233 200.489 235.088 200.025 232.991 201.582C230.893 203.14 230.637 206.129 232.418 208.259C234.2 210.389 237.345 210.854 239.442 209.297Z" fill="#BBBBBB"/>
<path d="M239.312 260.14C238.659 260.41 237.922 260.482 237.196 260.346C236.469 260.21 235.786 259.874 235.231 259.378C234.676 258.883 234.275 258.252 234.079 257.564C233.883 256.875 233.9 256.162 234.128 255.513C234.357 254.864 234.786 254.309 235.363 253.917C235.939 253.526 236.636 253.316 237.366 253.314C238.096 253.312 238.825 253.518 239.463 253.906C240.101 254.295 240.617 254.847 240.948 255.495C241.168 255.926 241.3 256.387 241.336 256.854C241.373 257.32 241.314 257.783 241.162 258.214C241.01 258.645 240.769 259.038 240.451 259.368C240.134 259.699 239.747 259.961 239.312 260.14Z" fill="#4C4C4C"/>
<path d="M240.733 250.785C240.166 251.273 239.787 251.932 239.649 252.668C239.511 253.404 239.621 254.18 239.964 254.886C240.247 255.426 240.654 255.905 241.151 256.283C241.648 256.661 242.223 256.929 242.828 257.065C247.041 258.275 249.991 251.62 259.403 255.048C268.815 258.475 280.365 254.472 275.568 243.297C271.908 234.768 264.974 233.521 261.228 233.914L257.932 235.275L258.6 242.059C258.6 242.059 266.55 241.467 267.538 245.484C268.525 249.501 260.657 248.594 257.154 247.233C249.445 244.258 243.189 248.632 240.733 250.785Z" fill="#4C4C4C"/>
<path d="M244.918 249.052C244.35 249.541 243.97 250.2 243.832 250.937C243.693 251.673 243.804 252.45 244.147 253.157C244.584 254.035 245.496 254.857 247.073 255.307C251.286 256.517 251.781 250.488 261.215 253.933C270.648 257.379 283.666 253.114 278.869 241.939C274.072 230.764 261.233 233.917 261.233 233.917L261.903 240.696C261.903 240.696 269.854 240.104 270.839 244.126C271.824 248.147 263.958 247.236 260.455 245.874C252.742 242.897 247.372 246.903 244.918 249.052Z" fill="#BBBBBB"/>
<path d="M241.526 259.216C243.341 258.436 244.043 256.343 243.095 254.541C242.147 252.74 239.908 251.912 238.093 252.692C236.278 253.471 235.575 255.564 236.523 257.366C237.472 259.168 239.711 259.996 241.526 259.216Z" fill="#BBBBBB"/>
<path d="M106.925 290.317C106.864 290.282 106.813 290.232 106.777 290.173C106.748 290.129 106.728 290.08 106.719 290.03C106.71 289.979 106.712 289.929 106.724 289.88C106.736 289.832 106.759 289.788 106.79 289.749C106.822 289.711 106.862 289.68 106.907 289.658C114.099 285.63 120.801 280.894 126.915 275.522C136.508 267.16 148.862 253.545 153.238 236.157C161.652 202.678 169.948 183.928 170.021 183.734C170.061 183.646 170.138 183.579 170.234 183.548C170.33 183.517 170.438 183.525 170.533 183.57C170.628 183.614 170.702 183.692 170.741 183.785C170.78 183.878 170.78 183.98 170.741 184.067C170.638 184.244 162.397 202.966 153.988 236.371C149.568 253.935 137.113 267.668 127.438 276.095C121.285 281.495 114.544 286.257 107.314 290.312C107.257 290.345 107.192 290.363 107.124 290.364C107.056 290.365 106.987 290.349 106.925 290.317Z" fill="white"/>
<defs>
<linearGradient id="paint0_linear_150_582" x1="158.997" y1="267.188" x2="164.751" y2="270.51" gradientUnits="userSpaceOnUse">
<stop stop-color="#D7D7D7"/>
<stop offset="0.42" stop-color="#CDCDCD"/>
<stop offset="1" stop-color="#F8F8F8"/>
</linearGradient>
<linearGradient id="paint1_linear_150_582" x1="139.662" y1="222.127" x2="270.788" y2="243.895" gradientUnits="userSpaceOnUse">
<stop stop-color="white" stop-opacity="0"/>
<stop offset="0.99" stop-color="white"/>
</linearGradient>
<linearGradient id="paint2_linear_150_582" x1="183.566" y1="213.176" x2="174.904" y2="220.483" gradientUnits="userSpaceOnUse">
<stop stop-color="#EAEAEA"/>
<stop offset="0.258582" stop-color="#BABABA"/>
<stop offset="0.42" stop-color="#A1A1A1"/>
<stop offset="1" stop-color="#E1E1E1"/>
</linearGradient>
<linearGradient id="paint3_linear_150_582" x1="176.244" y1="253.417" x2="141.395" y2="249.579" gradientUnits="userSpaceOnUse">
<stop stop-opacity="0"/>
<stop offset="1"/>
</linearGradient>
</defs>
</svg>
