<svg width="350" height="343" viewBox="0 0 350 343" fill="none" xmlns="http://www.w3.org/2000/svg">
<path opacity="0.18" d="M325.019 200.586C322.858 204.501 320.186 208.476 317.436 212.687C306.969 228.803 290.153 239.603 274.189 249.645L197.755 297.754C184.877 305.852 171.459 314.152 156.367 316.004C147.616 316.988 138.755 315.931 130.48 312.917C117.359 308.304 105.335 299.527 95.8663 289.201C80.3786 272.306 70.1348 251.411 58.353 231.757C51.4926 220.309 43.9945 209.096 39.402 196.559C34.8095 184.022 33.3787 169.712 38.7761 157.502C46.0372 141.091 62.9947 132.502 76.5552 122.101C90.8565 111.132 99.7592 95.9185 109.608 81.131C119.933 65.6488 134.179 52.3245 151.201 44.5377C168.417 36.6764 184.534 37.2759 201.547 45.6331C213.286 51.4016 223.382 60.0342 230.903 70.7339C239.739 83.319 244.744 98.3957 254.322 110.442C273.103 134.036 306.572 142.686 323.96 167.327C333.044 180.189 330.779 190.178 325.019 200.586Z" fill="#BDBDBD"/>
<path opacity="0.41" d="M325.019 200.586C322.858 204.501 320.186 208.476 317.436 212.687C306.969 228.803 290.153 239.603 274.189 249.645L197.755 297.754C184.877 305.852 171.459 314.152 156.368 316.004C147.616 316.988 138.755 315.931 130.48 312.917L325.019 200.586Z" fill="#BDBDBD"/>
<path d="M135.699 110.468C137.041 113.023 138.814 115.302 140.376 117.753C140.998 118.633 141.448 119.624 141.701 120.673C142.077 122.754 141.019 124.802 139.999 126.659C139.352 127.836 138.716 129.352 139.525 130.433C139.873 130.815 140.336 131.075 140.843 131.172C141.351 131.269 141.877 131.2 142.342 130.973C143.261 130.496 144.053 129.806 144.652 128.962C146.006 127.456 147.014 125.672 147.603 123.735C148.604 119.686 146.361 115.609 144.089 112.109C142.18 109.172 139.999 105.995 136.906 104.185C131.94 101.304 134.539 108.256 135.699 110.468Z" fill="#BDBDBD"/>
<path d="M135.699 110.468C137.041 113.023 138.814 115.302 140.376 117.753C140.998 118.633 141.448 119.624 141.701 120.673C142.077 122.754 141.019 124.802 139.999 126.659C139.352 127.836 138.716 129.352 139.525 130.433C139.873 130.815 140.336 131.075 140.843 131.172C141.351 131.269 141.877 131.2 142.342 130.973C143.261 130.496 144.053 129.806 144.652 128.962C146.006 127.456 147.014 125.672 147.603 123.735C148.604 119.686 146.361 115.609 144.089 112.109C142.18 109.172 139.999 105.995 136.906 104.185C131.94 101.304 134.539 108.256 135.699 110.468Z" fill="url(#paint0_linear_150_654)"/>
<path d="M136.962 129.709C135.588 129.972 134.06 130.132 133.139 131.18C133.044 131.267 132.971 131.377 132.927 131.498C132.883 131.62 132.869 131.75 132.887 131.878C132.95 132.044 133.061 132.188 133.206 132.291L136.801 135.455C136.974 135.616 137.169 135.751 137.38 135.857C137.817 136.006 138.29 136.004 138.726 135.854C140.396 135.42 141.884 134.466 142.975 133.128C144.104 131.74 143.203 129.887 141.714 129.081C140.224 128.276 138.554 129.402 136.962 129.709Z" fill="url(#paint1_linear_150_654)"/>
<path d="M130.165 124.164C130.595 124.041 130.579 124.345 130.837 124.704C132.495 126.975 133.847 129.828 135.73 131.902C137.613 133.976 140.406 135.164 142.097 137.416C139.552 135.701 137.199 134.038 135.095 131.76C134.617 131.174 129.595 124.493 130.165 124.164Z" fill="#3E3E54"/>
<path d="M153.251 141.087C153.251 141.087 149.843 160.534 163.649 167.546C177.454 174.557 195.261 175.418 205.11 181.066C214.959 186.714 211.317 201.109 209.201 204.63C207.085 208.15 190.802 245.415 220.752 256.738L280.018 222.521C280.018 222.521 287.999 191.988 242.427 186.986C242.427 186.986 212.826 188.52 224.66 159.595C236.494 130.669 231.228 112.677 213.971 106.222L153.251 141.087Z" fill="#BDBDBD"/>
<path d="M153.251 141.087C153.251 141.087 149.843 160.534 163.649 167.546C177.454 174.557 195.261 175.418 205.11 181.066C214.959 186.714 211.317 201.109 209.201 204.63C207.085 208.15 190.802 245.415 220.752 256.738L280.018 222.521C280.018 222.521 287.999 191.988 242.427 186.986C242.427 186.986 212.826 188.52 224.66 159.595C236.494 130.669 231.228 112.677 213.971 106.222L153.251 141.087Z" fill="url(#paint2_linear_150_654)"/>
<path d="M214.15 98.771L145.549 138.378C143.998 139.273 143.467 141.256 144.362 142.807L144.365 142.812C145.26 144.363 147.243 144.894 148.794 143.999L217.395 104.392C218.946 103.497 219.477 101.514 218.582 99.9632L218.579 99.9576C217.683 98.407 215.701 97.8757 214.15 98.771Z" fill="#BDBDBD"/>
<path d="M284.33 220.326L215.729 259.933C214.178 260.829 213.647 262.811 214.542 264.362L214.545 264.368C215.44 265.918 217.423 266.45 218.974 265.554L287.575 225.947C289.126 225.052 289.657 223.069 288.762 221.519L288.759 221.513C287.863 219.963 285.88 219.431 284.33 220.326Z" fill="#BDBDBD"/>
<path d="M214.15 98.771L145.549 138.378C143.998 139.273 143.467 141.256 144.362 142.807L144.365 142.812C145.26 144.363 147.243 144.894 148.794 143.999L217.395 104.392C218.946 103.497 219.477 101.514 218.582 99.9632L218.579 99.9576C217.683 98.407 215.701 97.8757 214.15 98.771Z" fill="url(#paint3_linear_150_654)"/>
<path d="M284.33 220.326L215.729 259.933C214.178 260.829 213.647 262.811 214.542 264.362L214.545 264.368C215.44 265.918 217.423 266.45 218.974 265.554L287.575 225.947C289.126 225.052 289.657 223.069 288.762 221.519L288.759 221.513C287.863 219.963 285.88 219.431 284.33 220.326Z" fill="url(#paint4_linear_150_654)"/>
<path d="M257.782 195.557C244.644 195.994 210.902 214.289 207.247 222.523C208.634 211.331 214.071 202.075 214.071 202.075C219.158 192.506 230.707 191.601 230.707 191.601C230.707 191.601 245.621 190.846 257.782 195.557Z" fill="url(#paint5_linear_150_654)"/>
<path d="M274.557 225.099L224.892 253.774L221.978 253.156C210.704 246.725 207.148 237.348 206.935 228.377C206.9 226.431 207.008 224.484 207.257 222.554C210.896 214.292 244.638 195.998 257.792 195.588C259.552 196.264 261.255 197.079 262.885 198.028C263.962 198.654 264.993 199.357 265.97 200.13C278.144 209.778 274.557 225.099 274.557 225.099Z" fill="#BDBDBD"/>
<path d="M262.885 197.99C265.499 207.992 234.25 208.473 222.663 213.843C215.017 217.396 209.89 226.258 209.89 226.258C209.89 226.258 207.929 228.592 206.917 228.373C206.883 226.426 206.99 224.48 207.24 222.549C210.878 214.287 244.621 195.993 257.774 195.584C259.54 196.247 261.249 197.052 262.885 197.99Z" fill="url(#paint6_linear_150_654)"/>
<path d="M176.5 169.536C176.5 169.536 201.247 173.112 203.844 175.069C206.44 177.026 216.163 173.431 217.596 169.531C219.029 165.631 223.512 157.184 224.724 143.227C225.936 129.27 206.817 148.96 199.968 154.838C193.118 160.716 174.538 158.952 176.5 169.536Z" fill="#BDBDBD"/>
<path d="M176.5 169.536C176.5 169.536 185.584 170.054 190.687 165.376C195.79 160.698 197.471 154.739 205.933 150.811C214.395 146.883 224.44 145.697 224.845 140.475C225.249 135.252 220.75 133.804 213.281 139.465C205.812 145.125 192.544 152.97 185.895 156.234C179.246 159.498 168.124 167.268 176.5 169.536Z" fill="#BDBDBD"/>
<path d="M176.5 169.536C176.5 169.536 185.584 170.054 190.687 165.376C195.79 160.698 197.471 154.739 205.933 150.811C214.395 146.883 224.44 145.697 224.845 140.475C225.249 135.252 220.75 133.804 213.281 139.465C205.812 145.125 192.544 152.97 185.895 156.234C179.246 159.498 168.124 167.268 176.5 169.536Z" fill="url(#paint7_linear_150_654)"/>
<path d="M213.155 178.087C212.865 178.664 212.728 179.307 212.758 179.952C212.753 180.158 212.792 180.363 212.872 180.553C212.951 180.743 213.069 180.915 213.219 181.057C213.405 181.199 213.631 181.282 213.865 181.294C214.1 181.306 214.332 181.246 214.532 181.124C214.86 180.89 215.114 180.567 215.263 180.193C215.608 179.515 215.951 178.705 215.546 178.195C215.141 177.685 214.049 177.784 213.18 177.991" fill="#BDBDBD"/>
<path d="M219.19 181.419C219.031 181.574 218.905 181.759 218.82 181.964C218.781 182.075 218.778 182.173 218.88 182.209C219.06 182.231 219.241 182.186 219.39 182.084C219.533 181.99 219.665 181.879 219.782 181.755C219.992 181.531 220.236 181.264 220.111 181.189C219.987 181.114 219.569 181.244 219.206 181.395" fill="#BDBDBD"/>
<path d="M217.152 184.755C216.993 184.91 216.867 185.096 216.781 185.3C216.742 185.411 216.748 185.511 216.842 185.546C217.021 185.567 217.202 185.523 217.352 185.421C217.497 185.329 217.628 185.218 217.744 185.091C217.956 184.873 218.201 184.606 218.078 184.522C217.956 184.438 217.53 184.581 217.167 184.731" fill="#BDBDBD"/>
<path d="M226.233 189.571C225.935 189.607 225.646 189.701 225.384 189.848C225.24 189.931 225.132 190.037 225.159 190.161C225.213 190.246 225.286 190.317 225.372 190.369C225.458 190.42 225.555 190.451 225.655 190.458C225.862 190.484 226.072 190.477 226.277 190.438C226.662 190.377 227.086 190.295 227.118 190.107C227.149 189.919 226.679 189.704 226.261 189.555" fill="#BDBDBD"/>
<path d="M223.13 204.465C222.834 204.501 222.547 204.594 222.286 204.739C222.137 204.825 222.032 204.937 222.062 205.053C222.091 205.168 222.283 205.308 222.551 205.352C222.76 205.379 222.972 205.371 223.179 205.329C223.559 205.272 223.988 205.186 224.014 205.001C224.04 204.817 223.575 204.599 223.163 204.446" fill="#BDBDBD"/>
<path d="M134.924 106.317C133.991 104.896 133.537 103.215 133.626 101.517C133.721 99.8308 134.203 98.1887 135.034 96.7179C135.435 95.8244 136.127 95.0927 136.996 94.6415C137.749 94.3247 138.656 90.2788 139.468 90.3701C141.757 90.633 143.973 95.2121 146.178 95.8918C147.669 97.6507 149.038 99.5098 150.275 101.456L159.786 116.053C161.358 118.47 162.991 121.145 162.641 123.985C158.095 124.79 153.497 125.272 148.883 125.429C148.392 125.518 147.886 125.434 147.451 125.19C147.015 124.947 146.679 124.559 146.499 124.094C144.186 120.432 142.016 116.674 140.002 112.841C138.906 110.79 136.251 108.233 134.924 106.317Z" fill="#BDBDBD"/>
<path d="M134.924 106.317C133.991 104.896 133.537 103.215 133.626 101.517C133.721 99.8308 134.203 98.1887 135.034 96.7179C135.435 95.8244 136.127 95.0927 136.996 94.6415C137.749 94.3247 138.656 90.2788 139.468 90.3701C141.757 90.633 143.973 95.2121 146.178 95.8918C147.669 97.6507 149.038 99.5098 150.275 101.456L159.786 116.053C161.358 118.47 162.991 121.145 162.641 123.985C158.095 124.79 153.497 125.272 148.883 125.429C148.392 125.518 147.886 125.434 147.451 125.19C147.015 124.947 146.679 124.559 146.499 124.094C144.186 120.432 142.016 116.674 140.002 112.841C138.906 110.79 136.251 108.233 134.924 106.317Z" fill="url(#paint8_linear_150_654)"/>
<path d="M125.374 96.7458L125.623 97.1769C125.921 97.7269 126.377 98.1747 126.932 98.4622C127.881 98.8285 128.902 98.2753 129.686 97.6536C130.256 97.0986 130.921 96.6517 131.651 96.3347C132.417 96.0915 134.777 98.4431 135.493 98.1771C136.799 97.6955 138.477 94.7813 138.871 93.5739C138.912 93.4542 136.727 91.8641 136.693 91.7289C136.655 91.6004 136.587 91.4828 136.495 91.3862L131.607 85.9839C130.977 85.1772 130.174 84.5227 129.256 84.0692C128.589 83.8184 127.873 83.7273 127.165 83.8031C124.796 84.0281 122.225 85.9181 121.837 88.4118C121.633 89.7307 122.547 91.2884 123.069 92.4609C123.729 93.945 124.499 95.3773 125.374 96.7458Z" fill="url(#paint9_linear_150_654)"/>
<path d="M160.051 134.242C157.755 138.715 154.381 142.52 151.04 146.269C150.218 147.193 149.209 148.203 147.996 148.182C147.28 148.118 146.595 147.862 146.013 147.44C142.607 145.294 138.015 146.722 138.36 142.713C138.504 141.008 140.995 134.257 141.671 132.695C143.009 129.601 144.429 126.394 147.031 124.25C148.27 123.273 149.644 122.48 151.11 121.895C153.906 120.701 161.081 117.9 162.465 121.574C163.849 125.248 161.703 130.99 160.051 134.242Z" fill="#3E3E54"/>
<path d="M144.225 104.278C145.502 106.489 147.01 108.565 147.481 111.065C148.098 114.393 146.639 117.763 144.952 120.726C143.913 122.564 142.745 124.484 142.831 126.587C142.917 128.689 144.956 130.842 146.931 130.115C147.67 129.783 148.315 129.274 148.809 128.632C151.623 125.475 154.128 122.055 156.288 118.419C157.17 116.922 158.015 115.322 158.091 113.59C158.051 111.905 157.604 110.254 156.787 108.779C155.241 105.495 153.328 102.397 151.086 99.5427C149.157 97.3891 146.849 95.607 144.277 94.2843C136.497 90.8914 142.343 101.017 144.225 104.278Z" fill="#BDBDBD"/>
<path d="M144.225 104.278C145.502 106.489 147.01 108.565 147.481 111.065C148.098 114.393 146.639 117.763 144.952 120.726C143.913 122.564 142.745 124.484 142.831 126.587C142.917 128.689 144.956 130.842 146.931 130.115C147.67 129.783 148.315 129.274 148.809 128.632C151.623 125.475 154.128 122.055 156.288 118.419C157.17 116.922 158.015 115.322 158.091 113.59C158.051 111.905 157.604 110.254 156.787 108.779C155.241 105.495 153.328 102.397 151.086 99.5427C149.157 97.3891 146.849 95.607 144.277 94.2843C136.497 90.8914 142.343 101.017 144.225 104.278Z" fill="url(#paint10_linear_150_654)"/>
<path d="M142.75 157.209L152.249 175.844C154.38 174.43 153.906 171.284 153.214 168.861C151.25 161.987 149.287 155.112 147.327 148.236C146.742 146.201 146.126 144.088 144.743 142.484C143.762 141.348 141.333 139.795 139.722 140.541C138.009 141.338 138.362 143.928 138.526 145.513C138.961 149.676 140.878 153.544 142.75 157.209Z" fill="url(#paint11_linear_150_654)"/>
<path d="M146.744 156.531L157.836 174.262C159.805 172.683 159.081 169.578 158.191 167.218C155.634 160.544 153.078 153.866 150.524 147.186C149.764 145.207 148.945 143.175 147.448 141.681C146.373 140.636 143.82 139.302 142.28 140.184C140.622 141.141 141.22 143.67 141.518 145.245C142.304 149.338 144.575 153.067 146.744 156.531Z" fill="url(#paint12_linear_150_654)"/>
<path d="M153.443 170.254L151.473 171.59C151.253 171.701 151.057 171.856 150.899 172.045C150.741 172.234 150.623 172.453 150.553 172.689C150.534 173.046 150.627 173.399 150.819 173.7C151.402 174.837 152.029 175.949 152.708 176.972C152.722 177.022 152.749 177.067 152.785 177.104C152.838 177.123 152.894 177.129 152.95 177.12C153.005 177.111 153.058 177.088 153.102 177.054C153.885 176.593 154.538 175.942 155.001 175.161C155.214 174.857 155.344 174.502 155.38 174.132C155.367 173.719 155.248 173.315 155.035 172.961C154.557 172.006 154.043 171.064 153.484 170.172L153.443 170.254Z" fill="#BDBDBD"/>
<path d="M155.547 173.999C155.498 173.924 155.431 173.861 155.353 173.816C155.27 173.792 155.181 173.798 155.101 173.832C155.021 173.866 154.955 173.926 154.915 174.003C154.843 174.161 154.796 174.33 154.776 174.503C154.663 175.127 154.322 175.687 153.818 176.073C153.256 176.38 152.721 176.734 152.218 177.13C151.911 177.513 151.687 177.956 151.561 178.43L150.664 181.012C150.451 181.613 150.264 182.348 150.679 182.838C150.895 183.032 151.164 183.159 151.451 183.204C151.739 183.249 152.033 183.209 152.298 183.089C153.261 182.666 154.111 182.023 154.782 181.213C155.455 180.54 156.086 179.826 156.672 179.075C156.991 178.701 157.208 178.251 157.303 177.768C157.441 176.59 156.199 174.912 155.547 173.999Z" fill="#3E3E54"/>
<path d="M158.519 167.647L156.539 169.004C156.319 169.116 156.123 169.271 155.964 169.461C155.804 169.65 155.685 169.87 155.613 170.106C155.601 170.462 155.696 170.813 155.885 171.114C156.463 172.254 157.095 173.363 157.747 174.402C157.775 174.449 157.811 174.49 157.854 174.524C157.906 174.542 157.961 174.546 158.015 174.537C158.069 174.528 158.12 174.505 158.163 174.471C158.949 174.012 159.605 173.36 160.068 172.575C160.282 172.273 160.413 171.92 160.449 171.552C160.429 171.14 160.308 170.739 160.099 170.383C159.626 169.419 159.11 168.488 158.553 167.591L158.519 167.647Z" fill="#BDBDBD"/>
<path d="M160.613 171.376C160.567 171.297 160.501 171.231 160.421 171.184C160.337 171.16 160.247 171.167 160.166 171.203C160.086 171.238 160.02 171.301 159.981 171.38C159.909 171.536 159.864 171.704 159.848 171.877C159.733 172.499 159.39 173.057 158.887 173.441C158.328 173.753 157.793 174.108 157.29 174.503C156.98 174.885 156.754 175.327 156.624 175.801L155.727 178.383C155.523 178.987 155.335 179.722 155.742 180.209C155.959 180.403 156.227 180.53 156.515 180.574C156.802 180.619 157.096 180.579 157.361 180.461C158.327 180.039 159.18 179.395 159.85 178.581C160.525 177.91 161.157 177.196 161.741 176.444C162.058 176.07 162.274 175.621 162.366 175.139C162.504 173.962 161.272 172.3 160.613 171.376Z" fill="#3E3E54"/>
<path d="M139.45 130.558C138.28 131.315 136.913 132.023 136.455 133.349C136.399 133.462 136.371 133.588 136.374 133.715C136.376 133.841 136.409 133.966 136.47 134.077C136.59 134.207 136.745 134.299 136.917 134.342L141.436 135.926C141.662 136.02 141.902 136.078 142.147 136.098C142.604 136.068 143.04 135.89 143.386 135.589C144.776 134.565 145.799 133.121 146.307 131.471C146.802 129.777 145.302 128.366 143.625 128.192C141.948 128.018 140.812 129.676 139.45 130.558Z" fill="url(#paint13_linear_150_654)"/>
<path d="M127.311 77.4696C131.29 75.6067 136.069 76.0461 140.117 77.7475C144.329 79.5161 148.657 82.596 153.004 81.1913C154.962 80.562 156.535 79.0866 158.409 78.2478C160.176 77.4998 162.132 77.3216 164.006 77.7381C165.879 78.1546 167.575 79.145 168.859 80.5714C170.515 82.482 171.289 84.9975 172.767 87.0475C175.683 91.0899 181.28 93.3044 182.46 98.1429C183.387 101.97 180.52 106.271 176.599 106.87C172.425 107.503 168.706 104.47 164.755 102.948C163.037 102.282 160.899 101.962 159.498 103.161C158.805 103.76 158.409 104.645 157.772 105.278C156.269 106.757 153.71 106.576 151.89 105.505C150.07 104.433 148.781 102.672 147.459 101.033C145.582 98.7267 143.379 96.52 140.595 95.5263C137.16 94.3257 133.13 95.0679 129.995 93.2232C128.139 92.128 126.871 90.3027 125.083 89.1319C123.503 88.1059 121.645 88.1688 121.277 86.0893C120.682 82.6454 124.558 78.7643 127.311 77.4696Z" fill="#3E3E54"/>
<path d="M119.098 87.2669C119.276 87.7832 119.576 88.2492 119.972 88.6259C120.367 89.0026 120.848 89.279 121.372 89.4321C122.427 89.7252 123.513 89.8923 124.607 89.9298C125.702 89.9739 126.769 90.2902 127.71 90.8501C127.839 90.9622 127.991 91.0431 128.156 91.0864C128.238 91.1024 128.323 91.0883 128.395 91.0467C128.467 91.005 128.522 90.9386 128.549 90.8598C128.56 90.7552 128.535 90.65 128.479 90.5609C127.696 88.9495 126.524 87.5702 125.631 86.0227C125.025 84.9725 124.567 83.4531 123.401 82.8884C121.154 81.7909 118.56 85.2119 119.098 87.2669Z" fill="#3E3E54"/>
<path d="M128.273 127.32C128.448 127.789 128.794 128.173 129.241 128.397C130.105 128.746 131.104 127.948 131.269 127.035C131.353 126.093 131.075 125.155 130.491 124.411C130.861 125.18 131.44 125.829 132.162 126.284C132.916 126.659 134.033 126.449 134.317 125.651C134.382 125.413 134.394 125.164 134.352 124.92C134.309 124.677 134.214 124.447 134.072 124.245C133.629 123.51 132.917 122.977 132.088 122.76C132.617 123.012 133.219 123.069 133.787 122.921C134.071 122.849 134.329 122.7 134.533 122.49C134.72 122.252 134.821 121.957 134.82 121.654C134.819 121.351 134.716 121.058 134.527 120.82C134.332 120.59 134.089 120.404 133.816 120.276C133.542 120.148 133.244 120.08 132.942 120.078C132.333 120.072 131.727 120.172 131.152 120.374C131.369 119.895 131.69 119.467 131.898 118.985C132.019 118.753 132.087 118.497 132.099 118.236C132.111 117.975 132.066 117.714 131.967 117.472C131.566 116.686 130.392 116.62 129.665 117.121C128.99 117.692 128.517 118.464 128.313 119.324C127.553 119.141 126.762 119.131 125.998 119.297C125.618 119.384 125.268 119.573 124.985 119.842C124.702 120.112 124.497 120.452 124.392 120.828C124.359 121.073 124.38 121.323 124.452 121.559C124.525 121.795 124.647 122.013 124.811 122.198C124.975 122.383 125.177 122.531 125.403 122.63C125.629 122.73 125.874 122.781 126.121 122.778C125.668 123.104 125.199 123.407 124.715 123.685C124.474 123.831 124.273 124.032 124.128 124.272C123.983 124.513 123.899 124.785 123.883 125.065C123.924 125.377 124.074 125.664 124.306 125.876C124.537 126.088 124.836 126.213 125.15 126.227C125.465 126.232 125.777 126.168 126.065 126.041C126.353 125.915 126.61 125.727 126.819 125.492C127.093 125.201 127.415 124.33 127.848 124.389C128.034 125.439 127.824 126.327 128.273 127.32Z" fill="#BDBDBD"/>
<path d="M129.933 123.303C130.968 122.706 131.445 121.595 130.999 120.823C130.553 120.051 129.353 119.909 128.318 120.507C127.283 121.104 126.806 122.214 127.252 122.987C127.698 123.759 128.898 123.901 129.933 123.303Z" fill="white"/>
<defs>
<linearGradient id="paint0_linear_150_654" x1="151.202" y1="114.524" x2="127.385" y2="119.733" gradientUnits="userSpaceOnUse">
<stop offset="0.01"/>
<stop offset="0.13" stop-opacity="0.69"/>
<stop offset="1" stop-opacity="0"/>
</linearGradient>
<linearGradient id="paint1_linear_150_654" x1="133.094" y1="133.265" x2="143.534" y2="131.795" gradientUnits="userSpaceOnUse">
<stop stop-color="#E5C5D5"/>
<stop offset="0.42" stop-color="#EAD4D1"/>
<stop offset="1" stop-color="#F0E9CB"/>
</linearGradient>
<linearGradient id="paint2_linear_150_654" x1="180.554" y1="202.635" x2="252.726" y2="160.966" gradientUnits="userSpaceOnUse">
<stop offset="0.02" stop-color="white" stop-opacity="0"/>
<stop offset="0.32" stop-color="white" stop-opacity="0.39"/>
<stop offset="0.68" stop-color="white" stop-opacity="0.68"/>
<stop offset="1" stop-color="white"/>
</linearGradient>
<linearGradient id="paint3_linear_150_654" x1="184.493" y1="127.294" x2="178.794" y2="116.147" gradientUnits="userSpaceOnUse">
<stop offset="0.01"/>
<stop offset="0.13" stop-opacity="0.69"/>
<stop offset="1" stop-opacity="0"/>
</linearGradient>
<linearGradient id="paint4_linear_150_654" x1="244.04" y1="229.756" x2="259.012" y2="255.688" gradientUnits="userSpaceOnUse">
<stop offset="0.01"/>
<stop offset="0.13" stop-opacity="0.69"/>
<stop offset="1" stop-opacity="0"/>
</linearGradient>
<linearGradient id="paint5_linear_150_654" x1="226.887" y1="192.362" x2="234.027" y2="213.524" gradientUnits="userSpaceOnUse">
<stop offset="0.02" stop-color="white" stop-opacity="0"/>
<stop offset="0.32" stop-color="white" stop-opacity="0.39"/>
<stop offset="0.68" stop-color="white" stop-opacity="0.68"/>
<stop offset="1" stop-color="white"/>
</linearGradient>
<linearGradient id="paint6_linear_150_654" x1="228.495" y1="194.153" x2="244.254" y2="240.862" gradientUnits="userSpaceOnUse">
<stop offset="0.01"/>
<stop offset="0.13" stop-opacity="0.69"/>
<stop offset="1" stop-opacity="0"/>
</linearGradient>
<linearGradient id="paint7_linear_150_654" x1="203.672" y1="160.105" x2="191.595" y2="140.681" gradientUnits="userSpaceOnUse">
<stop offset="0.01"/>
<stop offset="0.13" stop-opacity="0.69"/>
<stop offset="1" stop-opacity="0"/>
</linearGradient>
<linearGradient id="paint8_linear_150_654" x1="156.953" y1="103.437" x2="133.064" y2="118.452" gradientUnits="userSpaceOnUse">
<stop offset="0.01"/>
<stop offset="0.13" stop-opacity="0.69"/>
<stop offset="1" stop-opacity="0"/>
</linearGradient>
<linearGradient id="paint9_linear_150_654" x1="375.532" y1="-368.857" x2="388.733" y2="-370.717" gradientUnits="userSpaceOnUse">
<stop stop-color="#E5C5D5"/>
<stop offset="0.42" stop-color="#EAD4D1"/>
<stop offset="1" stop-color="#F0E9CB"/>
</linearGradient>
<linearGradient id="paint10_linear_150_654" x1="166.05" y1="100.66" x2="132.54" y2="117.812" gradientUnits="userSpaceOnUse">
<stop offset="0.01"/>
<stop offset="0.13" stop-opacity="0.69"/>
<stop offset="1" stop-opacity="0"/>
</linearGradient>
<linearGradient id="paint11_linear_150_654" x1="143.624" y1="159.299" x2="151.254" y2="155.743" gradientUnits="userSpaceOnUse">
<stop stop-color="#8B8086"/>
<stop offset="0.42" stop-color="#EAD4D1"/>
<stop offset="1" stop-color="#F0E9CB"/>
</linearGradient>
<linearGradient id="paint12_linear_150_654" x1="373.551" y1="-300.943" x2="381.893" y2="-302.119" gradientUnits="userSpaceOnUse">
<stop stop-color="#E5C5D5"/>
<stop offset="0.42" stop-color="#EAD4D1"/>
<stop offset="1" stop-color="#F0E9CB"/>
</linearGradient>
<linearGradient id="paint13_linear_150_654" x1="372.386" y1="-326.456" x2="382.833" y2="-327.928" gradientUnits="userSpaceOnUse">
<stop stop-color="#E5C5D5"/>
<stop offset="0.42" stop-color="#EAD4D1"/>
<stop offset="1" stop-color="#F0E9CB"/>
</linearGradient>
</defs>
</svg>
