<svg width="270" height="268" viewBox="0 0 270 268" fill="none" xmlns="http://www.w3.org/2000/svg">
<path d="M108.244 57.542L150.061 213.605C151.909 220.501 151.001 227.833 147.536 233.988C144.072 240.143 138.335 244.616 131.588 246.424C124.84 248.232 117.635 247.226 111.558 243.628C105.48 240.03 101.027 234.135 99.1796 227.239L98.5928 225.049C97.413 225.544 96.2014 225.959 94.9661 226.29C87.2436 228.352 79.0003 227.197 72.0467 223.079C65.0931 218.96 59.9979 212.215 57.8802 204.325C56.1694 197.979 56.5133 191.262 58.8604 185.177C52.296 185.031 45.9338 182.71 40.7365 178.566C35.5392 174.421 31.7899 168.679 30.0559 162.207C28.3219 155.736 28.6977 148.888 31.1264 142.7C33.5551 136.512 37.9044 131.321 43.5162 127.912C38.4411 123.816 34.7848 118.171 33.0936 111.82C30.9824 103.928 32.0225 95.5391 35.9852 88.4956C39.948 81.4521 46.5094 76.3301 54.2283 74.2547C55.4639 73.9242 56.7205 73.6776 57.9899 73.5165L57.3627 71.1756C55.5148 64.2794 56.423 56.9475 59.8875 50.7927C63.3519 44.638 69.0888 40.1646 75.8361 38.3567C82.5834 36.5487 89.7884 37.5544 95.8661 41.1523C101.944 44.7502 106.396 50.6458 108.244 57.542Z" fill="white"/>
<path d="M131.921 247.67C124.85 249.558 117.302 248.501 110.933 244.733C104.564 240.965 99.8941 234.792 97.9482 227.569L97.7357 226.776C96.9432 227.069 96.1406 227.324 95.3033 227.549C87.2543 229.695 78.6639 228.49 71.417 224.197C64.1701 219.905 58.8589 212.877 56.6488 204.655C54.9974 198.628 55.1272 192.257 57.0217 186.345C50.4952 185.83 44.266 183.257 39.2004 178.984C34.1347 174.71 30.4843 168.949 28.7566 162.501C27.0289 156.054 27.3097 149.239 29.5602 143.006C31.8106 136.772 35.9187 131.429 41.3134 127.72C36.7163 123.547 33.4186 118.095 31.8351 112.049C29.6381 103.824 30.7237 95.0815 34.8536 87.741C38.9835 80.4005 45.8204 75.0614 53.864 72.8954C54.689 72.6744 55.5018 72.4566 56.3571 72.3488L56.1312 71.5055C54.1939 64.2756 55.1461 56.5887 58.7782 50.1361C62.4104 43.6834 68.425 38.9935 75.4988 37.0981C82.5727 35.2026 90.1264 36.2569 96.4983 40.029C102.87 43.8011 107.538 49.982 109.475 57.212L151.292 213.275C153.215 220.503 152.256 228.182 148.625 234.629C144.994 241.076 138.987 245.766 131.921 247.67ZM98.2488 223.765C98.5754 223.677 98.9241 223.726 99.2183 223.9C99.5125 224.074 99.728 224.36 99.8174 224.694L100.411 226.909C101.282 230.158 102.77 233.208 104.791 235.884C106.812 238.56 109.326 240.81 112.19 242.505C115.054 244.2 118.211 245.308 121.481 245.764C124.752 246.221 128.071 246.017 131.25 245.165C134.43 244.313 137.406 242.83 140.01 240.799C142.614 238.769 144.795 236.231 146.427 233.331C148.059 230.431 149.112 227.226 149.524 223.898C149.936 220.57 149.7 217.184 148.83 213.935L107.013 57.8719C106.142 54.6225 104.654 51.5728 102.633 48.8967C100.612 46.2207 98.0974 43.9708 95.2338 42.2755C92.3701 40.5803 89.2129 39.4728 85.9425 39.0163C82.6721 38.5598 79.3525 38.7634 76.1733 39.6152C72.9941 40.4671 70.0175 41.9506 67.4135 43.9811C64.8095 46.0116 62.629 48.5493 60.9966 51.4494C59.3642 54.3494 58.3119 57.5549 57.8996 60.8829C57.4874 64.2109 57.7233 67.5963 58.594 70.8456L59.1808 73.0356C59.2311 73.2163 59.2426 73.4055 59.2146 73.5904C59.1865 73.7752 59.1196 73.9512 59.0183 74.1065C58.9171 74.2617 58.7839 74.3924 58.6278 74.4897C58.4718 74.587 58.2966 74.6486 58.1142 74.6703C56.9088 74.826 55.7152 75.0602 54.5407 75.3715C47.1503 77.3625 40.8687 82.2685 37.0742 89.0132C33.2796 95.7579 32.282 103.79 34.3001 111.348C35.9055 117.45 39.4115 122.875 44.2877 126.802C44.4508 126.933 44.5806 127.103 44.6657 127.296C44.7508 127.49 44.7888 127.701 44.7763 127.911C44.7639 128.121 44.7014 128.325 44.5942 128.504C44.487 128.684 44.3384 128.833 44.1611 128.94C38.7846 132.204 34.6173 137.176 32.2901 143.103C29.9629 149.031 29.6025 155.59 31.2635 161.789C32.9246 167.988 36.5165 173.489 41.4956 177.458C46.4746 181.428 52.5696 183.65 58.8577 183.789C59.0647 183.793 59.2682 183.848 59.4507 183.95C59.6332 184.051 59.7891 184.196 59.9051 184.372C60.0211 184.548 60.0937 184.75 60.1165 184.96C60.1394 185.17 60.1119 185.382 60.0365 185.577C57.7771 191.416 57.4532 197.867 59.1138 203.954C61.145 211.509 66.0252 217.966 72.6837 221.91C79.3423 225.854 87.2353 226.962 94.631 224.991C95.8038 224.673 96.9546 224.279 98.0764 223.811L98.2488 223.765Z" fill="#616161"/>
<path d="M119.942 54.4074L161.759 210.47C163.607 217.367 168.06 223.262 174.137 226.86C180.215 230.458 187.42 231.464 194.167 229.656C200.915 227.848 206.651 223.374 210.116 217.22C213.58 211.065 214.489 203.733 212.641 196.837L212.054 194.647C213.323 194.486 214.58 194.239 215.816 193.909C223.534 191.833 230.096 186.711 234.059 179.668C238.021 172.624 239.061 164.235 236.95 156.343C235.259 149.992 231.603 144.347 226.528 140.251C232.139 136.842 236.489 131.651 238.917 125.463C241.346 119.275 241.722 112.427 239.988 105.956C238.254 99.4848 234.505 93.7423 229.307 89.5978C224.11 85.4532 217.748 83.1322 211.183 82.986C213.531 76.901 213.874 70.184 212.164 63.8383C210.046 55.9481 204.951 49.203 197.997 45.0846C191.044 40.9661 182.8 39.8111 175.078 41.8731C173.842 42.2047 172.631 42.6195 171.451 43.1147L170.824 40.7738C168.976 33.8776 164.523 27.982 158.446 24.3841C152.368 20.7861 145.163 19.7805 138.416 21.5885C131.669 23.3964 125.932 27.8698 122.467 34.0245C119.003 40.1793 118.095 47.5112 119.942 54.4074Z" fill="white"/>
<path d="M194.501 230.902C187.43 232.786 179.883 231.728 173.515 227.96C167.147 224.192 162.477 218.022 160.528 210.801L118.711 54.7375C117.752 51.1576 117.492 47.4278 117.946 43.7613C118.4 40.0947 119.56 36.5631 121.358 33.368C123.156 30.173 125.559 27.3772 128.428 25.1401C131.297 22.903 134.576 21.2686 138.079 20.33C141.581 19.3915 145.239 19.1673 148.842 19.6702C152.445 20.1731 155.923 21.3932 159.078 23.261C162.233 25.1287 165.003 27.6075 167.23 30.5558C169.456 33.504 171.096 36.864 172.055 40.444L172.268 41.2369C173.06 40.9436 173.863 40.6881 174.7 40.4637C182.749 38.3177 191.34 39.523 198.586 43.8151C205.833 48.1072 211.144 55.1354 213.355 63.3575C215.006 69.3846 214.876 75.7554 212.982 81.668C219.508 82.183 225.737 84.7559 230.803 89.029C235.869 93.3022 239.519 99.0632 241.247 105.511C242.975 111.959 242.694 118.773 240.443 125.007C238.193 131.24 234.085 136.583 228.69 140.292C233.287 144.466 236.585 149.918 238.168 155.963C240.365 164.189 239.28 172.931 235.15 180.272C231.02 187.612 224.183 192.951 216.139 195.117C215.314 195.338 214.502 195.556 213.646 195.664L213.872 196.507C215.799 203.735 214.841 211.416 211.209 217.864C207.578 224.312 201.569 229.001 194.501 230.902ZM138.756 22.8598C132.34 24.5827 126.884 28.8379 123.588 34.691C120.291 40.5441 119.423 47.5167 121.174 54.0776L162.991 210.141C164.749 216.703 168.986 222.313 174.77 225.737C180.553 229.161 187.409 230.118 193.83 228.397C200.251 226.677 205.71 222.42 209.007 216.563C212.304 210.706 213.168 203.729 211.409 197.167L210.823 194.977C210.772 194.796 210.761 194.607 210.789 194.422C210.817 194.237 210.884 194.061 210.985 193.906C211.086 193.751 211.22 193.62 211.376 193.523C211.532 193.426 211.707 193.364 211.889 193.342C213.095 193.187 214.288 192.952 215.463 192.641C222.853 190.65 229.135 185.744 232.929 178.999C236.724 172.255 237.721 164.222 235.703 156.664C234.098 150.563 230.592 145.138 225.716 141.211C225.553 141.079 225.423 140.909 225.338 140.716C225.253 140.523 225.215 140.312 225.227 140.102C225.239 139.891 225.302 139.687 225.409 139.508C225.516 139.329 225.665 139.179 225.842 139.072C231.219 135.808 235.386 130.836 237.713 124.909C240.04 118.982 240.401 112.422 238.74 106.223C237.079 100.024 233.487 94.5236 228.508 90.5541C223.529 86.5845 217.434 84.3623 211.146 84.2239C210.939 84.2199 210.735 84.1647 210.553 84.063C210.37 83.9613 210.214 83.8163 210.098 83.6403C209.982 83.4643 209.91 83.2626 209.887 83.0527C209.864 82.8428 209.891 82.6309 209.967 82.4354C212.226 76.5963 212.55 70.1454 210.89 64.0584C208.858 56.504 203.978 50.0464 197.32 46.1027C190.661 42.1589 182.768 41.0509 175.372 43.0219C174.2 43.3395 173.049 43.7335 171.927 44.2014C171.758 44.2738 171.576 44.3081 171.392 44.3018C171.208 44.2956 171.027 44.2489 170.862 44.1651C170.697 44.0814 170.551 43.9624 170.434 43.8163C170.317 43.6703 170.233 43.5006 170.186 43.319L169.592 41.1039C167.822 34.5502 163.583 28.9503 157.804 25.5307C152.024 22.1111 145.175 21.1507 138.756 22.8598Z" fill="#616161"/>
<path d="M210.824 177.103C213.238 176.456 214.66 173.931 213.998 171.463C213.337 168.996 210.844 167.52 208.43 168.167C206.016 168.814 204.594 171.339 205.256 173.806C205.917 176.274 208.41 177.75 210.824 177.103Z" fill="#616161"/>
<path d="M211.158 178.349C210.05 178.646 208.877 178.601 207.787 178.218C206.697 177.836 205.739 177.134 205.035 176.201C204.33 175.268 203.911 174.147 203.829 172.978C203.748 171.809 204.008 170.646 204.577 169.635C205.146 168.624 205.998 167.811 207.026 167.299C208.053 166.787 209.21 166.598 210.35 166.758C211.49 166.917 212.562 167.416 213.43 168.193C214.298 168.97 214.923 169.989 215.227 171.121C215.428 171.873 215.483 172.657 215.387 173.427C215.292 174.197 215.048 174.939 214.671 175.61C214.293 176.282 213.788 176.869 213.186 177.339C212.583 177.809 211.894 178.152 211.158 178.349ZM208.767 169.426C208.146 169.592 207.589 169.944 207.167 170.435C206.745 170.927 206.477 171.537 206.397 172.188C206.317 172.838 206.428 173.501 206.717 174.091C207.006 174.681 207.46 175.173 208.021 175.503C208.581 175.833 209.223 175.988 209.866 175.947C210.509 175.906 211.123 175.671 211.631 175.272C212.139 174.874 212.518 174.329 212.719 173.708C212.921 173.086 212.937 172.416 212.764 171.781C212.65 171.362 212.456 170.969 212.194 170.624C211.931 170.279 211.605 169.99 211.234 169.772C210.864 169.555 210.455 169.413 210.032 169.356C209.61 169.299 209.181 169.327 208.771 169.438L208.767 169.426Z" fill="#616161"/>
<path d="M170.179 186.186C172.594 185.539 174.015 183.014 173.354 180.547C172.693 178.079 170.199 176.603 167.785 177.25C165.371 177.897 163.95 180.422 164.611 182.89C165.272 185.357 167.765 186.833 170.179 186.186Z" fill="#616161"/>
<path d="M170.513 187.433C169.405 187.732 168.23 187.689 167.139 187.308C166.047 186.927 165.087 186.226 164.381 185.293C163.675 184.36 163.254 183.238 163.172 182.068C163.09 180.898 163.35 179.733 163.92 178.722C164.489 177.71 165.343 176.896 166.371 176.384C167.4 175.872 168.559 175.685 169.699 175.845C170.84 176.006 171.912 176.507 172.78 177.286C173.648 178.065 174.272 179.086 174.573 180.221C174.975 181.736 174.774 183.345 174.013 184.697C173.253 186.049 171.994 187.032 170.513 187.433ZM168.122 178.509C167.5 178.673 166.942 179.022 166.518 179.512C166.094 180.002 165.824 180.611 165.741 181.261C165.659 181.912 165.768 182.575 166.054 183.166C166.341 183.757 166.793 184.25 167.352 184.583C167.911 184.915 168.553 185.072 169.196 185.034C169.839 184.996 170.454 184.763 170.964 184.367C171.473 183.97 171.854 183.428 172.058 182.807C172.262 182.186 172.28 181.516 172.11 180.881C171.883 180.032 171.335 179.305 170.588 178.861C169.84 178.416 168.954 178.29 168.122 178.509Z" fill="#616161"/>
<path d="M108.639 213.777C111.053 213.131 112.474 210.606 111.813 208.138C111.152 205.671 108.659 204.195 106.245 204.842C103.83 205.489 102.409 208.013 103.07 210.481C103.731 212.948 106.225 214.424 108.639 213.777Z" fill="#616161"/>
<path d="M108.976 215.036C107.868 215.333 106.695 215.288 105.605 214.905C104.515 214.523 103.557 213.821 102.853 212.888C102.148 211.955 101.729 210.834 101.647 209.665C101.566 208.496 101.826 207.333 102.395 206.322C102.964 205.311 103.816 204.498 104.844 203.986C105.871 203.474 107.028 203.285 108.168 203.445C109.308 203.604 110.38 204.103 111.248 204.88C112.116 205.657 112.741 206.676 113.045 207.808C113.246 208.56 113.301 209.344 113.205 210.114C113.11 210.884 112.866 211.626 112.489 212.297C112.111 212.969 111.606 213.556 111.003 214.026C110.401 214.496 109.712 214.839 108.976 215.036ZM106.585 206.113C105.964 206.279 105.407 206.631 104.985 207.122C104.563 207.614 104.295 208.224 104.215 208.875C104.135 209.525 104.246 210.188 104.535 210.778C104.824 211.368 105.278 211.86 105.838 212.19C106.399 212.52 107.041 212.675 107.684 212.634C108.327 212.593 108.941 212.358 109.449 211.959C109.957 211.561 110.336 211.016 110.537 210.395C110.739 209.773 110.754 209.103 110.582 208.468C110.351 207.62 109.801 206.896 109.052 206.455C108.303 206.013 107.416 205.89 106.585 206.113Z" fill="#616161"/>
<path d="M76.5105 183.321C78.9248 182.674 80.3459 180.149 79.6848 177.682C79.0236 175.214 76.5304 173.738 74.1161 174.385C71.7018 175.032 70.2806 177.557 70.9418 180.025C71.603 182.492 74.0962 183.968 76.5105 183.321Z" fill="#616161"/>
<path d="M76.8445 184.568C75.7359 184.865 74.562 184.819 73.4716 184.436C72.3812 184.053 71.4233 183.351 70.719 182.417C70.0147 181.483 69.5958 180.361 69.5152 179.192C69.4347 178.022 69.6961 176.859 70.2665 175.848C70.8368 174.837 71.6904 174.025 72.7193 173.514C73.7481 173.003 74.9059 172.816 76.0462 172.977C77.1864 173.138 78.2578 173.64 79.1247 174.419C79.9917 175.198 80.6152 176.219 80.9164 177.352C81.3195 178.87 81.1171 180.482 80.3538 181.834C79.5904 183.187 78.3284 184.17 76.8445 184.568ZM74.4535 175.644C73.8325 175.811 73.2758 176.162 72.8539 176.653C72.4321 177.144 72.1639 177.753 72.0834 178.403C72.0028 179.053 72.1135 179.715 72.4015 180.305C72.6895 180.895 73.1418 181.387 73.7012 181.718C74.2606 182.049 74.902 182.205 75.5443 182.166C76.1866 182.126 76.8009 181.894 77.3096 181.497C77.8183 181.1 78.1985 180.557 78.4021 179.937C78.6057 179.317 78.6236 178.647 78.4536 178.012C78.3406 177.591 78.1476 177.195 77.8854 176.848C77.6233 176.501 77.2972 176.209 76.9258 175.989C76.5544 175.77 76.1448 175.626 75.7207 175.567C75.2965 175.508 74.8659 175.534 74.4535 175.644Z" fill="#616161"/>
<path d="M47.5129 159.526C49.9272 158.879 51.3484 156.355 50.6872 153.887C50.026 151.419 47.5328 149.943 45.1185 150.59C42.7042 151.237 41.2831 153.762 41.9443 156.23C42.6054 158.697 45.0986 160.173 47.5129 159.526Z" fill="#616161"/>
<path d="M47.8465 160.772C46.7378 161.069 45.564 161.023 44.4736 160.64C43.3832 160.258 42.4252 159.555 41.721 158.621C41.0167 157.688 40.5977 156.565 40.5172 155.396C40.4366 154.227 40.6981 153.063 41.2684 152.052C41.8388 151.042 42.6924 150.229 43.7212 149.718C44.7501 149.207 45.9079 149.021 47.0481 149.182C48.1883 149.343 49.2597 149.845 50.1267 150.623C50.9936 151.402 51.6171 152.423 51.9183 153.557C52.1197 154.308 52.174 155.091 52.0783 155.861C51.9825 156.63 51.7386 157.371 51.3603 158.042C50.9821 158.712 50.4771 159.298 49.8741 159.766C49.2711 160.235 48.5821 160.577 47.8465 160.772ZM45.4555 151.849C44.8345 152.015 44.2778 152.366 43.8559 152.857C43.434 153.348 43.1659 153.957 43.0853 154.607C43.0048 155.257 43.1155 155.919 43.4035 156.509C43.6915 157.1 44.1437 157.591 44.7032 157.922C45.2626 158.254 45.904 158.409 46.5463 158.37C47.1886 158.331 47.8029 158.098 48.3116 157.701C48.8203 157.305 49.2005 156.762 49.4041 156.142C49.6077 155.521 49.6256 154.852 49.4555 154.217C49.2275 153.366 48.6779 152.638 47.9277 152.194C47.1776 151.75 46.2883 151.626 45.4555 151.849Z" fill="#616161"/>
<path d="M59.1313 113.881C61.5456 113.234 62.9668 110.709 62.3056 108.241C61.6444 105.774 59.1512 104.298 56.737 104.945C54.3227 105.592 52.9015 108.117 53.5627 110.584C54.2238 113.052 56.717 114.528 59.1313 113.881Z" fill="#616161"/>
<path d="M59.465 115.127C58.357 115.427 57.1831 115.384 56.0919 115.003C55.0007 114.623 54.0413 113.922 53.335 112.99C52.6287 112.058 52.2074 110.937 52.1243 109.767C52.0412 108.598 52.3002 107.434 52.8683 106.422C53.4365 105.41 54.2883 104.596 55.316 104.082C56.3437 103.569 57.5011 103.38 58.6416 103.538C59.7822 103.697 60.8546 104.196 61.7232 104.973C62.5918 105.75 63.2175 106.77 63.5212 107.903C63.9275 109.419 63.7287 111.032 62.9683 112.386C62.2078 113.74 60.948 114.726 59.465 115.127ZM57.074 106.204C56.4513 106.368 55.8924 106.718 55.4684 107.208C55.0444 107.699 54.7743 108.308 54.6923 108.959C54.6104 109.61 54.7204 110.274 55.0083 110.865C55.2962 111.456 55.749 111.949 56.3094 112.281C56.8697 112.613 57.5124 112.768 58.1557 112.728C58.799 112.688 59.4141 112.454 59.9228 112.056C60.4316 111.657 60.8112 111.113 61.0133 110.491C61.2155 109.869 61.2312 109.198 61.0584 108.563C60.8256 107.72 60.2771 107.001 59.5318 106.561C58.7866 106.122 57.9047 105.998 57.0774 106.216L57.074 106.204Z" fill="#616161"/>
<path d="M74.2651 79.4345C76.6794 78.7876 78.1006 76.2628 77.4394 73.7952C76.7782 71.3276 74.285 69.8517 71.8707 70.4986C69.4564 71.1455 68.0353 73.6703 68.6964 76.1379C69.3576 78.6054 71.8508 80.0814 74.2651 79.4345Z" fill="#616161"/>
<path d="M74.5988 80.6801C73.4903 80.9798 72.3158 80.9365 71.2242 80.5556C70.1326 80.1747 69.1729 79.4734 68.4668 78.5405C67.7607 77.6077 67.3399 76.4852 67.2577 75.3154C67.1756 74.1456 67.4357 72.981 68.0053 71.9692C68.5748 70.9574 69.428 70.144 70.4569 69.6319C71.4858 69.1198 72.6441 68.9321 73.7849 69.0927C74.9258 69.2532 75.9979 69.7547 76.8654 70.5336C77.733 71.3126 78.357 72.3339 78.6583 73.4682C79.0608 74.9835 78.8597 76.593 78.0989 77.9446C77.3381 79.2962 76.0796 80.2798 74.5988 80.6801ZM72.2078 71.7568C71.5856 71.9209 71.0271 72.27 70.6032 72.7599C70.1793 73.2498 69.909 73.8585 69.8265 74.5089C69.744 75.1593 69.8531 75.8222 70.1399 76.4135C70.4267 77.0048 70.8783 77.4979 71.4376 77.8305C71.9968 78.163 72.6386 78.32 73.2815 78.2816C73.9244 78.2431 74.5395 78.011 75.049 77.6145C75.5585 77.2181 75.9395 76.6751 76.1436 76.0545C76.3476 75.4338 76.3657 74.7634 76.1955 74.1281C75.968 73.2791 75.4207 72.5529 74.6733 72.1084C73.9259 71.664 73.0394 71.5376 72.2078 71.7568Z" fill="#616161"/>
<path d="M209.808 172.128C209.555 172.196 209.287 172.182 209.04 172.089C208.793 171.996 208.579 171.828 208.428 171.607L189.971 144.691L166.919 150.868C166.592 150.955 166.244 150.907 165.95 150.733C165.655 150.558 165.44 150.273 165.35 149.939C165.261 149.605 165.305 149.251 165.473 148.953C165.64 148.655 165.918 148.438 166.245 148.351L190.158 141.943C190.411 141.875 190.68 141.889 190.927 141.982C191.174 142.075 191.387 142.243 191.538 142.464L210.514 170.131C210.709 170.415 210.786 170.765 210.728 171.105C210.67 171.444 210.483 171.744 210.206 171.94C210.085 172.026 209.951 172.09 209.808 172.128Z" fill="#616161"/>
<path d="M152.211 97.2091L102.401 110.556C99.9322 111.217 98.479 113.799 99.1551 116.322L112.796 167.231C113.472 169.754 116.022 171.264 118.49 170.602L168.3 157.256C170.769 156.594 172.222 154.012 171.546 151.489L157.905 100.58C157.229 98.0568 154.68 96.5476 152.211 97.2091Z" fill="white"/>
<path d="M168.638 158.514L118.828 171.861C118.08 172.063 117.299 172.113 116.529 172.006C115.76 171.9 115.016 171.641 114.342 171.242C113.668 170.844 113.076 170.315 112.6 169.686C112.124 169.056 111.773 168.339 111.568 167.574L97.924 116.652C97.7191 115.888 97.6638 115.091 97.7612 114.308C97.8586 113.525 98.1069 112.771 98.4918 112.089C98.8766 111.407 99.3905 110.81 100.004 110.333C100.618 109.857 101.319 109.509 102.067 109.31L151.877 95.9634C153.387 95.5588 155 95.7829 156.361 96.5866C157.722 97.3903 158.72 98.7079 159.137 100.25L172.781 151.172C173.192 152.716 172.986 154.357 172.209 155.733C171.432 157.11 170.148 158.11 168.638 158.514ZM102.742 111.827C102.317 111.939 101.918 112.136 101.57 112.406C101.221 112.677 100.929 113.015 100.71 113.402C100.491 113.789 100.35 114.217 100.295 114.661C100.239 115.106 100.27 115.558 100.387 115.992L114.031 166.914C114.148 167.348 114.347 167.756 114.617 168.113C114.887 168.47 115.224 168.77 115.607 168.996C115.99 169.222 116.412 169.369 116.849 169.428C117.286 169.488 117.729 169.459 118.153 169.344L167.963 155.997C168.389 155.885 168.787 155.688 169.136 155.418C169.484 155.148 169.776 154.81 169.995 154.423C170.214 154.036 170.355 153.608 170.411 153.163C170.466 152.718 170.435 152.266 170.319 151.832L156.674 100.91C156.558 100.476 156.359 100.069 156.088 99.7116C155.818 99.3543 155.482 99.0542 155.099 98.8285C154.716 98.6027 154.294 98.4558 153.857 98.3961C153.42 98.3364 152.976 98.3651 152.552 98.4805L102.742 111.827Z" fill="#616161"/>
<path d="M146.504 109.652L113.565 118.478C111.932 118.915 110.971 120.622 111.418 122.29L120.439 155.957C120.886 157.625 122.572 158.623 124.204 158.186L157.144 149.36C158.776 148.922 159.737 147.215 159.29 145.547L150.269 111.88C149.822 110.212 148.137 109.214 146.504 109.652Z" fill="#616161"/>
<path d="M157.478 150.606L124.538 159.432C123.988 159.579 123.414 159.614 122.849 159.535C122.283 159.456 121.737 159.265 121.242 158.972C120.747 158.679 120.312 158.289 119.962 157.827C119.613 157.364 119.355 156.836 119.205 156.274L110.187 122.62C110.037 122.058 109.996 121.473 110.067 120.897C110.138 120.322 110.32 119.767 110.603 119.266C110.885 118.764 111.262 118.325 111.712 117.974C112.163 117.623 112.677 117.367 113.227 117.219L146.167 108.393C147.278 108.095 148.463 108.261 149.464 108.853C150.464 109.445 151.196 110.415 151.501 111.55L160.518 145.205C160.822 146.339 160.673 147.546 160.103 148.559C159.533 149.572 158.588 150.308 157.478 150.606ZM113.902 119.736C113.445 119.859 113.056 120.162 112.821 120.579C112.586 120.996 112.525 121.493 112.65 121.96L121.668 155.615C121.73 155.846 121.836 156.063 121.979 156.254C122.123 156.444 122.302 156.604 122.506 156.725C122.71 156.846 122.935 156.925 123.168 156.957C123.401 156.99 123.637 156.975 123.864 156.915L156.804 148.088C157.03 148.028 157.242 147.922 157.427 147.777C157.613 147.633 157.768 147.452 157.884 147.246C158.001 147.039 158.075 146.811 158.105 146.574C158.134 146.337 158.117 146.096 158.055 145.864L149.038 112.21C148.913 111.743 148.611 111.343 148.199 111.1C147.787 110.856 147.299 110.788 146.842 110.91L113.902 119.736Z" fill="#616161"/>
<path d="M182.766 102.633L160.921 108.486C160.595 108.574 160.246 108.525 159.952 108.351C159.658 108.177 159.442 107.892 159.353 107.558C159.263 107.224 159.307 106.869 159.475 106.571C159.643 106.273 159.92 106.057 160.247 105.969L181.402 100.301L186.796 81.3195C186.89 80.991 187.109 80.7154 187.404 80.5529C187.7 80.3904 188.047 80.3542 188.371 80.4521C188.533 80.5013 188.684 80.5826 188.816 80.6912C188.947 80.7998 189.057 80.9336 189.138 81.0849C189.219 81.2362 189.27 81.402 189.288 81.5728C189.306 81.7436 189.291 81.916 189.243 82.08L183.665 101.799C183.596 102.004 183.478 102.188 183.321 102.334C183.164 102.48 182.973 102.582 182.766 102.633Z" fill="#616161"/>
<path d="M190.677 82.8021C193.092 82.1552 194.513 79.6304 193.851 77.1629C193.19 74.6953 190.697 73.2194 188.283 73.8663C185.869 74.5132 184.447 77.038 185.109 79.5055C185.77 81.9731 188.263 83.449 190.677 82.8021Z" fill="#616161"/>
<path d="M191.014 84.0606C189.906 84.3575 188.733 84.3119 187.643 83.9296C186.553 83.5472 185.595 82.8453 184.891 81.9126C184.186 80.9798 183.767 79.8581 183.685 78.6894C183.604 77.5206 183.864 76.3573 184.433 75.3464C185.002 74.3356 185.854 73.5227 186.882 73.0105C187.909 72.4983 189.066 72.3099 190.206 72.469C191.346 72.6281 192.418 73.1276 193.286 73.9044C194.154 74.6811 194.779 75.7002 195.083 76.8328C195.49 78.3516 195.29 79.9663 194.527 81.3218C193.764 82.6773 192.5 83.6625 191.014 84.0606ZM188.623 75.1373C188.002 75.3039 187.445 75.6552 187.023 76.1469C186.601 76.6385 186.333 77.2483 186.253 77.8991C186.173 78.5498 186.284 79.2123 186.573 79.8024C186.862 80.3926 187.316 80.8839 187.876 81.2143C188.437 81.5446 189.079 81.6991 189.722 81.658C190.365 81.617 190.979 81.3824 191.487 80.9839C191.995 80.5853 192.374 80.0409 192.575 79.4194C192.777 78.7979 192.793 78.1274 192.62 77.4927C192.508 77.0704 192.316 76.6738 192.055 76.3258C191.793 75.9778 191.467 75.6853 191.095 75.4651C190.723 75.245 190.313 75.1016 189.888 75.0432C189.463 74.9847 189.032 75.0125 188.62 75.1248L188.623 75.1373Z" fill="#616161"/>
<path d="M161.398 60.8627C163.813 60.2158 165.234 57.691 164.573 55.2234C163.911 52.7559 161.418 51.2799 159.004 51.9268C156.59 52.5737 155.169 55.0985 155.83 57.5661C156.491 60.0337 158.984 61.5096 161.398 60.8627Z" fill="#616161"/>
<path d="M161.729 62.096C160.621 62.3929 159.447 62.3473 158.357 61.965C157.267 61.5826 156.31 60.8807 155.605 59.948C154.901 59.0152 154.481 57.8935 154.4 56.7248C154.318 55.556 154.579 54.3927 155.148 53.3818C155.717 52.371 156.569 51.5581 157.596 51.0459C158.624 50.5337 159.781 50.3453 160.921 50.5044C162.061 50.6635 163.133 51.163 164.001 51.9398C164.869 52.7165 165.494 53.7356 165.797 54.8682C166.204 56.387 166.004 58.0017 165.241 59.3572C164.478 60.7127 163.215 61.6979 161.729 62.096ZM159.338 53.1727C158.716 53.3393 158.159 53.6906 157.737 54.1823C157.315 54.6739 157.047 55.2837 156.967 55.9345C156.887 56.5852 156.999 57.2477 157.288 57.8378C157.577 58.428 158.031 58.9193 158.591 59.2497C159.152 59.58 159.794 59.7345 160.437 59.6934C161.079 59.6524 161.694 59.4178 162.202 59.0193C162.709 58.6207 163.088 58.0762 163.29 57.4548C163.492 56.8333 163.507 56.1628 163.334 55.5281C163.098 54.6861 162.547 53.9693 161.8 53.533C161.053 53.0968 160.171 52.9764 159.345 53.1979L159.338 53.1727Z" fill="#616161"/>
<path d="M208.281 131.26C210.695 130.613 212.116 128.088 211.455 125.621C210.794 123.153 208.301 121.677 205.886 122.324C203.472 122.971 202.051 125.496 202.712 127.964C203.373 130.431 205.866 131.907 208.281 131.26Z" fill="#616161"/>
<path d="M208.618 132.519C207.51 132.818 206.335 132.775 205.243 132.394C204.152 132.013 203.192 131.312 202.486 130.379C201.78 129.446 201.359 128.324 201.277 127.154C201.195 125.984 201.455 124.82 202.025 123.808C202.594 122.796 203.447 121.983 204.476 121.471C205.505 120.958 206.663 120.771 207.804 120.931C208.945 121.092 210.017 121.593 210.885 122.372C211.752 123.151 212.376 124.172 212.678 125.307C213.08 126.822 212.879 128.432 212.118 129.783C211.357 131.135 210.099 132.118 208.618 132.519ZM206.227 123.595C205.605 123.759 205.046 124.109 204.623 124.599C204.199 125.088 203.928 125.697 203.846 126.348C203.763 126.998 203.872 127.661 204.159 128.252C204.446 128.843 204.898 129.337 205.457 129.669C206.016 130.002 206.658 130.159 207.301 130.12C207.944 130.082 208.559 129.85 209.068 129.453C209.578 129.057 209.959 128.514 210.163 127.893C210.367 127.272 210.385 126.602 210.215 125.967C209.987 125.118 209.44 124.392 208.693 123.947C207.945 123.503 207.059 123.376 206.227 123.595Z" fill="#616161"/>
<path d="M212.307 111.363C214.721 110.717 216.142 108.192 215.481 105.724C214.82 103.257 212.327 101.781 209.912 102.428C207.498 103.074 206.077 105.599 206.738 108.067C207.399 110.534 209.892 112.01 212.307 111.363Z" fill="#616161"/>
<path d="M212.644 112.622C211.536 112.922 210.362 112.878 209.271 112.498C208.18 112.118 207.22 111.417 206.514 110.485C205.808 109.553 205.386 108.431 205.303 107.262C205.22 106.093 205.479 104.929 206.047 103.917C206.615 102.905 207.467 102.091 208.495 101.577C209.523 101.064 210.68 100.875 211.821 101.033C212.961 101.192 214.034 101.691 214.902 102.468C215.771 103.245 216.396 104.264 216.7 105.398C217.106 106.914 216.908 108.526 216.147 109.881C215.387 111.235 214.127 112.221 212.644 112.622ZM210.253 103.699C209.63 103.863 209.071 104.212 208.647 104.703C208.223 105.194 207.953 105.803 207.871 106.454C207.789 107.105 207.899 107.768 208.187 108.36C208.475 108.951 208.928 109.444 209.488 109.776C210.049 110.107 210.691 110.263 211.335 110.223C211.978 110.183 212.593 109.949 213.102 109.55C213.611 109.152 213.99 108.607 214.192 107.986C214.394 107.364 214.41 106.693 214.237 106.057C214.007 105.211 213.459 104.489 212.713 104.047C211.967 103.605 211.082 103.48 210.253 103.699Z" fill="#616161"/>
<path d="M207.431 128.088L168.1 138.627C167.773 138.715 167.425 138.666 167.13 138.492C166.836 138.318 166.621 138.032 166.531 137.699C166.442 137.365 166.486 137.01 166.654 136.712C166.821 136.414 167.099 136.197 167.425 136.11L206.756 125.571C207.083 125.484 207.432 125.532 207.726 125.707C208.02 125.881 208.236 126.166 208.325 126.5C208.414 126.834 208.371 127.189 208.203 127.487C208.035 127.784 207.757 128.001 207.431 128.088Z" fill="#616161"/>
<path d="M147.072 99.9489C146.745 100.036 146.396 99.9877 146.102 99.8136C145.808 99.6394 145.593 99.3541 145.503 99.0203L140.107 78.8831C140.05 78.6693 140.046 78.4447 140.097 78.2304C140.148 78.0161 140.252 77.8192 140.399 77.6582L159.658 56.9312C159.888 56.6836 160.206 56.5396 160.542 56.5304C160.878 56.5211 161.205 56.6475 161.453 56.8819C161.576 57.0002 161.676 57.1419 161.745 57.2988C161.815 57.4558 161.854 57.6249 161.859 57.7964C161.865 57.968 161.837 58.1386 161.777 58.2984C161.718 58.4582 161.628 58.6041 161.512 58.7276L142.756 78.9154L147.966 98.3604C148.055 98.6942 148.011 99.049 147.844 99.347C147.676 99.6449 147.398 99.8614 147.072 99.9489Z" fill="#616161"/>
<path d="M108.221 110.359C107.998 110.414 107.764 110.407 107.543 110.338L80.7265 103.845C80.5012 103.791 80.2939 103.676 80.1268 103.511C79.9596 103.347 79.8387 103.14 79.7771 102.913L72.3411 75.1612C72.2517 74.8274 72.2957 74.4725 72.4633 74.1746C72.631 73.8767 72.9087 73.6601 73.2353 73.5726C73.5619 73.4851 73.9106 73.5338 74.2048 73.708C74.499 73.8821 74.7145 74.1675 74.8039 74.5013L82.0477 101.535L108.187 107.818C108.469 107.881 108.723 108.04 108.907 108.267C109.092 108.495 109.196 108.779 109.203 109.072C109.209 109.366 109.119 109.652 108.945 109.885C108.771 110.117 108.525 110.282 108.246 110.352L108.221 110.359Z" fill="#616161"/>
<path d="M90.8133 127.501C85.2966 128.98 77.0171 131.131 64.5764 134.302C64.2498 134.39 63.9011 134.341 63.6069 134.167C63.3127 133.993 63.0972 133.707 63.0078 133.374L56.9376 110.719C56.8481 110.385 56.8921 110.031 57.0598 109.733C57.2275 109.435 57.5052 109.218 57.8317 109.131C58.1583 109.043 58.5071 109.092 58.8012 109.266C59.0954 109.44 59.3109 109.726 59.4004 110.059L65.1333 131.455C78.7226 127.989 98.2124 122.902 100.216 122.055C100.341 121.978 100.476 121.919 100.618 121.88C100.862 121.815 101.119 121.827 101.359 121.912C101.598 121.997 101.808 122.152 101.962 122.357C102.116 122.563 102.207 122.81 102.224 123.067C102.241 123.324 102.182 123.579 102.056 123.801C101.865 124.27 101.687 124.588 90.8133 127.501Z" fill="#616161"/>
<path d="M103.879 140.997L48.0724 155.95C47.7458 156.038 47.3971 155.989 47.1029 155.815C46.8087 155.641 46.5932 155.356 46.5037 155.022C46.4143 154.688 46.4583 154.333 46.626 154.035C46.7937 153.737 47.0713 153.521 47.3979 153.433L103.205 138.48C103.532 138.392 103.88 138.441 104.174 138.615C104.469 138.789 104.684 139.075 104.774 139.408C104.863 139.742 104.819 140.097 104.651 140.395C104.484 140.693 104.206 140.909 103.879 140.997Z" fill="#616161"/>
<path d="M209.869 109.899L163.716 122.266C163.389 122.353 163.041 122.305 162.746 122.13C162.452 121.956 162.237 121.671 162.147 121.337C162.058 121.003 162.102 120.649 162.269 120.351C162.437 120.053 162.715 119.836 163.041 119.749L209.194 107.382C209.521 107.295 209.87 107.343 210.164 107.517C210.458 107.692 210.673 107.977 210.763 108.311C210.852 108.644 210.808 108.999 210.641 109.297C210.473 109.595 210.195 109.812 209.869 109.899Z" fill="#616161"/>
<path d="M76.4021 178.386C76.1392 178.454 75.861 178.434 75.6081 178.329C75.4515 178.266 75.3083 178.172 75.1868 178.052C75.0653 177.933 74.9678 177.791 74.8999 177.633C74.832 177.476 74.7951 177.307 74.7913 177.136C74.7874 176.965 74.8167 176.795 74.8774 176.636L81.4295 159.665C81.4972 159.49 81.6018 159.332 81.7358 159.203C81.8699 159.074 82.0303 158.976 82.2058 158.917C98.6774 153.303 107.856 150.911 109.479 151.798C109.663 151.897 109.825 152.033 109.955 152.197C110.085 152.362 110.181 152.552 110.237 152.755C110.307 153.014 110.297 153.288 110.209 153.539C110.12 153.791 109.957 154.007 109.742 154.159C109.528 154.311 109.271 154.391 109.008 154.389C108.745 154.386 108.489 154.301 108.273 154.145C105.999 154.08 94.2408 157.581 83.5933 161.189L77.2646 177.615C77.191 177.805 77.0746 177.973 76.9248 178.107C76.7749 178.241 76.5959 178.336 76.4021 178.386Z" fill="#616161"/>
<path d="M106.359 209.357C106.032 209.445 105.684 209.396 105.389 209.222C105.095 209.048 104.88 208.762 104.79 208.428L94.2247 168.997C94.1352 168.664 94.1792 168.309 94.3469 168.011C94.5146 167.713 94.7923 167.496 95.1189 167.409L111.718 162.961C112.045 162.874 112.393 162.922 112.688 163.096C112.982 163.271 113.197 163.556 113.287 163.89C113.376 164.223 113.332 164.578 113.165 164.876C112.997 165.174 112.719 165.391 112.393 165.478L97.0247 169.596L107.253 207.769C107.342 208.102 107.298 208.457 107.131 208.755C106.963 209.053 106.685 209.27 106.359 209.357Z" fill="#616161"/>
<path d="M167.967 177.93C167.64 178.018 167.292 177.969 166.998 177.795C166.703 177.621 166.488 177.336 166.398 177.002L161.589 159.054C161.5 158.721 161.544 158.366 161.712 158.068C161.879 157.77 162.157 157.553 162.484 157.466C162.81 157.378 163.159 157.427 163.453 157.601C163.747 157.775 163.963 158.061 164.052 158.395L168.861 176.342C168.951 176.676 168.907 177.03 168.739 177.328C168.571 177.626 168.294 177.843 167.967 177.93Z" fill="#616161"/>
<path d="M130.255 124.568L119.752 127.382C119.425 127.47 119.076 127.421 118.782 127.247C118.488 127.073 118.272 126.787 118.183 126.454C118.093 126.12 118.137 125.765 118.305 125.467C118.473 125.169 118.751 124.953 119.077 124.865L129.581 122.051C129.908 121.963 130.256 122.012 130.55 122.186C130.845 122.36 131.06 122.645 131.15 122.979C131.239 123.313 131.195 123.668 131.027 123.966C130.86 124.264 130.582 124.48 130.255 124.568Z" fill="#C2C2C2"/>
</svg>
