<svg width="311" height="303" viewBox="0 0 311 303" fill="none" xmlns="http://www.w3.org/2000/svg">
<g opacity="0.5">
<path d="M217.729 48.039L222.188 67.4706C171.728 103.76 157.757 155.686 157.757 155.686C157.757 155.686 102.494 140.95 43.8352 169.889L34.5459 153.8L37.0912 179.208L94.3194 278.33C94.3194 278.33 149.887 233.93 207.805 242.372C229.453 187.993 295.689 162.07 295.689 162.07L238.461 62.9477L217.729 48.039Z" fill="white"/>
<path d="M208.404 243.411C208.13 243.565 207.815 243.624 207.516 243.578C150.783 235.351 95.6542 278.805 95.0943 279.253C94.9448 279.371 94.7726 279.458 94.5898 279.509C94.407 279.56 94.2179 279.572 94.0358 279.546C93.8548 279.52 93.6847 279.457 93.5374 279.361C93.3901 279.264 93.269 279.137 93.1825 278.987L35.9544 179.865C35.8746 179.731 35.8243 179.581 35.8062 179.424L33.2608 154.016C33.2327 153.735 33.3084 153.447 33.475 153.199C33.6416 152.951 33.8888 152.76 34.1743 152.658C34.4637 152.553 34.7749 152.546 35.0529 152.638C35.331 152.731 35.5581 152.917 35.6943 153.164L44.4262 168.288C97.5213 142.547 148.232 152.314 156.912 154.223C159.472 146.004 175.425 100.005 220.762 67.0483L216.488 48.4095C216.431 48.1634 216.458 47.9002 216.565 47.6571C216.672 47.414 216.854 47.2033 217.084 47.0546C217.315 46.9 217.585 46.8155 217.856 46.8133C218.127 46.811 218.385 46.891 218.593 47.0419L239.324 61.9506C239.455 62.0418 239.563 62.1579 239.643 62.2926L296.871 161.415C296.958 161.565 297.008 161.733 297.018 161.909C297.028 162.085 296.997 162.264 296.929 162.433C296.861 162.604 296.755 162.761 296.62 162.894C296.485 163.028 296.323 163.133 296.146 163.203C295.478 163.464 230.27 189.514 209.039 242.726C208.918 243.015 208.692 243.259 208.404 243.411ZM113.558 264.22C134.882 251.908 170.532 236.114 207.014 241.002C227.276 191.783 284.129 165.699 293.863 161.532L237.444 63.8116L219.767 51.0973L223.441 67.121C223.494 67.3546 223.471 67.6035 223.376 67.8359C223.281 68.0683 223.117 68.2738 222.906 68.4261C173.466 103.988 159.149 155.394 159.005 155.906C158.961 156.075 158.88 156.235 158.769 156.378C158.658 156.52 158.519 156.64 158.36 156.732C158.202 156.823 158.028 156.884 157.849 156.909C157.671 156.934 157.491 156.923 157.323 156.878C156.784 156.732 101.847 142.611 44.3547 170.973C44.0566 171.121 43.7197 171.159 43.4122 171.079C43.1047 171 42.8495 170.809 42.6983 170.546L36.4355 159.698L38.3475 178.76L94.7666 276.48C100.781 272.034 107.058 267.939 113.558 264.22Z" fill="black"/>
<path d="M201.674 231.753L148.576 139.783C148.576 139.783 88.9521 118.596 34.5459 153.8L96.3947 260.925C96.3947 260.925 146.038 219.073 201.674 231.753Z" fill="white"/>
<path d="M202.274 232.792C202.123 232.878 201.958 232.936 201.789 232.962C201.619 232.989 201.449 232.983 201.287 232.946C146.976 220.567 97.6835 261.399 97.1978 261.818C97.0486 261.943 96.8744 262.037 96.6881 262.093C96.5017 262.149 96.3079 262.165 96.1209 262.14C95.9338 262.116 95.7581 262.051 95.6067 261.951C95.4554 261.85 95.3321 261.717 95.2459 261.561L33.4091 154.456C33.2556 154.192 33.2187 153.873 33.306 153.565C33.3932 153.257 33.5979 152.984 33.8782 152.801C88.2324 117.586 148.498 138.416 149.102 138.621C149.364 138.715 149.579 138.893 149.712 139.127L202.811 231.097C202.97 231.373 203.003 231.706 202.902 232.023C202.801 232.341 202.575 232.617 202.274 232.792ZM113.733 247.801C132.817 236.782 164.748 223.288 199.105 229.929L147.648 140.803C142.416 139.09 86.8318 122.09 36.2517 154.13L96.824 259.044C102.195 254.924 107.846 251.166 113.733 247.801Z" fill="black"/>
<path d="M201.675 231.753L148.576 139.783C148.576 139.783 160.038 77.5543 217.729 48.039L279.578 155.164C279.578 155.164 218.511 177.231 201.675 231.753Z" fill="white"/>
<path d="M202.274 232.791C201.972 232.965 201.62 233.023 201.294 232.951C200.969 232.88 200.697 232.685 200.538 232.41L147.439 140.44C147.303 140.208 147.256 139.932 147.306 139.658C147.43 139.033 159.507 76.4494 217.198 46.9615C217.496 46.8102 217.835 46.7696 218.145 46.8479C218.455 46.9262 218.713 47.1175 218.865 47.3826L280.714 154.508C280.803 154.66 280.853 154.832 280.862 155.011C280.871 155.19 280.838 155.372 280.766 155.543C280.693 155.716 280.582 155.874 280.44 156.006C280.299 156.138 280.131 156.24 279.949 156.306C279.343 156.517 219.359 178.831 202.901 232.014C202.852 232.173 202.772 232.323 202.664 232.457C202.556 232.59 202.424 232.704 202.274 232.791ZM149.922 139.49L201.379 228.616C217.838 180.817 268.423 158.366 277.734 154.596L217.161 49.6813C164.13 77.4754 151.043 134.082 149.922 139.49Z" fill="black"/>
<path d="M140.813 155.213C140.525 155.378 140.191 155.437 139.878 155.379C94.0557 146.887 63.9943 166.665 63.6994 166.863C63.556 166.96 63.3964 167.03 63.2295 167.069C63.0627 167.108 62.8919 167.117 62.727 167.093C62.3938 167.045 62.1047 166.871 61.9231 166.609C61.7416 166.346 61.6825 166.018 61.7588 165.694C61.8352 165.371 62.0408 165.08 62.3303 164.886C62.6486 164.702 93.5474 144.274 140.548 152.944C140.876 153.005 141.155 153.189 141.324 153.457C141.493 153.726 141.538 154.055 141.45 154.375C141.408 154.545 141.329 154.707 141.22 154.852C141.11 154.996 140.971 155.119 140.813 155.213Z" fill="#010101"/>
<path d="M151.385 173.524C151.097 173.689 150.763 173.748 150.45 173.69C104.628 165.198 74.5663 184.976 74.2714 185.174C74.1281 185.271 73.9684 185.341 73.8015 185.38C73.6347 185.419 73.4639 185.427 73.299 185.404C72.9659 185.356 72.6767 185.182 72.4952 184.92C72.3136 184.657 72.2545 184.329 72.3309 184.005C72.4072 183.682 72.6128 183.391 72.9023 183.197C73.2206 183.013 104.131 162.579 151.12 171.255C151.448 171.316 151.727 171.5 151.896 171.768C152.065 172.037 152.11 172.366 152.022 172.686C151.98 172.856 151.901 173.018 151.792 173.163C151.682 173.307 151.543 173.43 151.385 173.524Z" fill="#010101"/>
<path d="M161.956 191.835C161.669 192 161.335 192.059 161.022 192.001C115.206 183.519 85.1381 203.287 84.8432 203.485C84.6998 203.581 84.5402 203.651 84.3733 203.691C84.2065 203.73 84.0357 203.738 83.8708 203.714C83.5377 203.667 83.2485 203.493 83.0669 203.23C82.8854 202.968 82.8263 202.639 82.9027 202.316C82.979 201.993 83.1846 201.702 83.4741 201.507C83.7924 201.324 114.703 180.889 161.692 189.565C162.02 189.626 162.299 189.811 162.468 190.079C162.637 190.347 162.682 190.677 162.594 190.996C162.552 191.166 162.473 191.329 162.363 191.473C162.254 191.618 162.115 191.741 161.956 191.835Z" fill="#010101"/>
<path d="M172.528 210.146C172.241 210.311 171.907 210.37 171.594 210.312C125.777 201.83 95.7099 221.598 95.415 221.796C95.2716 221.892 95.112 221.962 94.9451 222.002C94.7783 222.041 94.6075 222.049 94.4425 222.025C94.1094 221.978 93.8203 221.803 93.6387 221.541C93.4572 221.279 93.3981 220.95 93.4744 220.627C93.5508 220.304 93.7563 220.013 94.0459 219.818C94.3641 219.635 125.274 199.2 172.264 207.876C172.591 207.937 172.87 208.122 173.039 208.39C173.208 208.658 173.254 208.988 173.166 209.307C173.124 209.477 173.045 209.64 172.935 209.784C172.825 209.929 172.687 210.052 172.528 210.146Z" fill="#010101"/>
<path d="M165.819 140.776C165.663 140.865 165.492 140.925 165.316 140.95C165.14 140.975 164.964 140.966 164.797 140.923C164.473 140.85 164.203 140.656 164.044 140.382C163.886 140.108 163.853 139.776 163.952 139.459C172.292 115.946 185.257 100.419 194.659 91.5305C204.891 81.8728 213.05 77.8402 213.397 77.681C213.709 77.5292 214.062 77.4973 214.378 77.5924C214.694 77.6874 214.948 77.9015 215.084 78.188C215.219 78.4751 215.225 78.8107 215.1 79.1213C214.976 79.4318 214.731 79.6921 214.42 79.8452C214.113 80.0224 181.976 96.1268 166.385 140.076C166.285 140.36 166.084 140.608 165.819 140.776Z" fill="#010101"/>
<path d="M176.391 159.087C176.235 159.176 176.063 159.235 175.888 159.261C175.712 159.286 175.535 159.277 175.369 159.234C175.045 159.161 174.774 158.967 174.616 158.693C174.458 158.418 174.425 158.087 174.524 157.77C182.863 134.257 195.829 118.73 205.237 109.852C215.462 100.184 223.628 96.1614 223.969 95.9919C224.281 95.84 224.634 95.8081 224.95 95.9032C225.266 95.9982 225.52 96.2123 225.656 96.4988C225.791 96.7859 225.797 97.1215 225.672 97.4321C225.547 97.7426 225.303 98.0029 224.991 98.156C224.684 98.3332 192.548 114.438 176.956 158.386C176.856 158.671 176.656 158.919 176.391 159.087Z" fill="#010101"/>
<path d="M186.963 177.398C186.807 177.487 186.635 177.546 186.46 177.572C186.284 177.597 186.107 177.588 185.941 177.544C185.617 177.472 185.347 177.278 185.188 177.003C185.03 176.729 184.997 176.398 185.096 176.081C193.436 152.568 206.401 137.041 215.809 128.163C226.034 118.495 234.2 114.472 234.541 114.303C234.853 114.151 235.206 114.119 235.522 114.214C235.838 114.309 236.092 114.523 236.228 114.81C236.363 115.097 236.369 115.432 236.244 115.743C236.119 116.054 235.875 116.314 235.563 116.467C235.256 116.644 203.114 132.765 187.528 176.697C187.428 176.981 187.228 177.23 186.963 177.398Z" fill="#010101"/>
<path d="M197.535 195.709C197.378 195.798 197.207 195.858 197.031 195.883C196.856 195.908 196.679 195.899 196.513 195.856C196.189 195.783 195.918 195.589 195.76 195.315C195.602 195.041 195.569 194.709 195.668 194.392C204.007 170.879 216.973 155.352 226.381 146.474C236.606 136.806 244.771 132.784 245.113 132.614C245.425 132.462 245.778 132.43 246.094 132.525C246.41 132.62 246.664 132.835 246.8 133.121C246.935 133.408 246.94 133.744 246.816 134.054C246.691 134.365 246.446 134.625 246.135 134.778C245.828 134.955 213.686 151.077 198.1 195.009C198 195.293 197.8 195.541 197.535 195.709Z" fill="#010101"/>
<path d="M208.405 243.41C208.103 243.584 207.751 243.642 207.425 243.57C207.1 243.499 206.828 243.304 206.669 243.029L200.538 232.409C200.379 232.134 200.346 231.801 200.447 231.483C200.548 231.165 200.774 230.889 201.075 230.715C201.377 230.541 201.729 230.484 202.054 230.555C202.38 230.627 202.652 230.822 202.811 231.097L208.942 241.716C209.101 241.991 209.134 242.325 209.033 242.642C208.932 242.96 208.706 243.236 208.405 243.41Z" fill="black"/>
<path d="M296.288 163.108C296.102 163.215 295.895 163.28 295.684 163.295C295.474 163.311 295.267 163.276 295.081 163.196L278.97 156.29C278.819 156.228 278.684 156.136 278.574 156.021C278.464 155.905 278.381 155.768 278.33 155.618C278.279 155.467 278.26 155.306 278.275 155.143C278.291 154.981 278.339 154.82 278.418 154.671C278.498 154.521 278.606 154.386 278.737 154.273C278.868 154.16 279.02 154.072 279.183 154.013C279.345 153.953 279.516 153.925 279.685 153.929C279.855 153.932 280.019 153.968 280.168 154.034L296.285 160.95C296.434 161.015 296.566 161.108 296.673 161.225C296.781 161.341 296.861 161.479 296.91 161.629C296.959 161.78 296.975 161.94 296.958 162.102C296.941 162.263 296.892 162.422 296.812 162.57C296.692 162.791 296.51 162.977 296.288 163.108Z" fill="black"/>
<path d="M94.9187 279.368C94.6922 279.5 94.4351 279.566 94.1803 279.559C94.0122 279.555 93.8494 279.518 93.7011 279.452C93.5528 279.386 93.422 279.292 93.3161 279.174C93.2102 279.056 93.1313 278.918 93.084 278.767C93.0367 278.616 93.0218 278.455 93.0403 278.294L95.1096 260.878C95.1271 260.716 95.178 260.555 95.2594 260.407C95.3407 260.259 95.4509 260.125 95.5835 260.014C95.7162 259.902 95.8686 259.815 96.0321 259.758C96.1955 259.701 96.3666 259.675 96.5356 259.681C96.7045 259.687 96.8679 259.725 97.0162 259.793C97.1646 259.861 97.2949 259.958 97.3997 260.078C97.5046 260.197 97.5817 260.338 97.6268 260.491C97.6719 260.644 97.6839 260.806 97.6623 260.968L95.587 278.374C95.5643 278.573 95.4916 278.767 95.3752 278.94C95.2588 279.114 95.1021 279.261 94.9187 279.368Z" fill="black"/>
<path d="M176.986 187.337C184.086 183.238 187.713 176.23 185.089 171.684C182.464 167.137 174.58 166.775 167.481 170.874C160.381 174.973 156.753 181.982 159.378 186.528C162.002 191.074 169.886 191.437 176.986 187.337Z" fill="black"/>
<path d="M177.591 188.386C169.884 192.835 161.213 192.306 158.258 187.188C155.304 182.071 159.175 174.286 166.881 169.836C174.588 165.387 183.271 165.91 186.231 171.038C189.192 176.166 185.309 183.93 177.591 188.386ZM168.08 171.912C161.624 175.64 158.236 181.9 160.532 185.876C162.827 189.851 169.936 190.037 176.392 186.31C182.848 182.583 186.247 176.316 183.958 172.351C181.669 168.385 174.547 168.178 168.08 171.912Z" fill="black"/>
<path d="M171.297 90.0986C168.05 84.4741 163.355 79.798 157.616 76.473C151.877 73.148 145.266 71.2737 138.352 71.0116C131.438 70.7495 124.429 72.1074 117.928 74.9683C111.426 77.8293 105.628 82.1075 101.032 87.4347C96.4354 92.7619 93.1791 98.9783 91.5432 105.549C89.9073 112.119 89.9408 118.847 91.6408 125.152C93.3408 131.457 96.6563 137.151 101.302 141.743C105.947 146.336 111.784 149.689 118.308 151.514C128.174 154.163 136.622 159.871 142.388 167.784L177.01 147.795C172.971 139.161 172.169 129.257 174.731 119.645C177.608 109.44 176.38 98.8739 171.297 90.0986Z" fill="white"/>
<path d="M177.639 148.858L143.016 168.847C142.732 169.012 142.402 169.074 142.091 169.021C141.779 168.968 141.509 168.803 141.334 168.559C135.732 160.829 127.494 155.26 117.869 152.695C109.829 150.448 102.833 145.957 97.7315 139.768C92.6299 133.58 89.6433 125.962 89.1351 117.841C88.627 109.721 90.6193 101.448 94.8694 94.0296C99.1196 86.6115 105.444 80.3681 113.074 76.0596C120.703 71.7511 129.308 69.5632 137.841 69.7624C146.374 69.9616 154.467 72.5391 161.134 77.1814C167.802 81.8236 172.757 88.3302 175.395 95.9092C178.034 103.488 178.243 111.812 175.997 119.869C173.493 129.214 174.256 138.847 178.167 147.252C178.299 147.519 178.317 147.831 178.22 148.128C178.122 148.425 177.915 148.685 177.639 148.858ZM142.841 166.18L175.417 147.372C171.644 138.723 170.974 128.923 173.505 119.411C175.622 111.823 175.426 103.981 172.941 96.842C170.457 89.7026 165.79 83.5731 159.51 79.1998C153.23 74.8264 145.607 72.3979 137.569 72.21C129.531 72.022 121.426 74.0826 114.239 78.1409C107.052 82.1993 101.095 88.0803 97.0914 95.068C93.088 102.056 91.2116 109.849 91.6906 117.498C92.1696 125.147 94.9834 132.323 99.7894 138.152C104.595 143.98 111.186 148.21 118.76 150.327C128.525 152.94 136.946 158.484 142.841 166.18Z" fill="black"/>
<path d="M156.724 160.933C156.423 161.107 156.071 161.164 155.745 161.093C155.419 161.021 155.147 160.826 154.988 160.551C154.862 160.333 145.615 144.316 136.947 134.553C132.699 136.078 128.243 136.808 123.834 136.698C119.183 136.518 115.846 135.096 114.638 132.845C113.266 130.26 113.535 127.627 115.382 125.786C118.27 122.914 123.961 122.743 129.943 125.309C132.986 126.929 135.656 129.081 137.826 131.665C141.583 130.156 145.103 128.086 148.247 125.538C145.854 116.013 145.561 107.892 148.458 105.43C150.025 104.207 151.956 103.53 153.9 103.524C155.844 103.517 157.67 104.18 159.046 105.393C160.41 106.626 164.231 111.354 156.183 121.066C154.673 122.891 153.015 124.603 151.226 126.184C153.71 135.421 158.094 146.163 163.766 154.072C163.952 154.331 164.016 154.659 163.945 154.983C163.873 155.308 163.672 155.601 163.385 155.8C163.098 155.999 162.748 156.087 162.414 156.044C162.079 156.001 161.786 155.831 161.6 155.571C155.919 147.156 151.658 137.873 148.96 128.033C146.073 130.247 142.913 132.095 139.567 133.525C148.152 143.46 156.792 158.347 157.32 159.26C157.466 159.541 157.485 159.874 157.374 160.187C157.262 160.5 157.029 160.768 156.724 160.933ZM117.989 126.786C117.693 126.956 117.42 127.165 117.18 127.405C115.784 128.793 116.435 130.603 116.958 131.588C117.797 133.042 120.51 134.091 124.158 134.241C127.851 134.343 131.586 133.791 135.176 132.614C133.393 130.558 131.22 128.847 128.757 127.559C123.855 125.448 120.013 125.618 117.989 126.786ZM150.768 106.726C150.531 106.862 150.307 107.019 150.099 107.195C148.269 108.75 148.556 115.338 150.471 123.589C151.777 122.359 153.003 121.055 154.142 119.684C158.627 114.327 159.741 109.642 157.132 107.301C156.301 106.589 155.242 106.155 154.096 106.057C152.951 105.959 151.773 106.201 150.722 106.752L150.768 106.726Z" fill="#4F4F4F"/>
<path d="M176.221 147.005L142.439 166.509C140.889 167.404 140.295 169.277 141.112 170.693L152.068 189.669C152.885 191.085 154.805 191.507 156.355 190.612L190.137 171.108C191.687 170.213 192.281 168.339 191.464 166.923L180.509 147.948C179.691 146.532 177.771 146.11 176.221 147.005Z" fill="#140F00"/>
<path d="M190.747 172.14L156.955 191.65C155.908 192.251 154.687 192.448 153.558 192.2C152.43 191.952 151.485 191.278 150.931 190.325L139.976 171.35C139.428 170.394 139.316 169.239 139.665 168.137C140.015 167.035 140.797 166.077 141.84 165.471L175.633 145.96C176.68 145.36 177.901 145.162 179.029 145.41C180.158 145.658 181.103 146.333 181.657 147.285L192.612 166.261C193.16 167.217 193.272 168.372 192.922 169.473C192.573 170.575 191.791 171.534 190.747 172.14ZM143.039 167.547C142.596 167.803 142.263 168.209 142.115 168.676C141.967 169.143 142.015 169.633 142.249 170.037L153.204 189.013C153.438 189.417 153.838 189.704 154.317 189.809C154.795 189.914 155.313 189.83 155.756 189.574L189.549 170.064C189.992 169.808 190.324 169.402 190.472 168.935C190.62 168.468 190.572 167.978 190.339 167.573L179.383 148.598C179.15 148.193 178.75 147.907 178.271 147.801C177.792 147.696 177.275 147.781 176.831 148.037L143.039 167.547Z" fill="black"/>
<path d="M183.535 154.45L145.241 176.559C144.94 176.733 144.587 176.79 144.262 176.719C143.936 176.647 143.664 176.452 143.505 176.177C143.346 175.902 143.313 175.568 143.414 175.251C143.515 174.933 143.741 174.657 144.042 174.483L182.336 152.374C182.638 152.2 182.99 152.142 183.316 152.214C183.641 152.285 183.913 152.48 184.072 152.756C184.231 153.031 184.264 153.364 184.163 153.682C184.062 153.999 183.836 154.276 183.535 154.45Z" fill="black"/>
<path d="M188.545 163.128L150.251 185.237C149.95 185.411 149.598 185.468 149.272 185.397C148.946 185.325 148.674 185.13 148.515 184.855C148.356 184.58 148.324 184.246 148.424 183.929C148.525 183.611 148.751 183.335 149.053 183.161L187.346 161.052C187.648 160.878 188 160.82 188.326 160.892C188.651 160.963 188.924 161.158 189.082 161.433C189.241 161.709 189.274 162.042 189.173 162.36C189.073 162.677 188.847 162.954 188.545 163.128Z" fill="black"/>
<path d="M82.4556 123.855C82.3159 123.937 82.1625 123.993 82.0045 124.019L64.6712 127.203C64.3321 127.266 63.991 127.2 63.7229 127.019C63.4548 126.837 63.2816 126.556 63.2415 126.236C63.2014 125.916 63.2977 125.583 63.5091 125.312C63.7205 125.041 64.0298 124.853 64.3689 124.789L81.6662 121.543C81.9627 121.49 82.2612 121.536 82.5106 121.673C82.76 121.81 82.9448 122.03 83.0331 122.295C83.1215 122.559 83.108 122.853 82.995 123.124C82.882 123.396 82.6764 123.628 82.4137 123.782L82.4556 123.855Z" fill="#010101"/>
<path d="M85.4327 92.1301C85.2685 92.2249 85.0875 92.2861 84.9022 92.3095C84.7168 92.3329 84.5315 92.3179 84.359 92.2656L69.2324 87.6429C69.0594 87.6113 68.898 87.5449 68.7587 87.4479C68.6194 87.3509 68.5052 87.2254 68.4235 87.0796C68.3418 86.9337 68.2944 86.7706 68.2843 86.6009C68.2742 86.4312 68.3017 86.2585 68.3649 86.0939C68.4282 85.9294 68.5258 85.7767 68.6515 85.6455C68.7773 85.5144 68.9283 85.4078 69.095 85.3325C69.2617 85.2573 69.4404 85.215 69.6195 85.2086C69.7986 85.2021 69.9741 85.2315 70.1349 85.2948L85.2676 89.9279C85.4925 89.9994 85.6865 90.1322 85.8269 90.311C85.9674 90.4897 86.0486 90.707 86.0611 90.9376C86.0735 91.1681 86.0168 91.4025 85.8974 91.6134C85.778 91.8243 85.6008 92.0031 85.3866 92.129L85.4327 92.1301Z" fill="#010101"/>
<path d="M167.841 74.5583C167.568 74.7819 167.222 74.8994 166.878 74.885C166.534 74.8706 166.222 74.7255 166.008 74.4815C165.795 74.2375 165.699 73.9147 165.741 73.5841C165.783 73.2535 165.96 72.9421 166.233 72.7185L177.693 59.3617C177.805 59.2327 177.94 59.1241 178.092 59.042C178.243 58.9599 178.408 58.906 178.577 58.8833C178.745 58.8606 178.914 58.8695 179.074 58.9097C179.233 58.9498 179.381 59.0204 179.507 59.1172C179.763 59.3112 179.919 59.6002 179.943 59.9212C179.966 60.2422 179.855 60.5691 179.632 60.8304L168.19 74.2183C168.098 74.3515 167.979 74.4672 167.841 74.5583Z" fill="#010101"/>
<path d="M138.878 61.2737C138.662 61.3963 138.419 61.4603 138.176 61.4582C137.934 61.4561 137.703 61.3881 137.509 61.262C137.316 61.136 137.168 60.957 137.084 60.746C136.999 60.535 136.981 60.3006 137.032 60.07L140.608 44.6078C140.683 44.2854 140.887 43.9948 141.175 43.7999C141.463 43.6049 141.812 43.5216 142.144 43.5683C142.477 43.615 142.766 43.7878 142.948 44.0487C143.13 44.3097 143.19 44.6374 143.114 44.9598L139.55 60.4427C139.503 60.6144 139.419 60.7774 139.303 60.9207C139.187 61.0639 139.042 61.1843 138.878 61.2737Z" fill="#010101"/>
<path d="M109.345 71.8336C109.043 72.0076 108.691 72.0652 108.365 71.9936C108.04 71.922 107.768 71.7271 107.609 71.4518L101.286 60.5005C101.127 60.2252 101.094 59.8921 101.195 59.5743C101.296 59.2566 101.522 58.9803 101.823 58.8062C102.125 58.6322 102.477 58.5746 102.803 58.6462C103.128 58.7178 103.4 58.9127 103.559 59.188L109.882 70.1393C110.041 70.4146 110.074 70.7478 109.973 71.0655C109.872 71.3833 109.646 71.6595 109.345 71.8336Z" fill="#010101"/>
</g>
</svg>
