<svg width="314" height="336" viewBox="0 0 314 336" fill="none" xmlns="http://www.w3.org/2000/svg">
<g opacity="0.5">
<path d="M285.431 126.606L128.095 35.7683C122.548 32.5656 115.455 34.4662 112.252 40.0135L7.74767 221.02C4.54494 226.568 6.44558 233.661 11.9929 236.864L169.328 327.701C174.876 330.904 181.969 329.003 185.172 323.456L289.676 142.449C292.879 136.902 290.978 129.809 285.431 126.606Z" fill="#4E4E4E"/>
<path d="M168.603 328.929L11.2798 238.099C8.29112 236.369 6.1107 233.524 5.21695 230.189C4.32319 226.853 4.78909 223.299 6.51242 220.307L111.017 39.3C112.757 36.3314 115.6 34.171 118.926 33.2896C122.252 32.4081 125.791 32.8771 128.773 34.5944L286.096 125.425C289.085 127.155 291.265 130 292.159 133.335C293.053 136.671 292.587 140.225 290.864 143.217L186.395 324.162C184.665 327.151 181.82 329.331 178.485 330.225C175.149 331.119 171.595 330.653 168.603 328.929ZM127.347 37.0653C125.01 35.7165 122.234 35.3509 119.628 36.0492C117.022 36.7474 114.801 38.4521 113.452 40.7883L8.98333 221.733C8.31546 222.89 7.88198 224.167 7.70763 225.491C7.53328 226.816 7.62148 228.161 7.9672 229.452C8.31291 230.742 8.90937 231.951 9.72252 233.011C10.5357 234.071 11.5496 234.96 12.7064 235.628L170.029 326.458C171.186 327.126 172.463 327.56 173.788 327.734C175.112 327.908 176.458 327.82 177.748 327.475C179.038 327.129 180.248 326.532 181.307 325.719C182.367 324.906 183.256 323.892 183.924 322.735L288.428 141.729C289.755 139.394 290.104 136.629 289.4 134.038C288.696 131.446 286.995 129.238 284.67 127.896L127.347 37.0653Z" fill="black"/>
<path d="M269.565 131.118L132.12 51.7641C129.275 50.1214 125.637 51.0962 123.994 53.9415L26.6013 222.631C24.9586 225.476 25.9334 229.114 28.7787 230.757L166.223 310.111C169.069 311.753 172.707 310.779 174.35 307.933L271.742 139.244C273.385 136.399 272.41 132.76 269.565 131.118Z" fill="white"/>
<path d="M165.498 311.339L28.0656 231.992C26.3745 231.012 25.1409 229.401 24.6349 227.512C24.1289 225.624 24.3918 223.612 25.366 221.917L122.759 53.2281C123.74 51.537 125.35 50.3034 127.239 49.7974C129.127 49.2914 131.139 49.5543 132.834 50.5285L270.266 129.875C271.957 130.856 273.191 132.467 273.697 134.355C274.203 136.243 273.94 138.255 272.966 139.95L175.544 308.689C174.556 310.364 172.946 311.581 171.065 312.078C169.185 312.574 167.184 312.308 165.498 311.339ZM131.407 52.9994C130.369 52.3998 129.134 52.2373 127.976 52.5477C126.817 52.8581 125.829 53.616 125.23 54.6547L27.8084 223.393C27.2087 224.432 27.0462 225.666 27.3566 226.825C27.667 227.984 28.425 228.971 29.4637 229.571L166.896 308.917C167.935 309.517 169.169 309.68 170.327 309.369C171.486 309.059 172.474 308.301 173.073 307.262L270.495 138.524C271.094 137.485 271.257 136.25 270.947 135.092C270.636 133.933 269.878 132.946 268.839 132.346L131.407 52.9994Z" fill="black"/>
<path d="M246.493 94.5875L224.675 81.9908L229.3 72.1253C230.838 68.8462 231.089 65.109 230.003 61.6538C228.916 58.1986 226.572 55.2773 223.434 53.4684L222.421 52.8835C219.286 51.0704 215.584 50.501 212.048 51.2878C208.513 52.0746 205.401 54.1603 203.331 57.1319L197.1 66.0701L175.281 53.4734C174.15 52.8211 172.88 52.4451 171.576 52.3758C170.272 52.3065 168.969 52.5459 167.775 53.0745C166.581 53.6031 165.528 54.4061 164.702 55.4181C163.876 56.4301 163.301 57.6227 163.023 58.8988L159.715 73.8733C159.359 75.5896 159.555 77.3742 160.274 78.9726C160.993 80.571 162.198 81.9014 163.718 82.7739L226.9 119.252C228.415 120.132 230.17 120.511 231.914 120.334C233.658 120.158 235.301 119.435 236.61 118.269L247.888 107.978C248.868 107.102 249.626 106.006 250.1 104.78C250.574 103.554 250.751 102.233 250.614 100.926C250.478 99.6187 250.034 98.3624 249.317 97.2604C248.601 96.1585 247.633 95.2424 246.493 94.5875ZM211.465 73.0297C210.37 72.4009 209.487 71.4614 208.927 70.3301C208.366 69.1988 208.154 67.9266 208.318 66.6748C208.481 65.423 209.013 64.2478 209.844 63.2982C210.676 62.3486 211.771 61.6673 212.991 61.3406C214.21 61.0138 215.499 61.0564 216.694 61.4628C217.889 61.8693 218.937 62.6214 219.704 63.6238C220.472 64.6262 220.924 65.8338 221.005 67.0937C221.085 68.3536 220.79 69.609 220.156 70.7008C219.313 72.1622 217.923 73.2286 216.293 73.6653C214.663 74.1021 212.926 73.8734 211.465 73.0297Z" fill="#A09E96"/>
<path d="M226.186 120.487L163.005 84.0091C161.213 82.9805 159.797 81.4069 158.962 79.5175C158.127 77.628 157.917 75.5214 158.362 73.5042L161.642 58.5792C161.966 57.0831 162.639 55.6848 163.606 54.4981C164.573 53.3115 165.806 52.3701 167.206 51.7507C168.606 51.1313 170.132 50.8514 171.661 50.9339C173.189 51.0164 174.677 51.4588 176.002 52.2252L196.683 64.1657L202.166 56.2947C204.428 53.0171 207.845 50.7151 211.732 49.8498C215.619 48.9844 219.69 49.6196 223.129 51.6282L224.167 52.2274C227.625 54.2011 230.211 57.4088 231.405 61.2079C232.599 65.007 232.314 69.117 230.607 72.7147L226.532 81.3988L247.213 93.3393C248.539 94.106 249.665 95.1747 250.499 96.4585C251.334 97.7423 251.854 99.205 252.017 100.728C252.179 102.25 251.98 103.79 251.436 105.221C250.891 106.652 250.017 107.935 248.883 108.964L237.605 119.255C236.081 120.649 234.151 121.521 232.097 121.742C230.043 121.964 227.973 121.524 226.186 120.487ZM174.568 54.7085C173.63 54.1673 172.578 53.8551 171.497 53.7973C170.416 53.7396 169.336 53.9379 168.347 54.3762C167.357 54.8145 166.484 55.4803 165.8 56.3195C165.116 57.1587 164.64 58.1475 164.41 59.2055L161.138 74.1182C160.823 75.5456 160.971 77.0363 161.562 78.3732C162.154 79.7101 163.156 80.8233 164.424 81.5505L227.605 118.028C228.869 118.763 230.335 119.074 231.788 118.918C233.241 118.761 234.607 118.145 235.685 117.158L246.964 106.868C247.765 106.14 248.383 105.233 248.768 104.221C249.153 103.209 249.293 102.121 249.178 101.044C249.063 99.9678 248.695 98.9338 248.104 98.0265C247.514 97.1191 246.717 96.364 245.78 95.8226L223.961 83.2259C223.65 83.0472 223.417 82.7574 223.309 82.4144C223.202 82.0714 223.228 81.7006 223.382 81.376L228.02 71.5176C229.421 68.5659 229.654 65.1937 228.674 62.0769C227.693 58.9601 225.571 56.3289 222.733 54.7106L221.695 54.1115C218.874 52.4624 215.535 51.9402 212.345 52.6496C209.156 53.359 206.352 55.2474 204.497 57.9366L198.278 66.8819C198.074 67.1778 197.765 67.3857 197.415 67.4642C197.064 67.5427 196.697 67.4859 196.386 67.3052L174.568 54.7085ZM210.751 74.2648C209.412 73.495 208.332 72.3451 207.647 70.9607C206.962 69.5764 206.703 68.0198 206.903 66.4883C207.103 64.9567 207.754 63.5191 208.772 62.3573C209.789 61.1956 211.129 60.362 212.621 59.9623C214.113 59.5625 215.69 59.6145 217.152 60.1116C218.615 60.6088 219.897 61.5288 220.836 62.755C221.775 63.9813 222.329 65.4587 222.428 67.0001C222.527 68.5415 222.166 70.0776 221.392 71.4138C220.356 73.2 218.655 74.5029 216.66 75.0373C214.666 75.5716 212.541 75.2939 210.751 74.2648ZM217.121 63.2322C216.274 62.7399 215.3 62.51 214.322 62.5716C213.345 62.6333 212.407 62.9836 211.629 63.5783C210.85 64.173 210.266 64.9853 209.949 65.9124C209.632 66.8396 209.598 67.8398 209.85 68.7864C210.102 69.7331 210.63 70.5836 211.366 71.2303C212.102 71.8771 213.013 72.2909 213.984 72.4195C214.955 72.5481 215.943 72.3856 216.822 71.9526C217.7 71.5196 218.431 70.8356 218.921 69.9872C219.247 69.4258 219.459 68.8054 219.546 68.1618C219.632 67.5181 219.59 66.8638 219.423 66.2363C219.256 65.6087 218.966 65.0204 218.571 64.5049C218.176 63.9894 217.684 63.5569 217.121 63.2322Z" fill="black"/>
<path d="M129.108 89.7081L152.606 103.275L139.039 126.773L115.541 113.207L129.108 89.7081Z" fill="white"/>
<path d="M138.326 128.009L114.853 114.456C114.525 114.267 114.286 113.956 114.188 113.59C114.09 113.225 114.141 112.835 114.33 112.508L127.883 89.0339C128.072 88.7063 128.384 88.4672 128.749 88.3692C129.115 88.2713 129.504 88.3226 129.832 88.5118L153.305 102.064C153.633 102.253 153.872 102.565 153.97 102.931C154.068 103.296 154.017 103.685 153.827 104.013L140.275 127.487C140.086 127.814 139.774 128.053 139.409 128.151C139.043 128.249 138.654 128.198 138.326 128.009ZM117.515 112.699L138.517 124.825L150.643 103.822L129.641 91.696L117.515 112.699Z" fill="black"/>
<path d="M231.355 158.838L173.771 125.592C173.279 125.308 172.921 124.841 172.774 124.293C172.627 123.744 172.704 123.16 172.987 122.669C173.271 122.177 173.739 121.819 174.287 121.672C174.835 121.525 175.419 121.602 175.911 121.885L233.495 155.132C233.987 155.416 234.345 155.883 234.492 156.431C234.639 156.98 234.562 157.564 234.278 158.055C233.995 158.547 233.527 158.905 232.979 159.052C232.431 159.199 231.847 159.122 231.355 158.838Z" fill="#DFEAEF"/>
<path d="M208.506 161.723L166.809 137.65C166.318 137.366 165.959 136.898 165.812 136.35C165.665 135.802 165.742 135.218 166.026 134.726C166.31 134.235 166.777 133.876 167.325 133.729C167.873 133.583 168.457 133.659 168.949 133.943L210.646 158.017C211.137 158.301 211.496 158.768 211.643 159.316C211.789 159.864 211.713 160.448 211.429 160.94C211.145 161.431 210.678 161.79 210.129 161.937C209.581 162.084 208.997 162.007 208.506 161.723Z" fill="#DFEAEF"/>
<path d="M101.404 137.693L124.902 151.26L111.335 174.758L87.8368 161.192L101.404 137.693Z" fill="white"/>
<path d="M110.622 175.994L87.1484 162.441C86.8208 162.252 86.5817 161.94 86.4837 161.575C86.3858 161.209 86.4371 160.82 86.6263 160.492L100.179 137.019C100.368 136.691 100.68 136.452 101.045 136.354C101.41 136.256 101.8 136.307 102.128 136.496L125.601 150.049C125.929 150.238 126.168 150.55 126.266 150.915C126.364 151.281 126.313 151.67 126.123 151.998L112.571 175.471C112.382 175.799 112.07 176.038 111.705 176.136C111.339 176.234 110.95 176.183 110.622 175.994ZM89.8105 160.683L110.813 172.809L122.939 151.807L101.936 139.681L89.8105 160.683Z" fill="black"/>
<path d="M203.651 206.823L146.067 173.577C145.575 173.293 145.216 172.826 145.07 172.278C144.923 171.729 145 171.145 145.283 170.654C145.567 170.162 146.034 169.804 146.583 169.657C147.131 169.51 147.715 169.587 148.206 169.87L205.791 203.117C206.283 203.401 206.641 203.868 206.788 204.416C206.935 204.965 206.858 205.549 206.574 206.04C206.291 206.532 205.823 206.89 205.275 207.037C204.727 207.184 204.143 207.107 203.651 206.823Z" fill="#DFEAEF"/>
<path d="M165.494 200.871L139.105 185.635C138.613 185.351 138.255 184.884 138.108 184.336C137.961 183.788 138.038 183.204 138.321 182.712C138.605 182.221 139.073 181.862 139.621 181.715C140.169 181.568 140.753 181.645 141.245 181.929L167.634 197.165C168.125 197.448 168.484 197.916 168.631 198.464C168.778 199.012 168.701 199.596 168.417 200.088C168.133 200.579 167.666 200.938 167.118 201.085C166.57 201.232 165.986 201.155 165.494 200.871Z" fill="#DFEAEF"/>
<path d="M73.6995 185.678L97.1978 199.245L83.631 222.743L60.1327 209.176L73.6995 185.678Z" fill="white"/>
<path d="M82.9463 223.929L59.4726 210.377C59.145 210.187 58.9059 209.876 58.808 209.51C58.71 209.145 58.7613 208.756 58.9505 208.428L72.503 184.954C72.6922 184.627 73.0038 184.387 73.3692 184.29C73.7347 184.192 74.1241 184.243 74.4518 184.432L97.9254 197.985C98.2531 198.174 98.4922 198.485 98.5901 198.851C98.6881 199.216 98.6368 199.606 98.4476 199.933L84.8951 223.407C84.7059 223.735 84.3943 223.974 84.0288 224.072C83.6634 224.17 83.274 224.118 82.9463 223.929ZM62.1347 208.619L83.1375 220.745L95.2634 199.742L74.2606 187.616L62.1347 208.619Z" fill="black"/>
<path d="M175.947 254.809L118.362 221.562C117.87 221.279 117.512 220.811 117.365 220.263C117.218 219.715 117.295 219.131 117.579 218.639C117.863 218.148 118.33 217.789 118.878 217.642C119.426 217.495 120.01 217.572 120.502 217.856L178.087 251.103C178.578 251.386 178.937 251.854 179.084 252.402C179.23 252.95 179.154 253.534 178.87 254.026C178.586 254.517 178.119 254.876 177.57 255.023C177.022 255.17 176.438 255.093 175.947 254.809Z" fill="#DFEAEF"/>
<path d="M159.707 261.51L111.401 233.62C110.909 233.336 110.55 232.869 110.404 232.321C110.257 231.773 110.334 231.189 110.617 230.697C110.901 230.206 111.368 229.847 111.917 229.7C112.465 229.553 113.049 229.63 113.54 229.914L161.847 257.804C162.338 258.087 162.697 258.555 162.844 259.103C162.991 259.651 162.914 260.235 162.63 260.727C162.346 261.218 161.879 261.577 161.331 261.724C160.783 261.871 160.198 261.794 159.707 261.51Z" fill="#DFEAEF"/>
<path d="M127.114 114.732C126.943 114.658 126.782 114.565 126.632 114.454C126.396 114.214 126.22 113.921 126.119 113.599C126.019 113.277 125.996 112.936 126.053 112.604L128.493 97.9355C128.538 97.6579 128.638 97.392 128.787 97.153C128.935 96.9139 129.129 96.7065 129.358 96.5425C129.819 96.2112 130.393 96.0768 130.954 96.169C131.515 96.2611 132.016 96.5722 132.347 97.0337C132.678 97.4953 132.813 98.0696 132.721 98.6302L130.779 110.325L159.263 105.356C159.546 105.291 159.839 105.285 160.124 105.338C160.41 105.391 160.682 105.501 160.923 105.662C161.165 105.823 161.371 106.031 161.529 106.274C161.688 106.517 161.795 106.79 161.845 107.076C161.895 107.362 161.886 107.655 161.818 107.938C161.751 108.22 161.627 108.486 161.454 108.719C161.281 108.952 161.062 109.147 160.811 109.293C160.56 109.439 160.282 109.532 159.994 109.567L128.517 115.098C128.021 115.144 127.524 115.015 127.114 114.732Z" fill="#9A9B9A"/>
<path d="M99.5381 162.495C99.3645 162.427 99.2021 162.333 99.0563 162.217C98.818 161.978 98.6409 161.685 98.5401 161.363C98.4393 161.041 98.4176 160.699 98.4771 160.367L100.917 145.698C101.068 145.192 101.4 144.76 101.85 144.484C102.3 144.209 102.836 144.109 103.355 144.204C103.874 144.3 104.339 144.583 104.662 145.001C104.984 145.419 105.141 145.941 105.102 146.467L103.167 158.149L131.651 153.18C131.934 153.116 132.228 153.11 132.513 153.163C132.798 153.215 133.07 153.325 133.312 153.486C133.553 153.647 133.759 153.856 133.918 154.099C134.076 154.342 134.184 154.615 134.233 154.901C134.283 155.187 134.274 155.48 134.207 155.762C134.14 156.044 134.016 156.31 133.843 156.543C133.67 156.776 133.451 156.971 133.2 157.117C132.949 157.263 132.671 157.356 132.383 157.391L100.906 162.922C100.414 162.942 99.9308 162.791 99.5381 162.495Z" fill="#9A9B9A"/>
<path d="M65.2078 211.514C64.8414 211.31 64.5435 211.002 64.3516 210.63C64.1596 210.257 64.0822 209.836 64.1291 209.419C64.176 209.002 64.345 208.609 64.615 208.288C64.8849 207.967 65.2437 207.733 65.6463 207.616L94.1844 198.873C94.7283 198.706 95.3162 198.763 95.8185 199.029C96.3209 199.296 96.6967 199.752 96.8632 200.296C97.0297 200.84 96.9734 201.428 96.7065 201.93C96.4396 202.432 95.9841 202.808 95.4401 202.975L66.8968 211.698C66.618 211.787 66.3237 211.817 66.0328 211.785C65.7419 211.753 65.4609 211.661 65.2078 211.514Z" fill="#8C8988"/>
<path d="M82.8135 221.678C82.5583 221.531 82.3363 221.333 82.1614 221.095C81.9864 220.858 81.8623 220.588 81.7968 220.301L75.0926 191.227C75.0249 190.951 75.0125 190.666 75.0561 190.386C75.0997 190.106 75.1984 189.838 75.3466 189.596C75.4947 189.355 75.6893 189.145 75.9191 188.979C76.1489 188.814 76.4093 188.695 76.6851 188.631C76.961 188.567 77.2469 188.558 77.5262 188.605C77.8055 188.652 78.0727 188.754 78.3123 188.905C78.5518 189.057 78.759 189.254 78.9218 189.486C79.0846 189.717 79.1997 189.979 79.2605 190.256L85.97 219.349C86.0324 219.623 86.0403 219.907 85.9932 220.184C85.946 220.461 85.8447 220.726 85.6951 220.964C85.5455 221.202 85.3505 221.408 85.1213 221.571C84.892 221.733 84.633 221.849 84.3589 221.912C83.8329 222.034 83.2798 221.951 82.8135 221.678Z" fill="#8C8988"/>
</g>
</svg>
