<svg width="356" height="365" viewBox="0 0 356 365" fill="none" xmlns="http://www.w3.org/2000/svg">
<g opacity="0.5">
<path d="M56.1768 161.749C55.9001 161.907 55.5836 161.978 55.2716 161.954L33.4508 160.222C33.0531 160.19 32.6921 160.004 32.4472 159.706C32.2022 159.408 32.0935 159.022 32.1449 158.633C32.1962 158.244 32.4035 157.883 32.721 157.631C33.0386 157.378 33.4404 157.255 33.8381 157.287L55.6853 159.003C56.0805 159.033 56.4401 159.215 56.6859 159.509C56.9317 159.803 57.0436 160.186 56.9973 160.572C56.9681 160.815 56.878 161.049 56.7348 161.255C56.5916 161.46 56.3999 161.63 56.1768 161.749Z" fill="#DFEAEF"/>
<path d="M89.716 266.295C89.5156 266.412 89.2925 266.484 89.0636 266.506C88.8347 266.528 88.6061 266.499 88.3951 266.421C88.0291 266.284 87.7406 266.008 87.5926 265.654C87.4446 265.301 87.4491 264.898 87.6053 264.534L96.5413 243.856C96.717 243.52 97.0139 243.255 97.3725 243.114C97.731 242.974 98.1247 242.968 98.4746 243.099C98.8245 243.229 99.1048 243.486 99.2592 243.818C99.4136 244.15 99.4307 244.532 99.3071 244.888L90.3843 265.557C90.2495 265.866 90.0141 266.125 89.716 266.295Z" fill="#DFEAEF"/>
<path d="M76.2977 196.569L50.955 211.201C50.604 211.403 50.191 211.465 49.8069 211.373C49.4228 211.281 49.099 211.042 48.9068 210.709C48.7145 210.376 48.6696 209.976 48.7818 209.598C48.894 209.219 49.1543 208.892 49.5053 208.69L74.848 194.058C75.199 193.855 75.6119 193.793 75.9961 193.885C76.3802 193.978 76.704 194.216 76.8962 194.549C77.0885 194.882 77.1334 195.282 77.0212 195.661C76.9089 196.04 76.6487 196.366 76.2977 196.569Z" fill="#DFEAEF"/>
<path d="M221.096 66.5327C220.817 66.6953 220.495 66.7697 220.179 66.745C219.862 66.7204 219.566 66.598 219.333 66.3955C219.1 66.1929 218.943 65.9208 218.884 65.6181C218.825 65.3154 218.866 64.9978 219.003 64.711L228.454 44.9251C228.534 44.7396 228.651 44.57 228.797 44.4265C228.944 44.283 229.118 44.1686 229.308 44.0902C229.498 44.0117 229.701 43.9708 229.904 43.97C230.107 43.9691 230.307 44.0083 230.49 44.0852C230.674 44.1621 230.838 44.275 230.973 44.4173C231.107 44.5596 231.21 44.7283 231.274 44.9133C231.338 45.0982 231.362 45.2956 231.346 45.4935C231.329 45.6914 231.272 45.8858 231.177 46.0651L221.779 65.8204C221.636 66.1216 221.395 66.3722 221.096 66.5327Z" fill="#DFEAEF"/>
<path d="M294.906 147.829C294.613 147.997 294.276 148.068 293.947 148.031L271.572 145.432C271.376 145.408 271.189 145.347 271.021 145.252C270.853 145.157 270.708 145.03 270.593 144.878C270.478 144.726 270.396 144.552 270.352 144.366C270.308 144.18 270.302 143.985 270.335 143.794C270.368 143.602 270.439 143.417 270.544 143.249C270.65 143.081 270.787 142.933 270.949 142.814C271.11 142.695 271.293 142.607 271.486 142.556C271.679 142.504 271.879 142.49 272.075 142.513L294.436 145.12C294.83 145.167 295.181 145.365 295.413 145.67C295.645 145.975 295.74 146.362 295.676 146.748C295.638 146.97 295.549 147.182 295.415 147.37C295.282 147.557 295.108 147.714 294.906 147.829Z" fill="#DFEAEF"/>
<path d="M266.586 86.7057L241.204 101.36C240.853 101.563 240.44 101.625 240.056 101.533C239.672 101.441 239.348 101.202 239.156 100.869C238.963 100.536 238.918 100.136 239.031 99.7572C239.143 99.3785 239.403 99.0519 239.754 98.8492L265.097 84.2176C265.448 84.015 265.861 83.9529 266.245 84.0451C266.629 84.1372 266.953 84.3761 267.145 84.7091C267.337 85.0421 267.382 85.4419 267.27 85.8206C267.158 86.1994 266.898 86.526 266.547 86.7286L266.586 86.7057Z" fill="#DFEAEF"/>
<path d="M120.413 154.979C120.413 154.979 98.8827 176.549 100.117 182.599C100.117 182.599 96.9253 201.032 103.82 217.742C107.164 225.855 119.52 240.718 127.579 245.691C144.015 255.821 159.629 264.986 159.629 264.986L167.323 289.621L250.544 265.428L241.305 231.088C241.305 231.088 251.463 213.505 249.545 197.622C247.627 181.738 202.382 109.026 188.436 104.339C174.49 99.6516 120.413 154.979 120.413 154.979Z" fill="white"/>
<path d="M251.242 266.699C251.14 266.775 251.029 266.839 250.911 266.89L167.69 291.083C167.312 291.194 166.911 291.16 166.571 290.987C166.232 290.815 165.98 290.518 165.869 290.159L158.337 266.049C155.636 264.428 141.406 256.071 126.737 247.013C118.734 242.075 106.043 227.155 102.425 218.413C95.7916 202.339 98.2219 185.032 98.5923 182.709C97.8454 175.976 115.73 157.748 119.32 154.002C124.955 148.237 174.478 98.1344 188.924 102.985C203.021 107.719 248.948 180.757 250.977 197.414C252.788 212.255 244.598 228.082 242.847 231.252L251.982 265.016C252.08 265.388 252.02 265.79 251.816 266.133C251.674 266.364 251.477 266.558 251.242 266.699ZM168.301 287.801L248.652 264.444L239.759 231.528C239.66 231.16 239.715 230.761 239.913 230.419C240.007 230.247 249.824 213.112 247.958 197.868C246.069 182.218 200.93 110.149 187.8 105.744C184.867 104.759 176.058 106.463 150.06 129.006C135.026 142.055 121.462 155.879 121.372 155.998C112.678 164.717 100.768 178.624 101.511 182.263C101.537 182.438 101.539 182.617 101.518 182.795C101.477 182.969 98.4809 201.037 105.13 217.169C108.474 225.283 120.875 239.885 128.336 244.466C144.544 254.477 160.192 263.639 160.351 263.731C160.652 263.912 160.872 264.195 160.97 264.529L168.301 287.801Z" fill="black"/>
<path d="M154.481 38.4679L72.0215 86.0761C66.2987 89.3801 64.2005 96.4599 67.3351 101.889L155.349 254.333C158.483 259.762 165.664 261.485 171.386 258.181L253.846 210.573C259.569 207.269 261.667 200.189 258.532 194.76L170.519 42.316C167.384 36.8867 160.204 35.1638 154.481 38.4679Z" fill="#727272"/>
<path d="M254.578 211.841L172.118 259.449C169.015 261.232 165.368 261.774 161.977 260.959C158.586 260.143 155.726 258.035 154.025 255.097L66.0261 102.678C64.3319 99.7357 63.9361 96.2053 64.9254 92.8604C65.9146 89.5155 68.2082 86.6288 71.3037 84.8328L153.763 37.2246C156.867 35.4419 160.513 34.8989 163.905 35.7146C167.296 36.5304 170.156 38.6384 171.857 41.5767L259.856 193.995C261.55 196.938 261.946 200.468 260.956 203.813C259.967 207.158 257.673 210.045 254.578 211.841ZM72.7462 87.3312C70.3504 88.7233 68.5762 90.9596 67.8127 93.55C67.0491 96.1403 67.3584 98.8734 68.6728 101.15L156.672 253.569C157.988 255.841 160.2 257.471 162.823 258.103C165.447 258.734 168.267 258.315 170.669 256.938L253.128 209.33C255.525 207.942 257.301 205.708 258.066 203.119C258.831 200.531 258.523 197.799 257.209 195.523L169.21 43.1048C167.896 40.8294 165.684 39.1965 163.06 38.5648C160.436 37.9331 157.613 38.3542 155.213 39.7356L72.7462 87.3312Z" fill="black"/>
<path d="M164.303 58.1078L84.1191 104.402C81.1225 106.132 80.0238 109.839 81.6652 112.682L151.441 233.537C153.082 236.38 156.842 237.282 159.839 235.552L240.022 189.258C243.019 187.528 244.118 183.821 242.476 180.978L172.7 60.1228C171.059 57.2799 167.299 56.3777 164.303 58.1078Z" fill="white"/>
<path d="M240.76 190.506L160.59 236.792C158.799 237.822 156.694 238.136 154.737 237.666C152.779 237.197 151.127 235.981 150.144 234.286L80.361 113.418C79.3853 111.72 79.1595 109.683 79.7332 107.755C80.3068 105.826 81.633 104.163 83.4207 103.131L163.617 56.8293C165.404 55.7979 167.506 55.482 169.461 55.9511C171.416 56.4202 173.064 57.6359 174.043 59.3308L243.826 180.199C244.312 181.04 244.618 181.975 244.727 182.949C244.836 183.923 244.746 184.917 244.461 185.875C244.176 186.832 243.703 187.734 243.068 188.529C242.433 189.323 241.649 189.995 240.76 190.506ZM84.8704 105.642C84.3313 105.951 83.8554 106.358 83.4699 106.839C83.0844 107.321 82.7968 107.868 82.6238 108.448C82.4508 109.029 82.3956 109.631 82.4615 110.222C82.5274 110.813 82.713 111.379 83.0078 111.89L152.791 232.758C153.387 233.79 154.391 234.53 155.581 234.816C156.772 235.102 158.052 234.909 159.14 234.281L239.337 187.98C240.421 187.349 241.223 186.337 241.569 185.165C241.914 183.993 241.774 182.757 241.179 181.727L171.396 60.8589C170.802 59.83 169.802 59.092 168.615 58.8072C167.428 58.5224 166.152 58.7142 165.067 59.3403L84.8704 105.642Z" fill="black"/>
<path d="M103.727 83.8406C104.648 83.3089 104.986 82.1696 104.481 81.2959C103.977 80.4222 102.821 80.145 101.9 80.6767C100.979 81.2084 100.642 82.3477 101.146 83.2213C101.651 84.095 102.806 84.3723 103.727 83.8406Z" fill="black"/>
<path d="M138.185 63.5116L111.506 78.9149C111.155 79.1176 110.742 79.1796 110.358 79.0875C109.973 78.9953 109.65 78.7565 109.457 78.4235C109.265 78.0905 109.22 77.6907 109.332 77.3119C109.445 76.9332 109.705 76.6066 110.056 76.4039L136.735 61.0006C137.086 60.798 137.499 60.7359 137.883 60.8281C138.267 60.9202 138.591 61.1591 138.783 61.4921C138.976 61.825 139.021 62.2249 138.908 62.6036C138.796 62.9824 138.536 63.309 138.185 63.5116Z" fill="black"/>
<path d="M209.158 228.372C212.403 226.498 213.593 222.484 211.815 219.405C210.038 216.326 205.966 215.349 202.721 217.223C199.476 219.096 198.286 223.111 200.064 226.19C201.841 229.268 205.913 230.245 209.158 228.372Z" fill="#727272"/>
<path d="M209.883 229.627C208.457 230.454 206.83 230.86 205.208 230.795C203.586 230.73 202.043 230.197 200.773 229.262C199.504 228.327 198.565 227.034 198.076 225.545C197.587 224.056 197.569 222.439 198.026 220.898C198.482 219.358 199.392 217.963 200.64 216.891C201.888 215.819 203.418 215.118 205.037 214.876C206.655 214.634 208.289 214.863 209.731 215.533C211.173 216.203 212.359 217.285 213.139 218.641C214.18 220.453 214.423 222.627 213.812 224.686C213.202 226.745 211.789 228.522 209.883 229.627ZM203.439 218.466C202.534 218.985 201.795 219.747 201.317 220.656C200.838 221.565 200.641 222.58 200.75 223.572C200.859 224.564 201.27 225.488 201.93 226.228C202.59 226.969 203.47 227.491 204.459 227.73C205.447 227.968 206.5 227.913 207.483 227.569C208.466 227.226 209.336 226.61 209.982 225.801C210.628 224.991 211.021 224.024 211.112 223.021C211.203 222.019 210.987 221.026 210.492 220.169C209.827 219.025 208.713 218.205 207.392 217.886C206.071 217.567 204.65 217.775 203.439 218.466Z" fill="#DFEAEF"/>
<path d="M207.702 96.6638L191.517 106.008C187.797 108.156 186.433 112.758 188.471 116.288L190.776 120.28C192.813 123.81 197.481 124.93 201.201 122.782L217.386 113.437C221.106 111.29 222.47 106.687 220.433 103.158L218.128 99.1653C216.09 95.6359 211.422 94.516 207.702 96.6638Z" fill="white"/>
<path d="M218.098 114.701L201.926 124.037C199.789 125.271 197.274 125.649 194.934 125.088C192.595 124.527 190.623 123.072 189.452 121.044L187.147 117.052C185.976 115.024 185.703 112.589 186.386 110.282C187.07 107.976 188.655 105.987 190.792 104.753L206.964 95.416C209.102 94.1812 211.619 93.802 213.96 94.3617C216.301 94.9214 218.276 96.3743 219.451 98.4013L221.756 102.394C222.924 104.425 223.195 106.862 222.509 109.169C221.823 111.476 220.236 113.466 218.098 114.701ZM192.242 107.264C190.806 108.092 189.742 109.428 189.283 110.977C188.824 112.526 189.008 114.162 189.794 115.524L192.099 119.516C192.888 120.875 194.213 121.849 195.782 122.226C197.352 122.603 199.04 122.351 200.476 121.526L216.648 112.19C218.085 111.36 219.151 110.024 219.612 108.474C220.073 106.924 219.893 105.287 219.109 103.922L216.804 99.9294C216.014 98.5684 214.686 97.5932 213.113 97.2178C211.54 96.8424 209.85 97.0975 208.413 97.927L192.242 107.264Z" fill="black"/>
<path d="M222.791 113.782L203.191 125.098C199.201 127.402 197.738 132.339 199.924 136.125L201.692 139.188C203.878 142.974 208.885 144.176 212.876 141.872L232.475 130.556C236.466 128.252 237.929 123.315 235.743 119.529L233.974 116.466C231.788 112.68 226.781 111.478 222.791 113.782Z" fill="white"/>
<path d="M233.213 131.804L213.6 143.127C211.332 144.432 208.666 144.831 206.186 144.236C203.705 143.641 201.614 142.1 200.369 139.952L198.593 136.876C197.356 134.725 197.069 132.145 197.795 129.701C198.521 127.257 200.201 125.15 202.467 123.843L222.079 112.519C224.343 111.212 227.007 110.812 229.484 111.406C231.962 112.001 234.05 113.541 235.29 115.689L237.066 118.765C238.307 120.914 238.598 123.494 237.875 125.939C237.153 128.383 235.476 130.493 233.213 131.804ZM203.916 126.354C202.353 127.256 201.194 128.71 200.692 130.396C200.19 132.082 200.387 133.863 201.24 135.348L203.016 138.424C203.873 139.909 205.317 140.975 207.03 141.386C208.743 141.797 210.585 141.52 212.151 140.616L231.763 129.293C232.545 128.848 233.235 128.262 233.794 127.566C234.354 126.871 234.771 126.081 235.023 125.242C235.275 124.402 235.356 123.53 235.261 122.676C235.167 121.821 234.899 121.001 234.472 120.263L232.696 117.187C231.838 115.708 230.397 114.648 228.689 114.238C226.981 113.828 225.144 114.102 223.582 115L203.916 126.354Z" fill="black"/>
<path d="M233.968 133.142L214.369 144.458C210.378 146.762 208.915 151.699 211.101 155.485L212.87 158.548C215.055 162.334 220.062 163.535 224.053 161.231L243.652 149.916C247.643 147.612 249.106 142.675 246.92 138.889L245.152 135.826C242.966 132.04 237.959 130.838 233.968 133.142Z" fill="white"/>
<path d="M244.398 151.176L224.785 162.5C222.517 163.805 219.851 164.203 217.37 163.608C214.89 163.013 212.798 161.473 211.553 159.325L209.777 156.249C208.54 154.097 208.252 151.515 208.976 149.069C209.701 146.624 211.38 144.514 213.644 143.202L233.256 131.879C235.523 130.575 238.189 130.177 240.667 130.774C243.145 131.371 245.234 132.913 246.475 135.062L248.229 138.1C248.85 139.164 249.244 140.347 249.388 141.581C249.532 142.815 249.422 144.075 249.066 145.29C248.71 146.504 248.115 147.65 247.314 148.66C246.513 149.67 245.522 150.525 244.398 151.176ZM215.094 145.713C213.528 146.617 212.368 148.074 211.867 149.763C211.366 151.452 211.567 153.236 212.424 154.721L214.178 157.759C215.036 159.244 216.48 160.309 218.193 160.72C219.906 161.131 221.748 160.855 223.314 159.951L242.926 148.628C243.707 148.183 244.398 147.596 244.957 146.901C245.517 146.206 245.934 145.416 246.186 144.576C246.438 143.737 246.519 142.865 246.424 142.011C246.33 141.156 246.062 140.336 245.635 139.597L243.859 136.521C243.003 135.039 241.562 133.974 239.852 133.562C238.142 133.149 236.302 133.423 234.737 134.322L215.094 145.713Z" fill="black"/>
<path d="M241.249 154.769L225.064 164.113C221.344 166.261 219.98 170.864 222.018 174.393L224.323 178.385C226.36 181.915 231.028 183.035 234.748 180.887L250.933 171.543C254.653 169.395 256.017 164.792 253.98 161.263L251.675 157.271C249.637 153.741 244.969 152.621 241.249 154.769Z" fill="white"/>
<path d="M251.645 172.806L235.473 182.142C233.336 183.377 230.821 183.755 228.481 183.193C226.142 182.632 224.17 181.177 222.999 179.15L220.694 175.157C219.523 173.129 219.25 170.694 219.933 168.388C220.617 166.081 222.202 164.092 224.339 162.858L240.511 153.521C242.649 152.286 245.166 151.907 247.507 152.467C249.848 153.027 251.823 154.479 252.998 156.506L255.303 160.499C256.471 162.53 256.742 164.967 256.056 167.274C255.37 169.582 253.783 171.571 251.645 172.806ZM225.789 165.369C224.356 166.2 223.295 167.536 222.836 169.084C222.377 170.632 222.559 172.266 223.341 173.629L225.646 177.621C226.432 178.983 227.757 179.96 229.328 180.337C230.899 180.714 232.588 180.46 234.023 179.631L250.195 170.295C251.632 169.465 252.698 168.129 253.159 166.579C253.62 165.029 253.44 163.392 252.656 162.027L250.351 158.035C249.561 156.674 248.233 155.698 246.66 155.323C245.087 154.948 243.397 155.203 241.96 156.032L225.789 165.369Z" fill="black"/>
<path d="M122.215 211.491C122.215 211.491 129.997 166.687 127.667 151.192C126.334 142.403 114.797 142.836 112.188 144.644C103.091 150.984 100.368 180.345 100.368 180.345" fill="white"/>
<path d="M122.939 212.746C122.691 212.891 122.408 212.967 122.125 212.964C121.841 212.962 121.567 212.881 121.335 212.732C121.104 212.582 120.923 212.37 120.814 212.12C120.705 211.869 120.672 211.591 120.719 211.316C120.797 210.869 128.416 166.579 126.169 151.471C126.013 150.177 125.496 148.965 124.673 147.966C123.851 146.966 122.753 146.216 121.499 145.797C118.078 144.424 114.031 145.086 113.003 145.781C106.034 150.641 102.584 172.386 101.843 180.364C101.805 180.75 101.612 181.113 101.307 181.374C101.002 181.635 100.609 181.772 100.213 181.757C100.015 181.75 99.8219 181.704 99.6452 181.623C99.4686 181.543 99.3117 181.428 99.1837 181.285C99.0556 181.143 98.9588 180.976 98.899 180.794C98.8391 180.613 98.8173 180.419 98.8348 180.226C98.9566 179 101.731 150.096 111.322 143.42C113.384 141.978 118.606 141.458 122.719 143.05C124.429 143.648 125.923 144.686 127.047 146.059C128.171 147.431 128.885 149.088 129.115 150.858C131.474 166.404 123.989 209.797 123.627 211.646C123.602 211.864 123.526 212.076 123.407 212.266C123.288 212.456 123.128 212.62 122.939 212.746Z" fill="black"/>
<path d="M257.995 263.754L158.299 296.789L153.657 277.657L251.81 244.24L257.995 263.754Z" fill="#727272"/>
<path d="M258.719 265.01C258.634 265.075 258.541 265.129 258.441 265.17L158.738 298.193C158.543 298.262 158.336 298.291 158.132 298.275C157.928 298.26 157.732 298.202 157.558 298.104C157.381 298.012 157.227 297.886 157.105 297.732C156.982 297.578 156.895 297.4 156.847 297.209L152.227 278.114C152.14 277.754 152.199 277.369 152.391 277.038C152.583 276.706 152.894 276.452 153.261 276.328L251.414 242.912C251.795 242.783 252.207 242.804 252.559 242.971C252.91 243.139 253.172 243.439 253.288 243.805L259.48 263.332C259.595 263.698 259.555 264.1 259.367 264.451C259.208 264.691 258.983 264.885 258.719 265.01ZM159.387 294.855L256.098 262.823L250.792 246.083L155.444 278.55L159.387 294.855Z" fill="black"/>
<path d="M276.967 281.945L266.319 258.948L148.765 300.57L157.677 350.817L276.967 281.945Z" fill="#F3F3F3"/>
<path d="M277.699 283.213L158.356 352.116C158.145 352.239 157.908 352.313 157.666 352.33C157.424 352.347 157.184 352.308 156.967 352.215C156.749 352.122 156.561 351.979 156.416 351.798C156.271 351.616 156.175 351.401 156.135 351.172L147.215 300.912C147.156 300.565 147.228 300.203 147.419 299.893C147.609 299.583 147.905 299.346 148.253 299.225L265.807 257.603C266.162 257.475 266.549 257.478 266.89 257.612C267.231 257.746 267.504 258.001 267.654 258.328L278.289 281.332C278.439 281.652 278.463 282.019 278.354 282.365C278.245 282.712 278.012 283.013 277.699 283.213ZM158.812 348.504L275.031 281.405L265.49 260.783L150.472 301.509L158.812 348.504Z" fill="black"/>
<path d="M140.359 171.921C140.106 172.07 139.818 172.147 139.528 172.143C139.239 172.139 138.961 172.053 138.728 171.897C138.494 171.74 138.315 171.519 138.211 171.261C138.108 171.002 138.084 170.716 138.144 170.438L158.286 74.1535C158.327 73.963 158.405 73.7805 158.517 73.6163C158.629 73.4521 158.772 73.3095 158.938 73.1966C159.104 73.0837 159.289 73.0028 159.484 72.9585C159.679 72.9141 159.879 72.9072 160.073 72.9381C160.267 72.969 160.451 73.0372 160.614 73.1387C160.778 73.2401 160.918 73.3729 161.026 73.5295C161.135 73.6861 161.209 73.8634 161.246 74.0512C161.283 74.2391 161.281 74.4338 161.24 74.6244L141.111 170.901C141.066 171.11 140.976 171.31 140.846 171.486C140.716 171.662 140.55 171.811 140.359 171.921Z" fill="#727272"/>
<path d="M163.349 217.121C163.014 217.313 162.623 217.377 162.254 217.301C161.866 217.225 161.533 217 161.326 216.677C161.12 216.354 161.057 215.958 161.152 215.577L182.102 132.671C182.199 132.288 182.447 131.952 182.791 131.736C183.134 131.521 183.546 131.443 183.935 131.521C184.323 131.598 184.657 131.824 184.863 132.15C185.069 132.475 185.13 132.873 185.033 133.255L164.083 216.161C164.033 216.359 163.941 216.546 163.815 216.711C163.689 216.876 163.53 217.015 163.349 217.121Z" fill="#727272"/>
<path d="M119.57 122.437C119.229 122.632 118.829 122.695 118.454 122.612C118.072 122.519 117.75 122.281 117.558 121.949C117.367 121.618 117.321 121.22 117.432 120.842L124.879 93.3071C124.934 93.1184 125.027 92.9405 125.151 92.7837C125.275 92.6268 125.43 92.4941 125.604 92.3933C125.779 92.2924 125.971 92.2254 126.169 92.196C126.367 92.1666 126.567 92.1755 126.758 92.2222C127.141 92.3151 127.463 92.5534 127.654 92.8851C127.846 93.2168 127.891 93.6149 127.78 93.9924L120.327 121.548C120.265 121.734 120.166 121.909 120.036 122.062C119.907 122.214 119.748 122.342 119.57 122.437Z" fill="#727272"/>
<path d="M178.628 318.767C182.611 316.467 184.071 311.539 181.89 307.76C179.708 303.981 174.71 302.782 170.727 305.082C166.743 307.382 165.283 312.31 167.465 316.089C169.647 319.868 174.644 321.067 178.628 318.767Z" fill="#A8A8A8"/>
<path d="M179.352 320.022C177.665 321 175.741 321.481 173.822 321.404C171.904 321.327 170.078 320.696 168.576 319.591C167.074 318.485 165.962 316.955 165.383 315.194C164.803 313.433 164.781 311.52 165.32 309.698C165.859 307.875 166.934 306.224 168.409 304.955C169.884 303.685 171.693 302.854 173.607 302.565C175.521 302.277 177.454 302.545 179.162 303.335C180.869 304.125 182.275 305.402 183.2 307.004C184.438 309.149 184.729 311.726 184.008 314.166C183.286 316.607 181.612 318.713 179.352 320.022ZM171.459 306.35C170.291 307.021 169.339 308.005 168.722 309.178C168.106 310.351 167.853 311.661 167.995 312.941C168.137 314.22 168.669 315.413 169.522 316.367C170.375 317.321 171.512 317.993 172.788 318.299C174.064 318.606 175.422 318.531 176.689 318.086C177.957 317.641 179.078 316.845 179.91 315.799C180.741 314.753 181.246 313.504 181.361 312.211C181.475 310.917 181.194 309.637 180.553 308.532C180.134 307.794 179.565 307.15 178.879 306.639C178.193 306.127 177.403 305.758 176.556 305.551C175.709 305.345 174.82 305.306 173.942 305.437C173.063 305.567 172.212 305.865 171.437 306.312L171.459 306.35Z" fill="black"/>
</g>
</svg>
