<svg width="83" height="53" viewBox="0 0 83 53" fill="none" xmlns="http://www.w3.org/2000/svg">
<path d="M41.4079 0.79101C22.9354 0.79101 7.15981 11.5351 0.768311 26.7011C7.15981 41.8671 22.9354 52.6112 41.4079 52.6112C59.8804 52.6112 75.656 41.8671 82.0475 26.7011C75.656 11.5351 59.8804 0.79101 41.4079 0.79101ZM41.4079 43.9745C31.2111 43.9745 22.9354 36.236 22.9354 26.7011C22.9354 17.1662 31.2111 9.4277 41.4079 9.4277C51.6047 9.4277 59.8804 17.1662 59.8804 26.7011C59.8804 36.236 51.6047 43.9745 41.4079 43.9745ZM41.4079 16.3371C35.275 16.3371 30.3244 20.9663 30.3244 26.7011C30.3244 32.4359 35.275 37.0651 41.4079 37.0651C47.5408 37.0651 52.4914 32.4359 52.4914 26.7011C52.4914 20.9663 47.5408 16.3371 41.4079 16.3371Z" fill="black"/>
</svg>
