<svg width="22" height="28" viewBox="0 0 22 28" fill="none" xmlns="http://www.w3.org/2000/svg">
<path d="M19.3433 19.1133L15.0953 16.3521L16.6969 13.416C17.0702 12.7303 17.2661 11.9621 17.2667 11.1814V6.53333C17.2667 4.80059 16.5783 3.13881 15.3531 1.91357C14.1279 0.688331 12.4661 0 10.7333 0C9.00059 0 7.33881 0.688331 6.11358 1.91357C4.88834 3.13881 4.20001 4.80059 4.20001 6.53333V11.1814C4.20059 11.9621 4.39647 12.7303 4.76981 13.416L6.37135 16.3521L2.12334 19.1133C1.47048 19.5359 0.934029 20.1155 0.563083 20.7991C0.192137 21.4826 -0.00145915 22.2483 8.28033e-06 23.026V28H21.4667V23.026C21.4681 22.2483 21.2745 21.4826 20.9036 20.7991C20.5326 20.1155 19.9962 19.5359 19.3433 19.1133ZM19.6 26.1333H1.86667V23.026C1.8658 22.5594 1.98197 22.1 2.20455 21.6898C2.42712 21.2797 2.749 20.9319 3.14073 20.6783L8.83757 16.9754L6.40857 12.5222C6.18457 12.1108 6.06704 11.6498 6.06667 11.1814V6.53333C6.06667 5.29566 6.55834 4.10867 7.43351 3.2335C8.30868 2.35833 9.49566 1.86667 10.7333 1.86667C11.971 1.86667 13.158 2.35833 14.0332 3.2335C14.9083 4.10867 15.4 5.29566 15.4 6.53333V11.1814C15.3996 11.6498 15.2821 12.1108 15.0581 12.5222L12.6292 16.9754L18.3261 20.6783C18.7178 20.932 19.0397 21.2797 19.2622 21.6899C19.4848 22.1 19.6009 22.5594 19.6 23.026V26.1333Z" fill="white"/>
</svg>
